<svg width="24" height="34" viewBox="0 0 24 34" fill="none" xmlns="http://www.w3.org/2000/svg">
<path d="M7.26943 27.4558C7.26943 25.8263 7.26152 24.1968 7.27734 22.5673C7.27734 22.3447 7.20613 22.2414 7.01626 22.138C2.80731 19.8329 0.78195 16.2559 0.892711 11.4469C0.900623 11.2084 0.932269 10.962 0.963915 10.7235C1.01138 10.4135 1.20126 10.2307 1.45443 10.2545C1.72342 10.2784 1.89748 10.493 1.86583 10.8189C1.75507 11.8284 1.73925 12.8379 1.92913 13.8474C2.60952 17.4482 4.5795 20.0634 7.91817 21.5419C12.9737 23.7834 18.8203 21.5816 21.2096 16.5738C24.1369 10.4374 20.3314 3.11649 13.6541 2.0434C12.3407 1.82878 11.0353 1.86058 9.73783 2.16263C9.68245 2.17853 9.62707 2.18648 9.5796 2.19443C9.26314 2.23417 9.05744 2.11494 8.99415 1.86058C8.93877 1.61416 9.08117 1.3757 9.38972 1.32006C9.99891 1.20083 10.616 1.0657 11.2331 1.02595C16.7475 0.652357 21.6447 4.34856 22.8473 9.7776C23.9391 14.6741 21.5735 19.7693 17.1351 22.0665C16.8187 22.2334 16.7079 22.3924 16.7079 22.758C16.7237 25.8819 16.7158 29.0137 16.7158 32.1376C16.7158 32.2171 16.7396 32.2966 16.7079 32.3681C16.6367 32.5589 16.5892 32.7974 16.4468 32.9246C16.257 33.0915 16.0433 32.9484 15.8535 32.8133C14.9832 32.1535 14.105 31.4938 13.2268 30.834C12.8866 30.5797 12.5306 30.3332 12.2062 30.055C12.0322 29.912 11.9214 29.9358 11.7553 30.063C10.5606 30.9771 9.35808 31.8753 8.15552 32.7815C7.96564 32.9246 7.78368 33.0676 7.53051 32.9484C7.26943 32.8212 7.2536 32.5828 7.2536 32.3284C7.26943 30.6909 7.26943 29.0694 7.26943 27.4558ZM8.20299 31.5971C9.36599 30.7227 10.4815 29.8802 11.5891 29.0455C11.9293 28.7912 12.0638 28.7832 12.404 29.0376C13.2743 29.6894 14.1367 30.3412 15.0069 31.0009C15.2601 31.1917 15.5054 31.3745 15.7902 31.5812C15.7902 28.5845 15.7902 25.6355 15.7902 22.6626C14.5481 23.1078 13.2901 23.3224 12.0005 23.3224C10.703 23.3224 9.43719 23.0919 8.20299 22.6626C8.20299 25.6434 8.20299 28.5925 8.20299 31.5971Z" fill="white" stroke="white"/>
<path d="M3.82081 12.1303C3.84454 7.5756 7.51551 3.91914 12.0488 3.94299C16.5505 3.96683 20.1977 7.65509 20.1819 12.1541C20.1661 16.7326 16.4793 20.4129 11.9539 20.3732C7.42848 20.3414 3.79707 16.6531 3.82081 12.1303ZM4.72273 12.1382C4.7702 16.2716 8.00602 19.4909 12.0805 19.4591C16.0442 19.4273 19.3116 16.0967 19.2721 12.1382C19.2325 8.06047 15.9413 4.80146 11.9143 4.8412C7.95064 4.8889 4.67526 8.2115 4.72273 12.1382Z" fill="white" stroke="white"/>
<path d="M3.55146 6.23177C3.5119 6.37485 3.49607 6.45434 3.46443 6.51793C3.23499 6.92332 3.00556 7.33666 2.7603 7.74205C2.6258 7.97257 2.39637 8.02026 2.16693 7.90103C1.9375 7.7818 1.85838 7.55128 1.96914 7.33666C2.19858 6.89153 2.43592 6.44639 2.72865 6.03305C2.80777 5.92177 3.07676 5.86613 3.2429 5.90587C3.36949 5.92972 3.46443 6.12844 3.55146 6.23177Z" fill="white" stroke="white"/>
<path d="M6.35852 2.63135C6.44555 2.71084 6.63543 2.79827 6.67499 2.9334C6.72246 3.07648 6.69081 3.33084 6.58796 3.42623C6.21612 3.75213 5.81263 4.03034 5.40122 4.30855C5.19552 4.43573 4.95818 4.38804 4.85533 4.18932C4.77621 4.03829 4.75248 3.73623 4.8395 3.65675C5.25091 3.29905 5.70978 2.99699 6.15282 2.67904C6.18447 2.65519 6.23194 2.65519 6.35852 2.63135Z" fill="white" stroke="white"/>
<path d="M9.03398 15.4619C9.15266 14.7783 9.27133 14.0311 9.41374 13.2839C9.46121 13.0455 9.42165 12.8785 9.23968 12.7037C8.71752 12.2188 8.21909 11.7101 7.70484 11.2093C7.5387 11.0503 7.4042 10.8754 7.49123 10.629C7.57826 10.3906 7.77605 10.327 8.01339 10.2952C8.74126 10.1998 9.46912 10.0965 10.1891 9.96928C10.3236 9.94544 10.4818 9.83415 10.5451 9.71492C10.8853 9.06312 11.2097 8.40337 11.5261 7.73567C11.629 7.52105 11.7714 7.31438 12.0087 7.37002C12.1907 7.41771 12.3885 7.58464 12.4834 7.75156C12.8236 8.36362 13.1243 8.99953 13.417 9.63543C13.5198 9.858 13.6385 9.96133 13.8996 9.99313C14.6195 10.0726 15.3316 10.1839 16.0436 10.3111C16.2177 10.3429 16.4629 10.4939 16.5025 10.637C16.55 10.788 16.4392 11.0424 16.3205 11.1775C15.8142 11.7101 15.2841 12.2188 14.7461 12.7275C14.5879 12.8706 14.5483 13.0137 14.5879 13.2203C14.7145 13.9119 14.8411 14.6034 14.9518 15.3029C14.9756 15.4619 14.9914 15.6368 14.9439 15.7878C14.8648 16.0581 14.5642 16.1296 14.2556 15.9706C13.5831 15.6209 12.9186 15.2711 12.254 14.9055C12.0799 14.8101 11.9454 14.8181 11.7714 14.9134C11.1068 15.2791 10.4422 15.6288 9.76976 15.9706C9.34253 16.1853 9.01025 15.9786 9.03398 15.4619ZM10.0783 14.7783C10.6163 14.5001 11.1068 14.2537 11.5736 13.9834C11.8742 13.8086 12.1274 13.8006 12.428 13.9834C12.8948 14.2616 13.3853 14.4922 13.9233 14.7783C13.8284 14.2378 13.773 13.745 13.6543 13.268C13.5436 12.8229 13.6464 12.497 13.9945 12.195C14.3664 11.869 14.6828 11.4716 15.023 11.106C14.493 11.0265 13.955 10.9231 13.417 10.8675C13.0768 10.8357 12.8869 10.6767 12.7524 10.3747C12.5309 9.88185 12.2777 9.39697 12.0008 8.84055C11.7793 9.28569 11.5499 9.65133 11.4154 10.0488C11.2097 10.6529 10.8141 10.9072 10.197 10.9231C9.78558 10.939 9.37418 11.0424 8.9786 11.098C9.39 11.5352 9.77767 11.9485 10.1732 12.3539C10.3552 12.5447 10.4422 12.7275 10.3869 13.0057C10.2682 13.5621 10.1891 14.1265 10.0783 14.7783Z" fill="white"/>
</svg>
