<svg xmlns="http://www.w3.org/2000/svg" width="26" height="24" viewBox="0 0 26 24" fill="none">
  <path opacity="0.37" d="M8.09961 18.2993L17.3648 7.89453L21.0237 8.42146L21.2962 9.12361L17.6738 13.0966L18.3347 17.6844V18.5624H17.6738L16.4101 18.0355L15.5183 17.5934L13.3893 16.8561L12.7801 16.6099L8.46033 18.5624L8.09961 18.2993Z" fill="white"/>
  <path d="M25.1072 12.2824C25.0441 12.457 24.9912 12.636 24.9161 12.8049C24.7471 13.1855 24.4034 13.3237 24.0263 13.1591C23.5956 12.972 23.1705 12.7735 22.7436 12.5782C22.5014 12.4677 22.3621 12.2824 22.3539 12.0136C22.3457 11.7347 22.4781 11.5375 22.7253 11.4132C23.1447 11.2022 23.5615 10.9855 23.9841 10.7814C24.394 10.5835 24.7452 10.7205 24.918 11.1431C24.9943 11.3297 25.0448 11.5262 25.1072 11.7178C25.1072 11.9068 25.1072 12.0946 25.1072 12.2824ZM24.2546 11.4314C23.8989 11.611 23.5426 11.79 23.1459 11.9904C23.5489 12.1719 23.909 12.3345 24.2678 12.4959C24.4469 12.1392 24.4425 11.7913 24.2546 11.4314Z" fill="white"/>
  <path d="M17.7949 19.0892C17.6411 19.0364 17.4784 19.0006 17.3352 18.9284C16.803 18.6596 16.2758 18.3801 15.7479 18.1025C15.495 17.9694 15.4149 17.7891 15.5139 17.5938C15.6186 17.3866 15.8148 17.3457 16.0803 17.4839C16.5885 17.7477 17.0918 18.0221 17.6064 18.2746C17.7092 18.3249 17.8807 18.3406 17.9665 18.2866C18.0365 18.2432 18.0623 18.0649 18.044 17.9575C17.7949 16.4677 17.5376 14.9793 17.2766 13.4915C17.2028 13.0707 17.3144 12.7322 17.6278 12.4319C18.7049 11.4007 19.7732 10.3594 20.8365 9.31372C20.9292 9.22203 21.0326 9.04366 21.0004 8.95009C20.9676 8.85462 20.7791 8.77675 20.6492 8.75665C19.1502 8.5293 17.6493 8.31388 16.149 8.09784C15.7586 8.04131 15.4957 7.83217 15.3229 7.47921C14.6714 6.15091 14.0105 4.82637 13.3534 3.50057C13.3357 3.4654 13.3276 3.42081 13.3004 3.39694C13.209 3.31404 13.115 3.18404 13.0141 3.1765C12.9315 3.17022 12.8041 3.29583 12.7543 3.39255C12.4308 4.0187 12.1237 4.6524 11.8109 5.28358C11.7831 5.33948 11.7585 5.39788 11.7258 5.45064C11.6154 5.62712 11.43 5.68553 11.2597 5.60074C11.0932 5.51784 11.0257 5.33006 11.1008 5.13787C11.1317 5.05811 11.1765 4.98338 11.2143 4.90613C11.5195 4.28876 11.826 3.6714 12.13 3.05278C12.3154 2.67532 12.603 2.45111 13.0368 2.45614C13.46 2.46053 13.7381 2.68474 13.9203 3.05278C14.5894 4.40746 15.2642 5.75964 15.9289 7.11621C16.0172 7.29645 16.1276 7.38375 16.3338 7.41264C17.812 7.61864 19.2876 7.84285 20.7658 8.05073C21.1959 8.11102 21.5365 8.27934 21.6853 8.70829C21.8379 9.14666 21.6746 9.49523 21.3536 9.80485C20.2903 10.8286 19.2391 11.8642 18.1721 12.8835C17.9898 13.0581 17.9431 13.2258 17.9854 13.4644C18.2503 14.9517 18.505 16.4401 18.7611 17.9292C18.8645 18.5365 18.4167 19.0634 17.7949 19.0892Z" fill="white"/>
  <path d="M7.26487 18.0833C7.35001 17.5865 7.43893 17.0628 7.52974 16.5383C7.70947 15.4977 7.88478 14.4558 8.07271 13.4163C8.11181 13.199 8.05379 13.0508 7.89551 12.8988C6.80325 11.8488 5.71605 10.7943 4.63389 9.73414C4.0947 9.20658 4.25866 8.37003 4.941 8.12887C5.05767 8.08741 5.18443 8.06983 5.30866 8.05224C6.79316 7.83494 8.27704 7.61764 9.76217 7.40725C9.93055 7.38338 10.0321 7.31053 10.1002 7.1598C10.1935 6.95317 10.2963 6.75031 10.4004 6.54871C10.5183 6.32011 10.7056 6.23783 10.8979 6.32513C11.0909 6.41243 11.1489 6.61466 11.0386 6.84703C10.9244 7.08757 10.8033 7.32434 10.6829 7.56174C10.5252 7.87262 10.2648 8.04408 9.92424 8.0937C8.40127 8.31602 6.87704 8.53207 5.3547 8.7613C5.23992 8.77889 5.07785 8.85928 5.04695 8.94783C5.01668 9.0345 5.09803 9.19842 5.18001 9.27881C6.24325 10.3239 7.30902 11.367 8.38929 12.3952C8.73803 12.7268 8.84713 13.0923 8.76262 13.5583C8.49523 15.0367 8.24361 16.5176 7.99704 17.9998C7.98064 18.0965 8.02794 18.2623 8.09794 18.2994C8.1856 18.3458 8.34451 18.3276 8.44163 18.2774C9.77289 17.5897 11.1029 16.8995 12.4241 16.1917C12.8384 15.9693 13.2199 15.9543 13.626 16.1898C13.9376 16.3707 14.2649 16.5258 14.5821 16.6972C14.8211 16.826 14.8993 17.0251 14.7933 17.2141C14.6931 17.3937 14.49 17.4364 14.2611 17.319C13.9678 17.1689 13.6651 17.0326 13.3883 16.8568C13.1272 16.691 12.9166 16.723 12.6524 16.8643C11.3457 17.5652 10.0302 18.2498 8.71343 18.9312C8.09542 19.2509 7.41812 18.9324 7.28884 18.2768C7.27749 18.2228 7.27497 18.1675 7.26487 18.0833Z" fill="white"/>
  <path d="M21.2452 0.000976562C21.3013 0.0135374 21.3959 0.0254702 21.4835 0.0556162C22.4623 0.393502 23.1699 1.03348 23.6025 1.97051C23.7923 2.38188 23.6554 2.80078 23.2481 3.00804C22.304 3.48786 21.3555 3.95701 20.4058 4.4249C20.0917 4.5794 19.789 4.53606 19.5324 4.30055C19.2814 4.07006 19.2234 3.77676 19.3432 3.46211C19.7209 2.46792 20.1012 1.47436 20.4903 0.485196C20.6133 0.171176 20.8699 0.0198178 21.2452 0.000976562ZM19.9921 3.77174C20.011 3.78744 20.0299 3.80314 20.0489 3.81884C21.0263 3.33211 22.0032 2.84538 22.9977 2.34985C22.9554 2.25753 22.9264 2.18719 22.8917 2.11999C22.5663 1.48943 22.0688 1.04855 21.4142 0.772839C21.2344 0.697474 21.148 0.707523 21.0711 0.914777C20.7438 1.80031 20.3951 2.67832 20.0552 3.55946C20.0299 3.62854 20.0135 3.7014 19.9921 3.77174Z" fill="white"/>
  <path d="M6.75517 3.69681C6.75643 4.29156 6.20022 4.68158 5.70013 4.4448C4.70121 3.97126 3.71428 3.4726 2.73112 2.96765C2.39878 2.79682 2.26635 2.37101 2.4177 2.0281C2.85284 1.04333 3.58689 0.375095 4.61418 0.0384646C4.98436 -0.0827474 5.39238 0.089964 5.5368 0.451716C5.94292 1.46852 6.3295 2.49285 6.72112 3.5153C6.74824 3.58564 6.75013 3.66666 6.75517 3.69681ZM3.04707 2.34903C4.05229 2.84895 5.02914 3.33443 6.03878 3.83686C6.03878 3.75019 6.04761 3.7169 6.03752 3.69115C5.67049 2.73402 5.30346 1.77688 4.92698 0.823517C4.90869 0.776414 4.78572 0.724286 4.7359 0.742499C3.9495 1.02575 3.39202 1.5533 3.04707 2.34903Z" fill="white"/>
  <path d="M4.78181 23.9955C4.73767 23.9854 4.63551 23.9735 4.54028 23.9396C3.57479 23.5954 2.871 22.9624 2.44407 22.0316C2.24983 21.6089 2.39614 21.1944 2.81677 20.9828C3.74127 20.518 4.66956 20.0602 5.59533 19.5967C5.91569 19.4366 6.21839 19.451 6.49524 19.6815C6.75443 19.8969 6.82632 20.2247 6.6901 20.5815C6.32118 21.5455 5.94911 22.5083 5.57325 23.4698C5.43767 23.8159 5.17659 23.9942 4.78181 23.9955ZM3.0583 21.6473C3.0829 21.717 3.09551 21.7691 3.11884 21.8162C3.45245 22.4901 3.96893 22.9636 4.67082 23.2437C4.83542 23.309 4.89974 23.277 4.96154 23.1125C5.29956 22.2137 5.64956 21.32 5.99388 20.4238C6.01911 20.3573 6.02857 20.285 6.06073 20.1525C5.02271 20.6694 4.04524 21.1561 3.0583 21.6473Z" fill="white"/>
  <path d="M19.9851 20.2067C20.0141 20.3022 20.0311 20.375 20.0576 20.4441C20.3982 21.3278 20.7463 22.2083 21.0767 23.0951C21.1486 23.2879 21.2287 23.3055 21.4028 23.2332C22.1419 22.9261 22.671 22.4143 22.9964 21.6569C22.8337 21.5733 22.6823 21.4961 22.531 21.4176C22.2819 21.2882 22.2024 21.1073 22.3052 20.9076C22.4017 20.7204 22.5965 20.674 22.833 20.7858C22.9819 20.8561 23.1313 20.9271 23.2751 21.0075C23.639 21.2109 23.7897 21.6192 23.62 21.9954C23.1849 22.96 22.4635 23.6207 21.4532 23.9561C21.0565 24.088 20.6523 23.9159 20.4978 23.5278C20.0992 22.5242 19.7133 21.5155 19.3337 20.505C19.2189 20.1985 19.2946 19.9122 19.5418 19.6923C19.7864 19.4744 20.0728 19.4248 20.3742 19.5655C20.7084 19.7212 21.0382 19.8858 21.3662 20.0547C21.5945 20.1722 21.6657 20.3675 21.5636 20.5559C21.4664 20.7349 21.2728 20.7876 21.0546 20.6834C20.7292 20.5283 20.4064 20.3662 20.0822 20.208C20.0696 20.2017 20.0513 20.2067 19.9851 20.2067Z" fill="white"/>
  <path d="M0.890625 11.9936C0.987742 11.6682 1.05522 11.3542 1.17567 11.0628C1.31441 10.7281 1.66945 10.5999 2.0018 10.7544C2.47035 10.9724 2.93576 11.1997 3.38666 11.4516C3.82495 11.6971 3.81612 12.3158 3.36837 12.5444C2.90864 12.7792 2.43252 12.9834 1.95513 13.1818C1.64864 13.3093 1.31504 13.1868 1.18071 12.8829C1.05648 12.6021 0.987111 12.2975 0.890625 11.9936ZM1.78297 11.4252C1.62342 11.7913 1.60071 12.1324 1.77666 12.501C2.1481 12.3333 2.50945 12.17 2.9099 11.9885C2.50315 11.7851 2.14873 11.6079 1.78297 11.4252Z" fill="white"/>
  <path d="M10.0215 2.33606C10.0171 2.57785 9.94015 2.70283 9.76357 2.7468C9.57943 2.79264 9.41483 2.7311 9.35934 2.55524C9.20862 2.08045 9.07177 1.60062 8.95447 1.1164C8.91159 0.939294 9.02321 0.800497 9.20673 0.74837C9.38204 0.698126 9.54411 0.76093 9.59772 0.921081C9.75979 1.40718 9.89411 1.90334 10.0215 2.33606Z" fill="white"/>
  <path d="M16.0341 2.32309C16.1596 1.89162 16.2883 1.40991 16.444 0.936998C16.5002 0.766171 16.6622 0.695202 16.8483 0.749214C17.0318 0.802597 17.139 0.942651 17.0955 1.11976C16.9769 1.60335 16.8407 2.0838 16.6887 2.55797C16.6326 2.7332 16.4655 2.79286 16.282 2.7445C16.0953 2.69489 16.024 2.55923 16.0341 2.32309Z" fill="white"/>
  <path d="M4.76054 6.09031C4.7536 6.37607 4.54045 6.56636 4.33865 6.48974C3.9363 6.33713 3.54216 6.15814 3.15685 5.96533C2.98784 5.88054 2.96387 5.69527 3.04459 5.53198C3.12531 5.36932 3.27667 5.2839 3.45766 5.35801C3.83477 5.51314 4.21 5.67455 4.57387 5.85731C4.66973 5.90566 4.72207 6.04007 4.76054 6.09031Z" fill="white"/>
  <path d="M23.0405 5.75921C22.9951 5.81259 22.9283 5.9495 22.8204 6.00477C22.4862 6.17623 22.1381 6.32319 21.7906 6.46764C21.5838 6.55368 21.4009 6.47455 21.3208 6.28739C21.2445 6.10903 21.3063 5.93003 21.5011 5.83834C21.8486 5.67379 22.1993 5.51553 22.5549 5.37045C22.799 5.27059 23.033 5.42886 23.0405 5.75921Z" fill="white"/>
  <path d="M15.8973 21.042C15.949 21.0828 16.0732 21.1387 16.1312 21.2342C16.3255 21.5551 16.502 21.888 16.6736 22.2215C16.7751 22.4193 16.7127 22.6165 16.5405 22.7088C16.3664 22.8018 16.1703 22.7472 16.0587 22.5525C15.872 22.2265 15.691 21.8968 15.522 21.5614C15.3965 21.3115 15.5649 21.0389 15.8973 21.042Z" fill="white"/>
  <path d="M9.73189 22.7536C9.42288 22.7498 9.24441 22.4973 9.3554 22.2675C9.53198 21.9013 9.73 21.5446 9.93874 21.196C10.0403 21.0277 10.2194 20.9919 10.3934 21.0943C10.5631 21.1941 10.628 21.3562 10.5347 21.5377C10.3531 21.8925 10.1645 22.2449 9.95955 22.5871C9.90658 22.6744 9.78108 22.719 9.73189 22.7536Z" fill="white"/>
  <path d="M23.123 16.2025C23.1236 16.5115 22.8455 16.6981 22.6229 16.5687C22.271 16.3639 21.9317 16.1366 21.5975 15.9036C21.4335 15.7893 21.4127 15.6128 21.5174 15.4451C21.6246 15.2737 21.7987 15.2272 21.9677 15.3283C22.317 15.5374 22.6576 15.7635 22.9912 15.9965C23.065 16.048 23.0971 16.1598 23.123 16.2025Z" fill="white"/>
  <path d="M4.60004 15.701C4.56851 15.7456 4.52247 15.8618 4.43671 15.9233C4.13022 16.1413 3.81364 16.3454 3.49455 16.5451C3.30662 16.6625 3.10797 16.6161 2.99824 16.449C2.88851 16.2819 2.92761 16.0866 3.11428 15.9598C3.42518 15.7481 3.7386 15.539 4.06085 15.3443C4.31247 15.191 4.59941 15.3512 4.60004 15.701Z" fill="white"/>
</svg>