<svg width="90" height="136" viewBox="0 0 90 136" fill="none" xmlns="http://www.w3.org/2000/svg">
<g clip-path="url(#clip0_2812_64723)">
<path fill-rule="evenodd" clip-rule="evenodd" d="M53.3828 43.9514H36.7931L15.5703 0.349511C20.2738 -1.57025 25.1534 -3.02698 30.1397 -4L45.1851 27L46.1564 29L47.0597 30.9417L51.5956 40.2718L52.5087 42.2136L53.3828 43.9514Z" fill="#F1543F"/>
<path fill-rule="evenodd" clip-rule="evenodd" d="M53.8075 59.6316H36.5767C36.3065 59.6407 36.0414 59.5556 35.827 59.3909C35.6126 59.2262 35.4622 58.9921 35.4015 58.7286L31.9534 47.8452C31.72 47.0948 31.6723 46.2991 31.8144 45.5262C31.9565 44.7534 32.2842 44.0266 32.7693 43.4083C33.2311 42.7852 33.833 42.2795 34.5265 41.9321C35.22 41.5847 35.9856 41.4052 36.7613 41.4083H53.6327C54.4209 41.4045 55.1993 41.5831 55.907 41.93C56.6147 42.277 57.2325 42.7829 57.7121 43.4083C58.1997 44.0256 58.5217 44.7571 58.6474 45.5335C58.7732 46.3099 58.6987 47.1056 58.4308 47.8452L55.1673 58.7286C55.0449 58.9891 54.8535 59.211 54.6137 59.3702C54.3739 59.5294 54.0951 59.6198 53.8075 59.6316ZM37.3926 57.0976H52.9333L55.9249 47.1267C56.0728 46.7666 56.1176 46.3724 56.0541 45.9883C55.9906 45.6042 55.8215 45.2454 55.5655 44.9519C55.3419 44.6337 55.0408 44.3776 54.6908 44.2077C54.3407 44.0378 53.9532 43.9598 53.5647 43.9811H36.7904C36.4163 43.9961 36.0496 44.0904 35.7147 44.2577C35.3798 44.4251 35.0843 44.6618 34.8478 44.9519C34.609 45.2545 34.4501 45.6123 34.3856 45.9922C34.3211 46.3722 34.3531 46.7623 34.4788 47.1267L37.3926 57.0976Z" fill="white"/>
<path fill-rule="evenodd" clip-rule="evenodd" d="M88.0284 95.7094C88.6542 95.0941 89.1512 94.3604 89.4905 93.5512C89.8298 92.7419 90.0045 91.8733 90.0045 90.9958C90.0045 90.1184 89.8298 89.2497 89.4905 88.4404C89.1512 87.6312 88.6542 86.8975 88.0284 86.2822C87.0729 85.3478 86.4295 84.1413 86.1861 82.8275C85.9427 81.5137 86.1112 80.1568 86.6686 78.9424C87.3303 77.2819 87.311 75.4275 86.6147 73.7811C85.9184 72.1348 84.6012 70.8289 82.9485 70.1463C81.7145 69.6564 80.6568 68.8061 79.9135 67.7064C79.1702 66.6066 78.7758 65.3084 78.7817 63.9812C78.749 62.2158 78.0302 60.5324 76.7775 59.2874C75.5247 58.0425 73.8364 57.3337 72.0701 57.3113C70.7364 57.295 69.436 56.893 68.326 56.1539C67.216 55.4148 66.3438 54.3702 65.8149 53.1463C65.488 52.3263 65.0019 51.579 64.3847 50.9477C63.7675 50.3163 63.0313 49.8133 62.2187 49.4676C61.4061 49.122 60.5331 48.9405 59.65 48.9337C58.7669 48.9269 57.8912 49.0948 57.0733 49.4279C55.8491 49.9361 54.5036 50.0781 53.2001 49.8369C51.8967 49.5956 50.6913 48.9813 49.7303 48.0686C49.1162 47.4248 48.3778 46.9122 47.5597 46.562C46.7416 46.2118 45.8609 46.0312 44.971 46.0312C44.0811 46.0312 43.2004 46.2118 42.3823 46.562C41.5642 46.9122 40.8258 47.4248 40.2117 48.0686C39.2753 49.0212 38.0683 49.6627 36.7547 49.9058C35.441 50.149 34.0842 49.9821 32.8687 49.4279C32.0508 49.0948 31.1751 48.9269 30.292 48.9337C29.4089 48.9405 28.5359 49.122 27.7233 49.4676C26.9107 49.8133 26.1745 50.3163 25.5573 50.9477C24.9401 51.579 24.454 52.3263 24.1271 53.1463C23.6305 54.393 22.7661 55.4592 21.6488 56.2031C20.5316 56.9471 19.2143 57.3336 17.872 57.3113C16.099 57.334 14.405 58.0481 13.1512 59.3013C11.8974 60.5546 11.183 62.2479 11.1603 64.0201C11.1544 65.3446 10.7553 66.6376 10.0135 67.7351C9.2717 68.8326 8.22063 69.6853 6.99349 70.1851C6.17462 70.5211 5.43043 71.0158 4.80389 71.6408C4.17735 72.2658 3.68088 73.0086 3.34313 73.8264C3.00538 74.6442 2.83305 75.5208 2.8361 76.4056C2.83914 77.2904 3.01749 78.1658 3.36085 78.9813C3.85081 80.2143 3.97488 81.5624 3.71821 82.8641C3.46155 84.1658 2.83503 85.366 1.91364 86.3211C1.28782 86.9364 0.790787 87.67 0.451513 88.4793C0.112239 89.2885 -0.0625 90.1572 -0.0625 91.0346C-0.0625 91.9121 0.112239 92.7808 0.451513 93.59C0.790787 94.3993 1.28782 95.1329 1.91364 95.7482C2.86013 96.6876 3.50374 97.8886 3.76165 99.1966C4.01957 100.505 3.87998 101.86 3.36085 103.088C3.01882 103.904 2.8415 104.779 2.8391 105.663C2.83671 106.548 3.00928 107.424 3.34689 108.241C3.6845 109.059 4.18048 109.802 4.80631 110.427C5.43213 111.052 6.17545 111.547 6.99349 111.884C8.22752 112.371 9.28561 113.219 10.0291 114.318C10.7727 115.416 11.1669 116.713 11.1603 118.039C11.183 119.812 11.8974 121.505 13.1512 122.758C14.405 124.011 16.099 124.726 17.872 124.748C19.2081 124.759 20.512 125.16 21.6232 125.902C22.7345 126.644 23.6048 127.694 24.1271 128.923C24.4528 129.744 24.9384 130.492 25.5556 131.124C26.1728 131.755 26.9094 132.258 27.7225 132.603C28.5357 132.948 29.4094 133.128 30.2928 133.133C31.1762 133.138 32.0518 132.968 32.8687 132.632C34.0947 132.126 35.4413 131.987 36.7449 132.232C38.0484 132.477 39.2528 133.094 40.2117 134.01C40.8258 134.654 41.5642 135.167 42.3823 135.517C43.2004 135.867 44.0811 136.048 44.971 136.048C45.8609 136.048 46.7416 135.867 47.5597 135.517C48.3778 135.167 49.1162 134.654 49.7303 134.01C50.664 133.054 51.8706 132.409 53.185 132.164C54.4994 131.919 55.8574 132.086 57.0733 132.641C57.8903 132.977 58.7658 133.148 59.6492 133.143C60.5326 133.138 61.4063 132.958 62.2195 132.613C63.0327 132.268 63.7692 131.765 64.3864 131.133C65.0036 130.502 65.4892 129.753 65.8149 128.933C66.3373 127.703 67.2075 126.653 68.3188 125.912C69.4301 125.17 70.7339 124.769 72.0701 124.758C73.843 124.735 75.537 124.021 76.7908 122.768C78.0446 121.515 78.759 119.821 78.7817 118.049C78.7882 116.726 79.1877 115.435 79.9296 114.339C80.6714 113.243 81.7222 112.392 82.9485 111.894C84.6012 111.211 85.9184 109.905 86.6147 108.259C87.311 106.613 87.3303 104.758 86.6686 103.098C86.1306 101.88 85.9725 100.527 86.2151 99.2181C86.4577 97.9087 87.0896 96.7028 88.0284 95.7579V95.7094Z" fill="#FFD05B"/>
<path fill-rule="evenodd" clip-rule="evenodd" d="M76.8769 90.9908C76.8846 82.5458 73.5391 74.4428 67.575 68.4612C61.6109 62.4797 53.5157 59.1085 45.067 59.0879C40.8745 59.0853 36.7225 59.9087 32.8485 61.511C28.9745 63.1132 25.4544 65.4629 22.4894 68.4258C19.5244 71.3886 17.1726 74.9065 15.5685 78.7783C13.9643 82.6502 13.1393 86.8001 13.1406 90.9908C13.1394 95.182 13.9643 99.3324 15.5683 103.205C17.1723 107.077 19.5239 110.596 22.4888 113.559C25.4537 116.523 28.9737 118.874 32.8478 120.477C36.7219 122.08 40.874 122.905 45.067 122.903C53.5208 122.888 61.6224 119.518 67.591 113.534C73.5596 107.549 76.9066 99.4409 76.8963 90.9908H76.8769Z" fill="#F9B54C"/>
<path fill-rule="evenodd" clip-rule="evenodd" d="M74.7891 0.349061L53.5663 43.951H36.9766L37.8799 42.1355L38.6958 40.1938L43.3191 30.8636L44.2321 28.9219L45.2034 26.9219L60.2585 -4.07812C65.2238 -3.09661 70.0833 -1.64007 74.7696 0.271389L74.7891 0.349061Z" fill="#FF7058"/>
</g>
<defs>
<clipPath id="clip0_2812_64723">
<rect width="90" height="140" fill="white" transform="translate(0 -4)"/>
</clipPath>
</defs>
</svg>
