<svg width="42" height="48" viewBox="0 0 42 48" fill="none" xmlns="http://www.w3.org/2000/svg">
<path d="M31.0706 13.1348V20.0714H10.9307V13.1348H14.6536V16.2918H16.5525V14.6022H20.2754V16.2918H22.0367V14.6022H25.7589V16.2918H27.3476V13.1348H31.0706Z" fill="#F8F8F8"/>
<path d="M41.3995 30.035C41.4074 30.5172 41.3318 30.9935 41.1749 31.4496C40.0141 34.8557 38.2506 37.9381 35.9339 40.6159C35.931 40.6239 35.926 40.629 35.9211 40.6348C35.8376 40.7274 35.7592 40.8172 35.6786 40.9106C35.608 40.9873 35.5374 41.067 35.4675 41.1437L35.4597 41.1516C35.4126 41.1965 35.3656 41.2392 35.3185 41.2812V41.0988L35.3235 39.7299L35.3285 37.1129L35.3442 32.3957C35.3727 30.8567 35.3934 29.382 35.4041 27.9914H31.003V44.8777C28.8902 46.3871 26.8708 47.3673 25.2921 48V21.0938H31.003V24.211H35.4069C35.3884 20.755 35.2971 18.1619 35.1331 16.9117L35.1203 16.7951C35.0525 16.2493 34.9798 15.6824 34.7053 15.1453C34.1234 13.9986 33.3954 12.9467 32.5504 12.0252C28.6656 7.79018 23.2242 7.29212 21.0636 7.27113H20.9359C18.776 7.29212 13.3339 7.79018 9.44697 12.0252C8.60198 12.9467 7.87679 13.9986 7.29493 15.1453C7.02111 15.6832 6.94767 16.25 6.87993 16.7951L6.86424 16.9117C6.70237 18.1619 6.60825 20.755 6.59042 24.211H10.8638V21.0938H16.5748V48C14.9989 47.3673 12.9802 46.3871 10.8638 44.8799V27.9907H6.59612C6.60682 29.3813 6.6275 30.8567 6.65602 32.395L6.66886 37.1121L6.6767 39.7291L6.67955 41.0981V41.2805C6.63249 41.2378 6.58543 41.1958 6.54122 41.1509L6.53052 41.143C6.45993 41.0662 6.38933 40.9866 6.32159 40.9099C6.24101 40.8172 6.16258 40.7274 6.07915 40.634C6.07131 40.629 6.06845 40.6232 6.06346 40.6152C3.7467 37.9374 1.98329 34.8549 0.825264 31.4488C0.669102 30.9935 0.592803 30.5164 0.600646 30.0343C0.67124 24.8879 0.738982 19.7422 0.809576 14.5987C0.820272 13.9363 0.981424 13.2747 1.27877 12.6839C2.58298 10.1017 4.30218 7.83434 6.38933 5.94634C11.6069 1.2162 17.6594 0.191117 20.8525 0.00579155C20.876 0.00289584 20.8996 0.00289633 20.9202 0.00289633H20.9388C20.9595 0.00289633 20.9808 0 21.0037 0C21.0243 0 21.0429 0.00289633 21.0607 0.00289633H21.0793C21.0999 0.00289633 21.1213 0.00289584 21.1441 0.00579155C24.3373 0.191117 30.3898 1.2162 35.6101 5.94634C37.6973 7.83507 39.4137 10.1017 40.7179 12.6839C41.0181 13.2747 41.1799 13.9363 41.1871 14.5987C41.2612 19.7429 41.329 24.8893 41.3995 30.035Z" fill="#F8F8F8"/>
</svg>
