<svg width="233" height="130" viewBox="0 0 233 130" fill="none" xmlns="http://www.w3.org/2000/svg">
<g clip-path="url(#clip0_2812_64506)">
<path d="M244.722 129.184H0.277646C0.124306 129.184 0 129.34 0 129.533V129.651C0 129.844 0.124306 130 0.277646 130H244.722C244.876 130 245 129.844 245 129.651V129.533C245 129.34 244.876 129.184 244.722 129.184Z" fill="#2E3552"/>
<path d="M33.0935 72.9531L32.2734 84.2193L33.4923 84.4581L36.9401 74.4343L33.0935 72.9531Z" fill="#FFB27D"/>
<path d="M33.6493 83.2988C33.6493 83.2988 33.3664 84.479 33.5427 85.3577C33.6605 85.9435 32.9356 86.7487 32.1342 87.8619C32.0533 87.9699 31.9029 87.8619 31.9209 87.7116C31.9326 87.6159 31.9543 87.5225 31.9854 87.4339C32.1307 87.0102 32.5469 86.2753 32.5469 86.2753C32.5143 86.1099 31.6595 86.6892 31.178 87.0902C30.8976 87.3236 30.0868 88.4239 29.8709 88.2596C29.6551 88.0953 30.0042 87.0372 30.3791 86.258C30.754 85.4787 32.1032 84.8195 32.2709 84.2207C32.4386 83.622 33.6493 83.2988 33.6493 83.2988Z" fill="#FFB27D"/>
<path d="M37.5859 32.0945L46.511 27.3105L54.7398 32.2436L46.511 37.4931L37.5859 32.0945Z" fill="#233862"/>
<path d="M39.027 37.593L39.1542 37.3768C37.3562 35.6757 37.7053 32.8376 37.8137 32.1891C37.8198 32.1486 37.8166 32.1067 37.8044 32.0684C37.7922 32.0301 37.7715 31.997 37.7449 31.973C37.7322 31.9615 37.7174 31.9543 37.7019 31.952C37.6864 31.9497 37.6706 31.9523 37.6562 31.9596C37.6417 31.9669 37.6289 31.9787 37.619 31.9939C37.6091 32.0091 37.6024 32.0272 37.5995 32.0465C37.4809 32.8019 37.1515 35.8194 39.027 37.593Z" fill="#EFCBAB"/>
<path d="M39.1585 37.3809L39.4277 37.5062L39.2024 37.8683L39.0312 37.5927L39.1585 37.3809Z" fill="#D8A987"/>
<path d="M39.4197 37.5059C39.4197 37.5059 39.7534 37.8096 39.8703 37.722C39.8703 37.722 39.7611 38.1208 39.5986 38.1619C39.5986 38.1619 39.2968 38.0354 39.1953 37.8733L39.4197 37.5059Z" fill="#EFCBAB"/>
<path d="M43.3501 117.594L42.7447 120.796L41.9407 125.044H39.4289L39.2793 120.974L39.1641 117.837L43.3501 117.594Z" fill="#FFB27D"/>
<path d="M38.4375 129.705C38.4375 129.705 38.4375 128.159 38.6095 127.645C38.7815 127.13 39.4272 125.039 39.4272 125.039H41.939C41.939 125.039 42.4059 126.948 42.4352 127.571C42.4644 128.195 42.4352 129.705 42.4352 129.705H38.4375Z" fill="#233862"/>
<path d="M54.3813 129.705C54.3813 129.705 54.3813 128.159 54.2093 127.645C54.0373 127.13 53.3916 125.039 53.3916 125.039H50.8772C50.8772 125.039 50.4094 126.948 50.3802 127.571C50.3509 128.195 50.3802 129.705 50.3802 129.705H54.3813Z" fill="#233862"/>
<path d="M44.3208 42.9873C44.3208 42.9873 44.2348 46.4272 43.8824 47.9689L41.1094 55.4808L47.2451 66.1582L51.543 52.3628L49.0545 48.0413C49.0545 48.0413 48.3024 43.4291 48.6969 41.7221C49.0915 40.0151 44.3208 42.9873 44.3208 42.9873Z" fill="#FFB27D"/>
<path d="M44.3047 43.4629C44.3047 43.4629 45.1311 45.9606 46.6857 45.9054C48.2404 45.8503 48.5956 43.6358 48.5956 43.6358L44.3047 43.4629Z" fill="#ED985F"/>
<path d="M43.379 41.4425C43.379 41.4425 42.877 38.2921 42.5263 37.3371C42.1756 36.382 41.8842 32.1264 45.7669 31.906C45.7669 31.906 47.2566 32.1221 48.074 31.502C48.074 31.502 48.074 32.1264 47.8695 32.3457C47.8695 32.3457 48.8803 31.5462 49.9325 33.0145C50.9846 34.4827 49.5637 40.0153 49.6514 41.2254L43.379 41.4425Z" fill="#132644"/>
<path d="M46.5049 44.9402C45.378 44.9153 43.3047 43.03 43.3047 40.6953V37.0523C43.3047 36.1999 43.7783 35.502 44.356 35.502H48.6539C49.2315 35.502 49.7052 36.1999 49.7052 37.0523V40.489C49.7052 42.9371 47.7969 44.9693 46.5049 44.9402Z" fill="#FFB27D"/>
<path d="M43.3077 38.9985C43.3077 38.9985 43.3137 36.8086 44.6934 36.4726C46.073 36.1366 49.1632 37.5389 49.5982 35.9432C50.0331 34.3475 43.6309 34.3745 43.3077 35.3922C42.9845 36.4099 43.3077 38.9985 43.3077 38.9985Z" fill="#132644"/>
<path d="M43.8827 47.9698L46.4503 48.6936L49.0454 47.9082L49.7081 52.9147L46.795 65.3758L43.6094 50.4417L43.8827 47.9698Z" fill="white"/>
<path d="M43.7578 48.9944L45.7992 50.9084L46.4665 49.5337L47.0856 50.9084L49.2595 48.5296L48.8304 47.9082L46.4527 48.6939L43.8842 48.548L43.7578 48.9944Z" fill="#D2E3FC"/>
<path d="M54.4396 76.1719L48.3297 76.6516C48.2944 76.5792 48.2549 76.5792 48.2111 76.6602L46.4137 76.8039L38.7522 76.2021C38.7522 76.2021 36.8258 87.2577 37.5823 101.989C37.8238 106.688 38.3636 120.606 38.8777 125.527L44.1297 125.597C44.8097 120.031 45.5971 106.139 46.0208 103.755C46.2134 102.675 46.3925 101.602 46.5581 100.536C46.7102 101.746 46.8074 102.728 46.8048 103.339C46.8048 104.319 47.0291 105.877 47.3437 107.755C47.7856 110.399 49.0844 122.592 49.4721 125.775H54.982C55.0482 121.39 55.3473 106.493 55.4118 101.988C55.5768 89.9737 54.4396 76.1719 54.4396 76.1719Z" fill="#EE9849"/>
<path d="M58.6628 115.008C55.8537 116.859 36.7244 119.052 33.2955 113.967C32.7119 113.103 40.8599 48.6936 40.8599 48.6936C40.8599 48.6936 41.3842 48.5035 42.2705 48.2939C42.7226 48.1859 43.2676 48.0778 43.8848 47.9817C43.8917 48.2226 45.2128 58.6774 47.0094 62.7613C47.0094 62.7613 49.0475 57.1314 49.0595 48.0411C49.0577 47.9965 49.0537 47.9521 49.0475 47.9082C49.4317 47.9601 49.8211 48.027 50.2156 48.1124C50.3807 48.1477 50.5463 48.1869 50.7125 48.2302C51.3524 48.3905 51.9839 48.5998 52.6036 48.8568C52.6036 48.8568 59.2482 114.623 58.6628 115.008Z" fill="#1C468A"/>
<path d="M43.0759 48.1016C43.0759 48.1016 40.1533 76.3621 39.0263 78.4797C38.5562 79.3667 37.8685 79.5115 37.0588 79.3127C36.9049 79.2759 36.745 79.2262 36.5825 79.1657L34.3373 78.0854H34.3278C33.9642 77.9028 33.5972 77.7299 33.231 77.5873C30.9247 76.6895 31.1035 74.2489 31.725 70.9224C32.3465 67.5959 36.4115 51.5836 37.7834 50.4481C40.2083 48.4473 43.0759 48.1016 43.0759 48.1016Z" fill="#1C468A"/>
<path d="M49.0466 47.909C47.3286 47.6914 45.5966 47.716 43.8829 47.9825C43.8828 47.9785 43.8828 47.9746 43.8829 47.9706C43.8829 47.9706 48.6614 44.2549 49.0466 47.909Z" fill="#FFB27D"/>
<path d="M47.3673 65.3758C44.4112 62.6403 42.2734 48.2939 42.2734 48.2939C42.7256 48.1859 43.2706 48.0778 43.8877 47.9817C43.8946 48.2226 45.1419 58.107 46.9393 62.1865C46.9393 62.1865 49.0504 57.1314 49.0624 48.0411C49.0607 47.9965 49.0567 47.9521 49.0504 47.9082C49.4346 47.9601 49.824 48.027 50.2186 48.1124C50.3836 48.1477 50.5492 48.1869 50.7154 48.2302C50.7206 55.8868 47.3673 65.3758 47.3673 65.3758Z" fill="#BC3F3F"/>
<path d="M45.5078 42.2413C45.5078 42.2413 46.857 42.0716 47.4856 42.2629C47.4856 42.2629 47.1476 42.947 46.6007 42.9405C46.0539 42.934 45.6385 42.679 45.5078 42.2413Z" fill="#FFF0E6"/>
<path d="M42.2578 33.7623L42.3378 35.4109C42.3378 35.4109 45.3618 32.872 50.3224 35.2035L50.2528 32.818C50.2172 32.5879 50.1427 32.3702 50.0343 32.1795C49.9259 31.9888 49.7861 31.8296 49.6245 31.7128C48.6944 31.0397 46.5162 29.7919 43.0736 31.8813C42.5948 32.1741 42.2888 33.0892 42.2578 33.7623Z" fill="#1C468A"/>
<path d="M44.11 46.4531L43.0781 48.1035L45.8066 50.4444L46.4532 48.6946L44.11 46.4531Z" fill="white"/>
<path d="M48.8402 46.4531L46.4531 48.6946L47.1376 50.4444L49.486 47.9749L48.8402 46.4531Z" fill="white"/>
<path d="M46.3755 52.5619C46.4018 52.5287 46.4354 52.506 46.4719 52.4968C46.5085 52.4876 46.5464 52.4922 46.5809 52.5101C46.6153 52.528 46.6448 52.5583 46.6655 52.5973C46.6862 52.6362 46.6973 52.682 46.6973 52.7289C46.6973 52.7757 46.6862 52.8215 46.6655 52.8605C46.6448 52.8994 46.6153 52.9298 46.5809 52.9477C46.5464 52.9655 46.5085 52.9702 46.4719 52.9609C46.4354 52.9517 46.4018 52.9291 46.3755 52.8959C46.358 52.874 46.3441 52.8479 46.3347 52.8193C46.3252 52.7906 46.3203 52.7599 46.3203 52.7289C46.3203 52.6978 46.3252 52.6671 46.3347 52.6385C46.3441 52.6098 46.358 52.5838 46.3755 52.5619Z" fill="#D2E3FC"/>
<path d="M46.5086 55.5105C46.6126 55.5105 46.6969 55.4045 46.6969 55.2738C46.6969 55.1431 46.6126 55.0371 46.5086 55.0371C46.4046 55.0371 46.3203 55.1431 46.3203 55.2738C46.3203 55.4045 46.4046 55.5105 46.5086 55.5105Z" fill="#D2E3FC"/>
<path d="M46.3755 57.726C46.4018 57.6927 46.4354 57.6701 46.4719 57.6609C46.5085 57.6517 46.5464 57.6563 46.5809 57.6742C46.6153 57.692 46.6448 57.7224 46.6655 57.7613C46.6862 57.8003 46.6973 57.8461 46.6973 57.8929C46.6973 57.9398 46.6862 57.9856 46.6655 58.0246C46.6448 58.0635 46.6153 58.0938 46.5809 58.1117C46.5464 58.1296 46.5085 58.1342 46.4719 58.125C46.4354 58.1158 46.4018 58.0931 46.3755 58.0599C46.358 58.038 46.3441 58.012 46.3347 57.9833C46.3252 57.9547 46.3203 57.924 46.3203 57.8929C46.3203 57.8619 46.3252 57.8312 46.3347 57.8025C46.3441 57.7739 46.358 57.7479 46.3755 57.726Z" fill="#D2E3FC"/>
<path d="M52.6094 48.8574C52.6094 48.8574 54.448 49.8179 55.4314 52.6485C56.4148 55.4791 60.4944 63.2103 60.3757 66.8317C60.2571 70.4531 59.7035 73.7461 56.9615 73.8542C55.079 73.9309 53.1621 71.6156 53.1621 68.153C53.1621 64.6904 52.6094 48.8574 52.6094 48.8574Z" fill="#1C468A"/>
<path d="M58.4453 71.8361C58.3722 72.8087 58.0807 73.602 57.3851 73.8204C55.1854 74.512 54.212 71.8425 54.6755 69.2292C54.6897 69.1445 54.7075 69.0608 54.7288 68.9785C55.1983 67.0677 56.8872 66.7748 57.5115 66.7326C57.6577 66.7218 57.7454 66.7251 57.7454 66.7251L57.7798 66.8494C57.938 67.4297 58.5863 69.9717 58.4453 71.8361Z" fill="#233862"/>
<path d="M58.4448 71.8328C58.4448 71.8328 52.0341 68.207 49.4966 64.0422C49.3092 63.7343 49.7888 63.3594 49.7888 63.3594L57.5113 66.7312L57.7795 66.8479C57.9377 67.4281 58.5858 69.9691 58.4448 71.8328Z" fill="#FFB27D"/>
<path d="M50.9079 63.5527H42.4375V77.5826H50.9079V63.5527Z" fill="#FCECDB"/>
<path d="M45.9137 73.4414L44.9609 75.443L45.5629 75.3349L45.8217 75.9369L46.6309 74.0974L45.9137 73.4414Z" fill="#932424"/>
<path d="M47.1781 73.3184L48.1309 75.3189L47.5281 75.2108L47.2701 75.8139L46.4609 73.9744L47.1781 73.3184Z" fill="#932424"/>
<path d="M45.5796 73.0017C45.687 72.1263 46.0602 71.7837 46.6372 71.6724C47.3922 71.5286 47.6949 72.2679 47.6949 73.0017C47.6949 73.3543 47.5835 73.6924 47.3851 73.9417C47.1868 74.191 46.9177 74.3311 46.6372 74.3311C46.0534 74.3311 45.491 73.728 45.5796 73.0017Z" fill="#BC3F3F"/>
<path d="M46.6315 74.0605C46.5029 74.059 46.3759 74.0236 46.2589 73.9566C46.1419 73.8896 46.0374 73.7924 45.9521 73.6714C45.887 73.5796 45.8385 73.471 45.8101 73.3532C45.7818 73.2354 45.7742 73.1113 45.7879 72.9894C45.8653 72.3593 46.1224 72.0351 46.6237 71.9389C46.7245 71.9119 46.8289 71.9137 46.929 71.9442C47.0292 71.9747 47.1226 72.0331 47.2024 72.1151C47.3744 72.302 47.475 72.6241 47.475 72.9992C47.4748 73.2804 47.3859 73.55 47.2277 73.7489C47.0696 73.9479 46.8552 74.0599 46.6315 74.0605ZM46.769 72.0481C46.7253 72.0483 46.6816 72.0526 46.6383 72.061C46.1809 72.1486 45.9556 72.4328 45.8851 73.0089C45.8736 73.1131 45.8803 73.2192 45.9048 73.3198C45.9293 73.4205 45.971 73.5131 46.0269 73.5914C46.1026 73.6985 46.1952 73.7844 46.2989 73.8438C46.4026 73.9032 46.515 73.9346 46.6289 73.9362C46.8265 73.9359 47.016 73.8371 47.1558 73.6614C47.2956 73.4858 47.3742 73.2476 47.3744 72.9992C47.3744 72.6598 47.2884 72.3723 47.1362 72.208C47.0337 72.102 46.9043 72.046 46.7716 72.0502L46.769 72.0481Z" fill="#932424"/>
<path d="M47.8511 65.2428H45.4924C45.4736 65.2425 45.4557 65.2329 45.4425 65.2161C45.4293 65.1993 45.4219 65.1767 45.4219 65.1531C45.4219 65.1414 45.4237 65.1299 45.4272 65.1192C45.4308 65.1084 45.436 65.0986 45.4425 65.0904C45.4491 65.0822 45.4568 65.0757 45.4654 65.0712C45.474 65.0668 45.4831 65.0645 45.4924 65.0645H47.8511C47.8698 65.0645 47.8877 65.0738 47.9009 65.0904C47.9142 65.107 47.9216 65.1296 47.9216 65.1531C47.9216 65.1767 47.9142 65.1993 47.901 65.2161C47.8878 65.2329 47.8699 65.2425 47.8511 65.2428Z" fill="#1C468A"/>
<path d="M48.3051 65.6149H45.0314C45.0127 65.6147 44.9947 65.6051 44.9815 65.5883C44.9683 65.5715 44.9609 65.5489 44.9609 65.5252C44.9609 65.5016 44.9683 65.479 44.9815 65.4622C44.9947 65.4454 45.0127 65.4358 45.0314 65.4355H48.3051C48.3239 65.4358 48.342 65.4454 48.3553 65.4621C48.3686 65.4789 48.3762 65.5015 48.3765 65.5252C48.3762 65.549 48.3686 65.5716 48.3553 65.5884C48.342 65.6051 48.3239 65.6147 48.3051 65.6149Z" fill="#1C468A"/>
<path d="M49.0862 68.711H44.2579C44.2359 68.711 44.2148 68.7006 44.1988 68.6817C44.1828 68.6628 44.1732 68.6369 44.1719 68.6094C44.1732 68.5819 44.1828 68.556 44.1988 68.5371C44.2148 68.5183 44.2359 68.5078 44.2579 68.5078H49.0862C49.1081 68.5078 49.1293 68.5183 49.1453 68.5371C49.1612 68.556 49.1709 68.5819 49.1722 68.6094C49.1709 68.6369 49.1612 68.6628 49.1453 68.6817C49.1293 68.7006 49.1081 68.711 49.0862 68.711Z" fill="#1C468A"/>
<path d="M49.0862 69.2208H44.2579C44.2359 69.2208 44.2148 69.2103 44.1988 69.1914C44.1828 69.1725 44.1732 69.1467 44.1719 69.1192C44.1732 69.0917 44.1828 69.0658 44.1988 69.0469C44.2148 69.028 44.2359 69.0175 44.2579 69.0176H49.0862C49.1081 69.0175 49.1293 69.028 49.1453 69.0469C49.1612 69.0658 49.1709 69.0917 49.1722 69.1192C49.1709 69.1467 49.1612 69.1725 49.1453 69.1914C49.1293 69.2103 49.1081 69.2208 49.0862 69.2208Z" fill="#1C468A"/>
<path d="M49.0862 69.6726H44.2579C44.2359 69.6726 44.2148 69.6621 44.1988 69.6432C44.1828 69.6243 44.1732 69.5985 44.1719 69.571C44.1719 69.5423 44.1809 69.5148 44.1971 69.4945C44.2132 69.4743 44.2351 69.4629 44.2579 69.4629H49.0862C49.109 69.4629 49.1309 69.4743 49.147 69.4945C49.1631 69.5148 49.1722 69.5423 49.1722 69.571C49.1709 69.5985 49.1612 69.6243 49.1453 69.6432C49.1293 69.6621 49.1081 69.6726 49.0862 69.6726Z" fill="#1C468A"/>
<path d="M49.0862 70.155H44.2579C44.2359 70.155 44.2148 70.1445 44.1988 70.1256C44.1828 70.1068 44.1732 70.0809 44.1719 70.0534C44.1719 70.0247 44.1809 69.9972 44.1971 69.977C44.2132 69.9567 44.2351 69.9453 44.2579 69.9453H49.0862C49.109 69.9453 49.1309 69.9567 49.147 69.977C49.1631 69.9972 49.1722 70.0247 49.1722 70.0534C49.1709 70.0809 49.1612 70.1068 49.1453 70.1256C49.1293 70.1445 49.1081 70.155 49.0862 70.155Z" fill="#1C468A"/>
<path d="M49.4864 73.0502C49.3346 73.2063 49.1717 73.3445 48.9997 73.4631C49.0157 73.4088 49.0239 73.3513 49.0238 73.2934C49.0238 73.2199 48.9748 73.1853 48.9284 73.1583C48.9172 73.1508 48.906 73.1432 48.8957 73.1346C48.9053 73.1244 48.9121 73.1105 48.9149 73.0951C48.9177 73.0797 48.9164 73.0636 48.9112 73.0492C48.9075 73.0374 48.9011 73.0274 48.8928 73.0203C48.8846 73.0132 48.8748 73.0094 48.8647 73.0094C48.8547 73.0094 48.8449 73.0132 48.8366 73.0203C48.8284 73.0274 48.822 73.0374 48.8183 73.0492C48.8151 73.0581 48.8131 73.0676 48.8123 73.0773C48.8052 73.0729 48.7991 73.0667 48.7942 73.0589C48.8217 72.993 48.8484 72.9249 48.8733 72.8568C48.8753 72.849 48.8753 72.8407 48.8733 72.8329C48.8713 72.8251 48.8674 72.8184 48.8622 72.8136C48.8425 72.7957 48.8182 72.788 48.7942 72.7921C48.7702 72.7961 48.7484 72.8115 48.7332 72.8352C48.7165 72.8669 48.7067 72.9036 48.7049 72.9415C48.7031 72.9795 48.7093 73.0173 48.7229 73.0513C48.7225 73.0556 48.7225 73.06 48.7229 73.0643C48.6867 73.1464 48.6472 73.2253 48.6059 73.3021L48.5939 73.288C48.5817 73.2728 48.5707 73.2562 48.5612 73.2383C48.5802 73.1747 48.5924 73.1082 48.5973 73.0405C48.5975 73.034 48.5964 73.0275 48.594 73.0218C48.5917 73.016 48.5881 73.011 48.5838 73.0074C48.5795 73.0039 48.5745 73.0017 48.5693 73.0013C48.5642 73.0008 48.559 73.0021 48.5543 73.0049C48.5276 73.0179 48.5052 73.0421 48.4908 73.0733C48.4764 73.1046 48.4709 73.141 48.4752 73.1767C48.4777 73.202 48.4838 73.2266 48.4933 73.2491C48.4806 73.2837 48.4656 73.317 48.4485 73.3485C48.4461 73.3526 48.4444 73.3572 48.4435 73.3622C48.4427 73.3672 48.4427 73.3723 48.4436 73.3773C48.4445 73.3822 48.4463 73.3869 48.4487 73.3909C48.4512 73.3949 48.4544 73.3981 48.458 73.4004C48.4435 73.4801 48.414 73.5542 48.372 73.6166C48.3368 73.662 48.2723 73.6965 48.2301 73.6436C48.2074 73.6036 48.1957 73.5554 48.1966 73.5063C48.1858 73.3937 48.1815 73.2803 48.1837 73.167C48.1841 73.1137 48.191 73.0608 48.2043 73.0103C48.2129 72.9789 48.2258 72.9314 48.2379 72.9854C48.2417 73.0166 48.2417 73.0483 48.2379 73.0794C48.2336 73.127 48.2929 73.1335 48.2972 73.0794C48.3015 73.0254 48.3213 72.9065 48.2706 72.8708C48.2198 72.8352 48.1906 72.8838 48.1708 72.927C48.1012 73.0848 48.1287 73.301 48.1398 73.4674C48.1476 73.6047 48.1889 73.7722 48.3273 73.729C48.4657 73.6857 48.5053 73.4804 48.5354 73.3388C48.5367 73.3351 48.5374 73.331 48.5374 73.3269C48.5374 73.3228 48.5367 73.3188 48.5354 73.315L48.5517 73.3356L48.5741 73.3626L48.532 73.4339C48.5281 73.4405 48.5259 73.4484 48.5259 73.4566C48.5259 73.4648 48.5281 73.4728 48.532 73.4793C48.5417 73.4929 48.5545 73.5023 48.5687 73.5062C48.5829 73.5102 48.5977 73.5084 48.611 73.5013C48.6244 73.4942 48.6356 73.482 48.6432 73.4664C48.6507 73.4508 48.6542 73.4327 48.6532 73.4145C48.6525 73.3968 48.649 73.3796 48.6429 73.3637C48.6842 73.2916 48.7229 73.2149 48.759 73.1335C48.768 73.1454 48.779 73.1548 48.7911 73.161C48.8033 73.1671 48.8164 73.1699 48.8295 73.1691H48.8355C48.8509 73.1882 48.8682 73.2046 48.8871 73.2178C48.9053 73.2273 48.9226 73.2392 48.9387 73.2534C48.9671 73.2815 48.9585 73.315 48.9525 73.3561C48.9435 73.4106 48.932 73.4644 48.9181 73.5171C48.8545 73.5531 48.8047 73.6191 48.7796 73.7009C48.7682 73.739 48.767 73.7809 48.7763 73.8199C48.7857 73.859 48.8049 73.8931 48.8312 73.917C48.835 73.92 48.8393 73.9218 48.8437 73.9225C48.8482 73.9231 48.8527 73.9225 48.8569 73.9208C48.8612 73.919 48.8651 73.9162 48.8684 73.9123C48.8716 73.9085 48.8742 73.9038 48.8759 73.8987C48.9095 73.7906 48.9396 73.689 48.9662 73.5809C48.9658 73.5777 48.9658 73.5744 48.9662 73.5712C49.0187 73.5333 49.0737 73.4998 49.1262 73.4631C49.2641 73.3596 49.3955 73.2429 49.5191 73.114C49.5527 73.0762 49.5157 73.0221 49.4864 73.0502ZM48.7667 72.9508C48.7667 72.9216 48.7779 72.8665 48.8054 72.8676C48.7934 72.9011 48.7805 72.9346 48.7676 72.967C48.7669 72.9617 48.7666 72.9562 48.7667 72.9508ZM48.8415 73.8154C48.8166 73.7571 48.8527 73.6847 48.8931 73.636C48.8768 73.6933 48.8596 73.7528 48.8415 73.8122V73.8154Z" fill="#1C468A"/>
<path d="M50.5739 77.181H42.8281V64.0371H50.5739V77.181ZM42.9167 77.073H50.481V64.1484H42.9167V77.073Z" fill="#1C468A"/>
<path d="M47.9253 62.484C47.9253 62.484 46.3645 64.1711 46.9269 64.4294C47.4893 64.6877 48.9967 63.5583 49.2925 63.5583H50.2685C50.2685 63.5583 49.3045 62.1533 48.7955 62.1922C48.4924 62.2123 48.196 62.3117 47.9253 62.484Z" fill="#FFB27D"/>
<path d="M39.0266 59.4922L37.059 79.3128C36.9052 79.2761 36.7453 79.2264 36.5828 79.1659L34.3376 78.0855H34.3281C34.3281 78.0855 35.0158 77.1856 35.9613 74.0644C36.9069 70.9431 39.0266 59.4922 39.0266 59.4922Z" fill="#233862"/>
<path d="M87.6356 81.8613C87.6356 81.8613 88.4637 84.1104 88.4199 84.7243C88.376 85.3382 87.6356 87.2847 87.6356 87.2847L86.7422 82.1196L87.6356 81.8613Z" fill="#FFB27D"/>
<path d="M86.9848 72.1992L87.6346 81.8632L86.7415 82.1247L84.3828 73.3606L86.9848 72.1992Z" fill="#FFB27D"/>
<path d="M67.7656 41.1585L76.6452 34.5703L82.7456 39.943L74.2959 46.1347L67.7656 41.1585Z" fill="#233862"/>
<path d="M72.3252 44.1939C72.3252 44.1939 72.0983 45.8144 70.8562 46.6528C69.6141 47.4912 68.5499 47.7332 68.8164 50.4266C69.0829 53.12 67.619 53.7315 67.3551 55.5152C67.0912 57.2989 67.1222 60.5584 70.6817 59.5839C74.2413 58.6094 82.3919 59.3051 83.2781 57.8553C84.1643 56.4054 83.5428 53.3965 82.0351 51.1105C80.5274 48.8244 82.5225 47.3291 81.8125 45.3185C81.1025 43.308 79.7426 41.2369 79.7426 41.2369C79.7426 41.2369 73.8819 39.8399 72.3252 44.1939Z" fill="#132644"/>
<path d="M74.0078 118.32L75.2091 124.681L77.0089 124.668L77.0742 118.32H74.0078Z" fill="#FFB27D"/>
<path d="M89.1406 118.594L92.5596 124.683L93.8916 122.534L91.8347 117.758L89.1406 118.594Z" fill="#FFB27D"/>
<path d="M78.731 54.2482C78.743 54.2558 78.5109 61.3269 77.5465 61.3398C77.3445 61.3398 75.8531 56.3884 75.6631 56.3225C74.6316 55.9693 74.4863 52.7973 74.5009 52.7929C74.9376 52.6849 75.0631 51.9286 75.0537 48.6875L75.2514 48.7361L78.5719 49.5626C78.5719 49.5626 78.4963 50.8753 78.4937 52.1123C78.4911 53.1527 78.5419 54.138 78.731 54.2482Z" fill="#FFB27D"/>
<path d="M65.3193 47.1585L65.2109 46.8732C67.6273 45.4271 67.7571 42.0097 67.7537 41.2218C67.7536 41.1723 67.765 41.1238 67.7865 41.0823C67.8081 41.0409 67.8388 41.0082 67.8749 40.9884C67.8919 40.979 67.9104 40.9751 67.9289 40.977C67.9473 40.979 67.9651 40.9867 67.9806 40.9995C67.996 41.0123 68.0087 41.0297 68.0174 41.0503C68.0262 41.0708 68.0307 41.0937 68.0305 41.117C68.0254 42.0357 67.8396 45.6509 65.3193 47.1585Z" fill="#EFCBAB"/>
<path d="M65.2121 46.8691L64.875 46.9351L65.0693 47.4236L65.3204 47.1545L65.2121 46.8691Z" fill="#D8A987"/>
<path d="M64.8766 46.9355C64.8766 46.9355 64.4312 47.1906 64.3125 47.0436C64.3125 47.0436 64.3641 47.5408 64.5455 47.638C64.5455 47.638 64.9222 47.5797 65.0701 47.4219L64.8766 46.9355Z" fill="#EFCBAB"/>
<path d="M78.5718 49.5651C78.5718 49.5651 78.4961 50.8782 78.4935 52.1157C76.6353 52.0498 75.6559 49.9196 75.25 48.7383L78.5718 49.5651Z" fill="#EF9E67"/>
<path d="M74.5713 48.8834C74.5713 48.8834 73.3128 47.2304 72.8237 45.6682C72.4747 44.5521 72.2564 40.1442 75.7841 39.8935C76.4943 39.84 77.2049 39.9876 77.8635 40.3257C78.7093 40.7697 80.003 41.862 79.4013 45.9091L79.2921 47.252L74.5713 48.8834Z" fill="#132644"/>
<path d="M93.5639 121.14C93.5639 121.14 92.6811 121.331 91.9565 121.401C91.7957 121.416 91.6427 121.425 91.5095 121.425C91.1605 121.425 90.5321 121.26 90.1101 121.137L90.0783 121.128C89.8935 121.073 89.7516 121.027 89.6992 121.01L89.6768 121.003C89.6768 121.003 85.2766 114.844 82.8088 104.976C82.7515 104.746 82.6907 104.514 82.6265 104.279C81.2753 99.328 78.4747 93.1158 76.9997 87.4903C76.7647 86.5957 76.553 85.7501 76.3644 84.9535C76.3031 84.6986 76.2458 84.4465 76.1925 84.1973C75.1043 79.4436 74.7897 76.3299 74.5 72.998L83.3718 75.8351C83.3718 75.8351 87.0964 96.1344 93.5639 121.14Z" fill="#A53D38"/>
<path d="M79.1534 50.2265C79.1534 50.2265 74.8555 51.4074 74.3157 48.0344C73.7758 44.6615 72.8544 42.5429 75.5698 41.6461C78.2852 40.7494 79.0305 41.9 79.4302 42.9707C79.8299 44.0413 80.2571 49.8311 79.1534 50.2265Z" fill="#FFB27D"/>
<path d="M77.519 41.065C77.519 41.065 76.9764 45.3232 75.2566 46.3673C73.5368 47.4113 72.6562 47.0006 72.6562 47.0006C72.6562 47.0006 73.8231 45.2584 73.7225 42.7726C73.7225 42.7726 76.3272 39.406 77.519 41.065Z" fill="#132644"/>
<path d="M77.2812 41.4602C77.2812 41.4602 78.3045 42.1205 78.6571 42.9257C79.0096 43.7309 79.744 44.0162 79.7913 45.311C79.7913 45.311 80.2488 42.3929 79.0054 41.1262C77.6863 39.7796 77.2812 41.4602 77.2812 41.4602Z" fill="#132644"/>
<path d="M75.1474 124.324C75.2219 125.204 75.1439 126.094 74.9187 126.932C74.9187 126.932 74.6238 128.618 75.9454 128.649C77.2671 128.681 77.5921 128.524 77.4425 127.49C77.2929 126.456 77.0126 124.667 77.0126 124.667L75.1474 124.324Z" fill="#FFB27D"/>
<path d="M74.9173 126.933C74.9173 126.933 74.6722 128.525 74.8218 129.372C74.8218 129.372 75.2208 129.749 76.1813 129.749C77.092 129.749 77.5658 129.372 77.5658 129.372C77.5658 129.372 77.5933 127.626 77.3499 126.887C77.3499 126.889 76.4135 128.656 74.9173 126.933Z" fill="#C45446"/>
<path d="M97.0716 127.662C97.0716 127.662 94.6346 124.262 93.8899 122.531L92.0781 123.698L96.1283 128.48L97.0741 128.323L97.0716 127.662Z" fill="#FFB27D"/>
<path d="M98.6212 129.648C98.6212 129.648 96.0038 129.648 95.5551 129.586C95.1064 129.523 94.7454 128.708 94.2588 127.486C94.0603 126.986 93.6133 126.711 93.156 126.559V129.39H92.4683L91.8142 126.382C91.3844 125.386 91.7798 124.482 92.0832 123.695C92.4365 123.695 93.3864 123.998 95.1855 126.546C95.7769 127.383 96.4302 127.682 97.0766 127.657C97.0852 127.664 97.0944 127.67 97.1041 127.674C98.5972 128.52 98.6212 129.648 98.6212 129.648Z" fill="#C45446"/>
<path d="M91.9592 121.401C91.7985 121.416 91.6455 121.424 91.5123 121.424C91.1633 121.424 90.5349 121.259 90.1128 121.136L90.081 121.127L89.702 121.01L89.6796 121.002C89.6796 121.002 85.2794 114.844 82.8115 104.976C82.7542 104.746 82.6935 104.514 82.6293 104.279C81.278 99.3274 78.4775 93.1152 77.0025 87.4896C76.7675 86.5951 76.5558 85.7495 76.3672 84.9529C76.3059 84.6979 76.2486 84.4458 76.1953 84.1966L77.7641 82.6992C77.7641 82.6992 82.4754 92.2876 83.9333 101.311C85.1401 108.794 90.3441 118.49 91.9592 121.401Z" fill="#912F2F"/>
<path d="M77.9301 102.155C77.9568 106.543 77.7797 116.632 77.3284 120.809C77.3284 120.809 76.8986 121.288 75.8276 121.294C74.7325 121.294 74.2425 120.791 74.2425 120.791C73.1018 113.529 72.2904 107.521 71.6998 102.343C71.215 98.0947 70.7844 94.4559 70.4534 91.3153C70.1595 88.5365 72.0153 81.0117 72.0153 81.0117L78.9779 80.1582C78.861 87.8462 77.9146 99.605 77.9301 102.155Z" fill="#A53D38"/>
<path d="M75.8198 121.294C75.263 121.334 74.7098 121.159 74.2347 120.791C73.094 113.529 72.2826 107.521 71.692 102.343C71.2072 98.0947 70.7766 94.456 70.4456 91.3153C70.1517 88.5366 72.0075 81.0117 72.0075 81.0117L74.3679 82.9089C74.3679 82.9089 71.0155 86.7377 71.8416 93.9763C72.6677 101.215 74.6748 120.268 75.8198 121.294Z" fill="#912F2F"/>
<path d="M86.7907 74.9505C86.3308 75.13 85.859 75.2572 85.381 75.3308C84.6074 75.4724 83.8552 75.5642 83.3739 75.8386C81.9512 76.65 78.5 52.7012 78.5 52.7012C78.5 52.7012 81.0117 52.7314 82.1644 55.0154C83.3171 57.2993 87.805 68.5828 88.2039 72.1988C88.3835 73.8237 87.7122 74.5594 86.7907 74.9505Z" fill="#1C468A"/>
<path d="M91.9625 107.249C91.9625 107.249 91.7322 107.974 91.1029 108.99C90.7226 109.598 90.2991 110.161 89.8376 110.673C88.4262 112.242 86.1767 113.942 82.7031 114.785C82.5191 114.829 82.3315 114.871 82.14 114.911C81.0939 115.127 80.0874 115.285 79.1315 115.391C77.4064 115.582 75.6731 115.629 73.943 115.53C72.9227 115.471 72.0262 115.365 71.2732 115.247C69.572 114.98 68.6016 114.652 68.6016 114.652C68.6016 114.652 68.6016 93.0084 70.0207 80.1573C70.8064 73.0408 73.4419 52.7988 73.4419 52.7988L74.7424 52.5449L77.8834 61.3403L78.498 52.6973L79.9258 53.2731C80.2707 53.4125 80.5817 53.6599 80.8297 53.9919C81.0777 54.324 81.2544 54.7298 81.3432 55.1713L91.9625 107.249Z" fill="#1C468A"/>
<path d="M81.8414 74.008L74.5547 73.0789L75.7358 59.8086L83.0233 60.7366L81.8414 74.008Z" fill="#BC3F3F"/>
<path d="M75.7302 59.808L75.2626 59.7637L74.1641 73.0232L74.5492 73.0783L75.7302 59.808Z" fill="#9B2323"/>
<path d="M69.6202 66.6484C69.6202 66.6484 74.7365 68.6136 79.6266 69.492C79.6266 69.492 81.2401 70.3693 80.4862 70.6091C80.292 70.6707 70.4996 73.3544 69.0469 71.6139L69.6202 66.6484Z" fill="#FFB27D"/>
<path d="M74.7353 52.5469C74.7353 52.5469 70.9075 53.1281 70.2654 54.1005C68.2291 57.172 66.3827 70.2867 67.9798 73.315C69.8864 76.9332 72.8236 71.2558 73.745 67.9131C74.2195 66.177 74.9975 55.6994 74.7353 52.5469Z" fill="#1C468A"/>
<path d="M79.142 69.4012C79.142 69.4012 79.7439 69.3309 79.8574 69.0889C80.0861 68.6057 80.4464 68.6122 80.7474 68.5485C81.0484 68.4847 81.3863 68.0708 81.4465 68.154C81.5067 68.2372 81.2246 68.6944 81.0673 68.8641C81.2502 68.8757 81.433 68.8389 81.6038 68.756C81.8171 68.6284 82.5669 67.552 82.5704 68.0157C82.579 69.131 82.5102 69.3126 81.7509 70.0972C81.1266 70.7457 79.0078 70.9856 79.0078 70.9856L79.142 69.4012Z" fill="#FFB27D"/>
<path d="M74.7241 66.3583L74.5719 68.2432C74.2868 68.1631 74.0078 68.0524 73.7378 67.9124C71.637 66.8565 72.466 61.6094 72.466 61.6094C72.797 63.7082 73.8495 65.3305 74.7241 66.3583Z" fill="#233862"/>
<path d="M79.7429 41.2378C79.7429 41.2378 76.6355 39.7566 72.3281 44.1937L72.4141 43.1803C72.4518 42.7318 72.563 42.298 72.7405 41.9061C72.918 41.5142 73.158 41.1726 73.4456 40.9029C74.1023 40.2903 75.1493 39.6161 76.7223 39.3374C77.2525 39.2426 77.7933 39.3327 78.2855 39.5979C78.7777 39.8632 79.2025 40.2933 79.5134 40.8413L79.7429 41.2378Z" fill="#1C468A"/>
<path d="M86.7918 74.9497C86.3319 75.1291 85.8601 75.2564 85.3821 75.33L83.3672 64.1621C83.3672 64.1621 86.7565 72.7457 86.7918 74.9497Z" fill="#233862"/>
<path d="M77.6172 48.3702C77.6172 48.3702 77.8158 48.85 78.1056 48.8522C78.3954 48.8543 79.1375 48.7614 79.1917 48.6771C79.2674 48.4849 79.3323 48.2863 79.386 48.0827C79.386 48.0827 78.1667 48.0546 77.6172 48.3702Z" fill="white"/>
<path d="M177.481 62.5774C177.284 62.2341 177.052 61.9234 176.793 61.6523C176.426 61.2967 176.04 60.631 176.153 60.4148C176.265 60.1986 177.369 59.1816 177.369 59.1816L177.955 61.0071L177.481 62.5774Z" fill="#FFB27D"/>
<path d="M186.984 41.2898L196.57 36.5156L201.933 43.013L192.821 47.4804L186.984 41.2898Z" fill="#233862"/>
<path d="M181.755 67.0332L177.938 60.875L177.484 62.5788C177.484 62.5788 181.394 73.752 183.183 72.7127C184.018 72.2255 181.755 67.0332 181.755 67.0332Z" fill="#FFB27D"/>
<path d="M193.684 46.9428C193.684 46.9428 191.821 48.3213 192.964 50.992C192.964 50.992 191.331 50.6171 190.981 50.0057C191.002 50.1383 191.036 50.2672 191.083 50.3892C191.083 50.3892 189.173 50.0834 188.82 49.1889C188.094 47.3436 189.856 47.4603 190.618 45.5426C191.612 43.0394 193.174 41.0731 195.381 42.4538C195.381 42.4538 198.468 42.2377 197.072 47.2139C195.677 52.1902 196.995 52.6245 196.995 52.6245C196.995 52.6245 196.581 52.7325 196.404 52.6709C196.404 52.6709 196.171 52.4549 196.158 52.2636C196.158 52.2636 196.149 52.5629 196.197 52.6753C196.197 52.6753 194.735 52.3706 194.169 51.4588C193.602 50.5469 193.26 47.9227 193.684 46.9428Z" fill="#C94C43"/>
<path d="M195.521 53.3089C195.576 53.9248 195.642 54.4779 195.671 54.7415C195.692 54.9306 196.031 58.2927 195.413 58.3262C194.795 58.3597 193.256 62.3441 192.564 62.3117C191.79 62.275 191.102 54.9468 191 54.9468C191.198 54.8388 191.802 52.4284 191.994 51.509C192.226 50.3941 192.408 49.1895 192.408 49.1895L195.555 49.439L195.742 49.4531C195.633 49.9536 195.547 50.4614 195.484 50.9742C195.477 51.038 195.469 51.1028 195.463 51.1655C195.403 51.6894 195.454 52.5473 195.521 53.3089Z" fill="#FFB27D"/>
<path d="M191.968 48.7893C191.968 48.7893 191.457 46.7549 191.561 45.1959C191.635 44.0821 193.047 40.9252 196.079 42.5414C196.079 42.5414 196.819 42.3189 197.525 43.3355C198.087 44.1436 198.81 45.7264 196.982 48.7979L196.451 49.8643L191.968 48.7893Z" fill="#C94C43"/>
<path d="M195.52 53.3102C193.318 52.4997 192.383 49.3027 192.383 49.3027C193.315 49.3362 194.528 50.149 195.478 50.9747C195.471 51.0385 195.463 51.1033 195.457 51.166C195.401 51.6902 195.452 52.5483 195.52 53.3102Z" fill="#ED975D"/>
<path d="M195.68 52.1855C195.68 52.1855 191.703 50.9496 192.353 47.8489C193.003 44.7482 192.928 42.4999 195.495 43.1579C198.062 43.8158 198.305 45.1609 198.288 46.2629C198.27 47.3649 196.731 52.4264 195.68 52.1855Z" fill="#FFB27D"/>
<path d="M197.315 43.6818C197.315 43.6818 195.464 46.9587 193.687 46.9436C191.909 46.9284 191.305 46.1265 191.305 46.1265C192.317 45.4932 193.123 44.4371 193.583 43.1393C193.583 43.1393 196.861 41.678 197.315 43.6818Z" fill="#C94C43"/>
<path d="M196.984 43.8871C196.984 43.8871 197.623 44.9678 197.654 45.8249C197.685 46.6819 197.432 48.3355 197.82 48.4058C197.82 48.4058 199.158 46.2042 198.535 44.4999C197.874 42.6928 196.984 43.8871 196.984 43.8871Z" fill="#C94C43"/>
<path d="M197.104 44.0613C197.104 44.0613 195.529 47.6149 193.172 48.1358C193.172 48.1358 195.765 46.4941 196.474 44.0386C197.182 41.5831 197.104 44.0613 197.104 44.0613Z" fill="#C94C43"/>
<path d="M195.055 50.1976C195.055 50.1976 195.105 50.6699 195.344 50.7812C195.584 50.8925 196.22 51.0946 196.284 51.0449C196.393 50.9147 196.495 50.7749 196.588 50.6266C196.588 50.6266 195.585 50.1435 195.055 50.1976Z" fill="white"/>
<path d="M193.575 97.6323C193.524 97.898 193.474 98.1609 193.424 98.4209C193.124 99.9864 192.845 101.438 192.669 102.654C192.441 104.236 192.386 105.412 192.686 105.906C193.46 107.182 193.264 114.009 193.009 118.922C192.858 121.846 192.686 124.094 192.686 124.094L191.281 125.913C191.281 125.913 190.836 123.01 190.274 119.487C189.52 114.754 188.555 108.9 188.175 107.468C187.873 106.331 187.434 101.481 187.045 96.5281C187.027 96.2796 187.008 96.0322 186.988 95.7837C186.921 94.9194 186.856 94.0551 186.795 93.2124C186.446 88.5268 186.95 84.1156 186.95 84.1156C186.95 84.1156 188.778 82.2239 191.134 81.9689C192.52 81.8166 193.825 82.3719 194.47 84.5143C195.408 87.6312 194.458 93.0136 193.575 97.6323Z" fill="#FFB27D"/>
<path d="M193.572 97.6323C191.645 95.8842 188.936 92.7705 187.953 87.6744C187.764 85.1387 189.356 82.7295 191.133 81.9689C192.521 81.8166 193.825 82.3719 194.469 84.5143C195.405 87.6312 194.455 93.0136 193.572 97.6323Z" fill="#ED975D"/>
<path d="M200.596 66.832L210.061 69.9046V71.2929C210.061 71.2929 200.642 71.1536 200.035 69.8355C199.427 68.5174 200.596 66.832 200.596 66.832Z" fill="#FFB27D"/>
<path d="M210.057 112.616L209.614 114.912C209.614 114.912 207.658 113.643 205.177 112.002C201.309 109.441 196.164 105.977 195.155 105.005C194.49 104.363 193.608 100.88 192.797 96.9421C191.584 91.0692 190.516 84.1817 190.516 84.1817C190.516 84.1817 192.31 75.5063 197.115 80.8164C199.99 83.9937 199.543 90.1173 199.228 94.8797C199.019 98.0743 198.867 100.658 199.822 101.326C201.19 102.287 204.508 105.796 206.853 109.229C207.694 110.461 208.41 111.683 208.865 112.774L210.057 112.616Z" fill="#FFB27D"/>
<path d="M210.062 69.9057C210.062 69.9057 211.799 68.8249 212.49 68.7265C213.18 68.6282 214.34 68.5871 214.34 68.7265C214.34 68.866 213.098 69.8354 212.766 69.9057C212.434 69.9759 211.799 70.566 211.992 70.6363C212.185 70.7065 213.207 70.4104 213.221 70.6363C213.235 70.8622 212.599 71.0005 212.489 71.1767C212.379 71.3528 211.992 71.5592 211.371 71.4544C210.75 71.3496 210.062 71.2988 210.062 71.2988V69.9057Z" fill="#FFB27D"/>
<path d="M210.061 102.611C203.95 113.672 188.182 114.912 188.182 114.912C185.621 103.168 186.671 73.475 187.256 62.4378C187.22 60.5093 187.28 58.8801 187.531 58.2535C187.923 57.2811 190.055 55.5806 190.82 54.739C190.926 54.6851 191.037 54.6487 191.15 54.631C191.266 55.1366 192.686 61.1964 192.827 61.07C192.968 60.9436 195.364 55.1874 195.616 54.5078C195.874 54.5165 196.046 54.524 196.101 54.5283C196.523 54.5532 198.803 55.128 198.994 55.5904C199.061 55.7513 199.716 57.9315 200.541 60.8194C200.541 60.8219 200.541 60.8244 200.541 60.827C202.083 66.2418 204.345 65.2263 205.243 66.8296C205.808 67.8375 205.566 69.7174 204.518 71.3423C204.432 71.4795 204.335 71.6156 204.234 71.7485C203.437 72.8084 202.357 73.435 200.599 73.1098C200.161 73.0288 199.276 72.4972 198.555 71.7129C200.283 79.887 210.061 102.611 210.061 102.611Z" fill="#1C468A"/>
<path d="M191.257 54.35L190.43 54.9453C190.43 54.9453 192.689 62.9768 192.8 62.9401C192.912 62.9034 196.305 54.5564 196.305 54.5564L195.613 54.1934L192.828 61.07L191.257 54.35Z" fill="#F99746"/>
<path d="M198.298 43.9956C198.298 43.9956 195.401 41.9537 190.617 45.5427L190.823 44.5563C190.914 44.1197 191.075 43.7112 191.297 43.3567C191.519 43.0021 191.796 42.7091 192.113 42.4961C192.835 42.0131 193.949 41.5399 195.537 41.555C196.073 41.5597 196.597 41.7494 197.053 42.1032C197.509 42.457 197.878 42.9614 198.121 43.5613L198.298 43.9956Z" fill="#1C468A"/>
<path d="M183.869 46.6144L183.797 46.3118C186.363 45.3553 186.913 42.006 187.008 41.2257C187.014 41.1767 187.031 41.131 187.057 41.0941C187.083 41.0573 187.118 41.0309 187.156 41.0182C187.174 41.0123 187.192 41.0122 187.21 41.0178C187.228 41.0233 187.245 41.0344 187.259 41.0501C187.272 41.0657 187.283 41.0854 187.289 41.1074C187.295 41.1294 187.297 41.1529 187.294 41.1759C187.179 42.0827 186.544 45.6179 183.869 46.6144Z" fill="#EFCBAB"/>
<path d="M183.794 46.3086H183.453L183.584 46.8295L183.866 46.6123L183.794 46.3086Z" fill="#D8A987"/>
<path d="M183.454 46.3086C183.454 46.3086 182.983 46.4729 182.883 46.3086C182.883 46.3086 182.873 46.809 183.04 46.9408C183.04 46.9408 183.419 46.9571 183.585 46.8328L183.454 46.3086Z" fill="#EFCBAB"/>
<path d="M191.422 55.0742C191.422 55.0742 192.179 56.8229 195.192 55.2299L192.824 61.0747L191.422 55.0742Z" fill="white"/>
<path d="M190.427 54.9453C190.427 54.9453 190.033 71.5734 186.771 74.7962C186.555 75.0161 186.304 75.1769 186.036 75.2683C184.388 75.7967 183.19 74.5618 182.379 72.8526C181.252 70.4758 180.871 67.1828 181.063 66.4244C181.427 64.9788 182.267 67.535 184.025 66.8327C185.782 66.1305 186.259 57.2174 187.489 55.9209C187.81 55.5817 190.427 54.9453 190.427 54.9453Z" fill="#1C468A"/>
<path d="M174.506 66.7769C174.174 66.5471 173.854 66.2924 173.546 66.0142C173.337 65.8277 173.143 65.616 172.966 65.3822C172.885 65.275 172.818 65.1534 172.766 65.0213C172.766 65.0213 176.749 58.9949 177.064 58.2862C177.378 57.5775 180.388 51.7305 180.388 51.7305C180.667 51.9016 180.937 52.0943 181.197 52.3074C181.361 52.4414 181.536 52.5959 181.704 52.7655C182.016 53.0616 182.282 53.4279 182.488 53.8459C182.488 53.8459 178.112 59.4185 177.804 60.2201C177.495 61.0217 174.506 66.7769 174.506 66.7769Z" fill="#EFCBAB"/>
<path d="M173.546 66.0142C173.337 65.8277 173.143 65.616 172.966 65.3822C172.885 65.275 172.818 65.1533 172.766 65.0213C172.766 65.0213 176.749 58.9949 177.064 58.2862C177.378 57.5775 180.388 51.7305 180.388 51.7305C180.667 51.9016 180.937 52.0943 181.197 52.3074C181.361 52.4414 181.536 52.5959 181.704 52.7655C180.476 54.3417 177.16 58.6384 176.876 59.3742C176.605 60.0905 174.441 64.2856 173.546 66.0142Z" fill="#DDB08E"/>
<path d="M177.638 57.1094C177.638 57.1094 176.463 58.5425 176.328 59.5195L177.557 60.7592C177.557 60.7592 178.633 59.4352 178.973 58.456L177.638 57.1094Z" fill="#C94C43"/>
<path d="M177.937 60.8743C177.937 60.8743 178.023 59.9016 177.843 59.559C177.664 59.2164 177.649 58.2739 177.483 58.3701C177.317 58.4663 177.424 59.2434 177.319 59.6173C177.214 59.9913 177.061 61.727 177.483 62.0577C177.905 62.3885 177.937 60.8743 177.937 60.8743Z" fill="#FFB27D"/>
<path d="M176.749 58.4371C176.749 58.4371 176.26 58.3431 176.082 58.7505C175.904 59.158 175.682 59.8227 176.019 60.0853C176.356 60.3479 176.749 58.4371 176.749 58.4371Z" fill="#FFB27D"/>
<path d="M193.01 118.922C192.858 121.846 192.686 124.096 192.686 124.096L191.28 125.916C191.28 125.916 190.836 123.012 190.273 119.487C190.273 119.487 191.85 120.177 193.01 118.922Z" fill="white"/>
<path d="M194.093 126.723L193.335 127.238C193.059 127.361 192.832 127.396 192.553 127.531C192.129 127.734 191.831 128.136 191.817 128.208C191.603 129.3 191.301 129.231 191.301 129.231L188.255 129.267C188.111 129.177 188.355 128.403 188.472 128.26C188.76 127.902 189.622 128.083 189.933 126.963C190.11 126.333 190.984 124.371 190.984 124.371L190.99 124.364C191.019 124.345 191.182 124.304 192.062 124.534C192.518 124.653 192.706 123.492 192.706 123.492C192.815 123.526 192.918 123.587 193.008 123.67C193.167 123.812 193.285 124.013 193.345 124.245C193.455 124.643 193.902 125.218 194.223 125.589C194.418 125.816 194.567 125.971 194.567 125.971C194.567 125.971 194.702 126.175 194.093 126.723Z" fill="#233862"/>
<path d="M210.061 112.619L209.619 114.915C209.619 114.915 207.662 113.645 205.18 112.004C206.145 111.234 206.623 110.093 206.856 109.23C207.697 110.463 208.414 111.685 208.87 112.776L210.061 112.619Z" fill="white"/>
<path d="M212.591 113.509H212.58C212.523 113.491 212.259 113.382 212.084 112.861C211.97 112.514 211.934 112.23 211.826 111.888L211.396 110.95C210.944 110.202 210.785 110.377 210.785 110.377C210.785 110.377 210.667 110.567 210.492 110.819C210.203 111.234 209.761 111.812 209.448 111.961C209.265 112.044 209.108 112.198 209 112.4C208.936 112.517 208.891 112.648 208.867 112.786C208.867 112.786 209.796 112.99 209.715 113.565C209.557 114.679 209.595 114.881 209.61 114.918L209.616 114.925C209.616 114.925 211.2 115.967 211.707 116.171C212.608 116.534 213.078 117.304 213.37 117.656C213.429 117.726 213.499 117.779 213.576 117.809C213.653 117.84 213.734 117.847 213.814 117.831C214.052 117.785 214.36 117.689 214.427 117.507L212.591 113.509Z" fill="#233862"/>
<path d="M192.203 66.2039C192.203 66.0902 192.23 65.979 192.28 65.8844C192.331 65.7899 192.402 65.7162 192.486 65.6727C192.569 65.6292 192.661 65.6178 192.75 65.64C192.839 65.6621 192.92 65.7169 192.984 65.7973C193.048 65.8777 193.092 65.9802 193.109 66.0917C193.127 66.2032 193.118 66.3188 193.083 66.4239C193.049 66.529 192.99 66.6188 192.915 66.682C192.84 66.7451 192.751 66.7788 192.661 66.7788C192.539 66.7788 192.423 66.7183 192.337 66.6104C192.251 66.5026 192.203 66.3564 192.203 66.2039Z" fill="#233862"/>
<path d="M192.203 70.4695C192.203 70.3558 192.23 70.2446 192.28 70.1501C192.331 70.0555 192.402 69.9818 192.486 69.9383C192.569 69.8948 192.661 69.8834 192.75 69.9056C192.839 69.9278 192.92 69.9825 192.984 70.0629C193.048 70.1433 193.092 70.2458 193.109 70.3573C193.127 70.4689 193.118 70.5845 193.083 70.6895C193.049 70.7946 192.99 70.8844 192.915 70.9476C192.84 71.0108 192.751 71.0445 192.661 71.0445C192.539 71.0445 192.423 70.9839 192.337 70.8761C192.251 70.7682 192.203 70.622 192.203 70.4695Z" fill="#233862"/>
<path d="M204.51 71.3446C204.424 71.4818 204.327 71.6179 204.227 71.7508C203.43 72.8107 202.349 73.4373 200.591 73.1121C200.154 73.031 199.269 72.4995 198.547 71.7152C198.547 71.7152 197.096 66.7346 197.291 66.0313C197.487 65.3279 200.281 70.7849 202.6 71.0442C203.505 71.1436 204.121 71.2365 204.51 71.3446Z" fill="#233862"/>
<path d="M187.462 67.4727L186.774 74.7966C186.558 75.0164 186.308 75.1772 186.039 75.2687C184.392 75.797 183.193 74.5621 182.383 72.853C183.228 72.9999 185.277 73.23 185.725 72.1075C186.289 70.6857 187.462 67.4727 187.462 67.4727Z" fill="#233862"/>
<path d="M147.45 27.5859C147.45 27.5859 148.272 26.6543 148.472 26.0015C148.672 25.3487 148.649 24.2517 148.649 23.5406C148.617 23.525 148.582 23.5188 148.548 23.5225C148.513 23.5262 148.48 23.5396 148.45 23.5617C148.421 23.5839 148.395 23.6142 148.376 23.6504C148.357 23.6866 148.345 23.7278 148.34 23.7708C148.28 24.1091 148.169 24.8948 147.941 25.0526C147.714 25.2104 147.202 25.192 147.082 26.0015C146.961 26.811 147.45 27.5859 147.45 27.5859Z" fill="#B56F40"/>
<path d="M145.569 27.7435C145.569 27.7435 144.823 25.8208 144.973 25.195C145.124 24.5692 147.42 23.8829 147.725 24.178C148.03 24.4731 147.725 28.0688 147.725 28.0688L145.569 27.7435Z" fill="#B56F40"/>
<path d="M169.715 85.6395C169.715 85.6395 169.606 87.2261 170.045 87.9859C170.483 88.7456 170.722 89.4341 170.868 89.0893C171.014 88.7446 170.631 87.5481 170.759 87.5762C170.887 87.6043 171.242 89.0018 171.421 89.4384C171.6 89.8751 171.984 90.5657 172.241 90.2209C172.497 89.8761 172.003 86.61 171.802 86.1961C171.601 85.7822 171.18 84.8613 171.18 84.8613L169.715 85.6395Z" fill="#B56F40"/>
<path d="M153.938 37.8161L162.672 31.6406L168.54 40.7806L160.543 45.6575L153.938 37.8161Z" fill="#233862"/>
<path d="M157.603 40.7277C157.603 40.7277 157.42 41.713 156.908 42.0631C156.396 42.4131 157.201 43.3595 156.999 44.0596C156.797 44.7597 157.611 45.6564 157.611 45.6564L163.252 46.4732C163.504 46.3172 163.72 46.0813 163.878 45.7886C164.036 45.4959 164.131 45.1566 164.152 44.804C164.226 43.5853 164.312 42.0631 164.312 42.0631L161.847 39.6992L158.298 39.9153L157.603 40.7277Z" fill="#C94C43"/>
<path d="M138.653 28.9038C138.48 28.38 138.332 27.8435 138.21 27.2973C138.126 26.9279 138.07 26.549 138.044 26.1661C138.032 25.9912 138.041 25.815 138.07 25.6432C138.07 25.6432 145.342 23.7547 146.056 23.3906C146.769 23.0265 153.024 20.3926 153.024 20.3926C153.183 20.8136 153.321 21.2466 153.437 21.689C153.51 21.9667 153.582 22.2735 153.638 22.589C153.743 23.1735 153.797 23.7925 153.724 24.3284C153.724 24.3284 146.356 25.4293 145.593 25.8885C144.831 26.3476 138.653 28.9038 138.653 28.9038Z" fill="#EFCBAB"/>
<path d="M138.21 27.2973C138.126 26.9279 138.07 26.549 138.044 26.1661C138.032 25.9912 138.041 25.815 138.07 25.6432C138.07 25.6432 145.342 23.7547 146.056 23.3906C146.769 23.0265 153.024 20.3926 153.024 20.3926C153.183 20.8136 153.321 21.2466 153.437 21.689C153.51 21.9667 153.582 22.2735 153.638 22.589C151.563 22.9131 145.935 23.8098 145.236 24.2301C144.556 24.6374 140.065 26.5237 138.21 27.2973Z" fill="#DDB08E"/>
<path d="M147.293 22.8359C147.293 22.8359 145.352 23.0715 144.648 23.8551L145.059 26.1582C145.059 26.1582 146.844 25.9302 147.741 25.3369L147.293 22.8359Z" fill="#C94C43"/>
<path d="M149.047 129.272C149.047 129.272 149.047 127.804 149.213 127.316C149.379 126.827 149.987 124.84 149.987 124.84H152.373C152.373 124.84 152.817 126.653 152.845 127.246C152.873 127.838 152.845 129.272 152.845 129.272H149.047Z" fill="#233862"/>
<path d="M164.2 129.272C164.2 129.272 164.2 127.804 164.034 127.316C163.868 126.827 163.26 124.84 163.26 124.84H160.875C160.875 124.84 160.43 126.653 160.403 127.246C160.375 127.838 160.403 129.272 160.403 129.272H164.2Z" fill="#233862"/>
<path d="M158.227 46.6406C158.227 46.6406 157.749 49.8547 157.242 51.2387L154.359 53.0181L158.394 63.044L163.934 56.7562L162.094 52.2456C162.094 52.2456 161.922 47.7771 162.485 46.2473C163.048 44.7175 158.227 46.6406 158.227 46.6406Z" fill="#B56F40"/>
<path d="M158.164 47.084C158.164 47.084 158.652 49.5806 160.119 49.8108C161.586 50.041 162.172 48.0297 162.172 48.0297L158.164 47.084Z" fill="#99592E"/>
<path d="M160.06 48.8703C159.006 48.6423 157.275 46.4935 157.543 44.3035L157.962 40.882C158.06 40.0814 158.584 39.5131 159.128 39.6179L163.168 40.398C163.71 40.506 164.075 41.2439 163.977 42.0445L163.581 45.2716C163.296 47.5706 161.271 49.1318 160.06 48.8703Z" fill="#B56F40"/>
<path d="M149.355 78.4349C149.347 78.0363 149.77 94.3381 149.148 103.594C148.534 112.735 149.148 125.453 149.148 125.453C149.148 125.453 151.144 126.836 153.307 125.453C153.307 125.453 155.681 107.796 155.665 103.594C155.65 99.1188 158.244 79.1339 158.244 79.1339L149.355 78.4349Z" fill="#F99746"/>
<path d="M164.107 125.453C164.107 125.453 162.111 126.837 159.948 125.453C159.948 125.453 157.575 107.796 157.591 103.594C157.598 101.703 157.138 97.0458 156.605 92.2976C155.875 85.8023 155.008 79.1342 155.008 79.1342L164.25 78.4082C164.25 78.4082 163.488 94.4551 164.113 103.594C164.737 112.733 164.107 125.453 164.107 125.453Z" fill="#F99746"/>
<path d="M159.191 44.5371C158.797 44.4615 158.021 44.1988 157.987 43.3115C157.978 43.1919 157.991 43.0713 158.025 42.959C158.059 42.8466 158.113 42.7454 158.182 42.6631C158.267 42.5753 158.366 42.5121 158.472 42.4781C158.578 42.4441 158.689 42.4401 158.797 42.4664L160.009 42.7009C160.239 42.7452 160.39 42.8598 160.457 43.0413C160.569 43.3461 160.406 43.7384 160.331 43.8941C160.073 44.4236 159.781 44.6376 159.412 44.5674C159.338 44.562 159.264 44.5519 159.191 44.5371ZM158.786 42.5669C158.69 42.5426 158.591 42.5455 158.497 42.5752C158.402 42.6049 158.314 42.6608 158.238 42.7387C158.177 42.8105 158.129 42.8989 158.1 42.9973C158.07 43.0957 158.058 43.2013 158.066 43.3061C158.082 43.7622 158.312 44.0951 158.748 44.2972C158.963 44.3928 159.188 44.4499 159.415 44.4669H159.42C159.754 44.5317 160.022 44.3329 160.261 43.8411C160.314 43.733 160.481 43.3515 160.382 43.0846C160.327 42.9365 160.197 42.8414 159.995 42.8025L158.786 42.5669Z" fill="#2C3A64"/>
<path d="M161.989 45.0768C161.915 45.0635 161.842 45.0451 161.77 45.0216C161.401 44.9492 161.174 44.6347 161.054 44.0317C161.019 43.8555 160.958 43.4189 161.14 43.167C161.248 43.019 161.419 42.9671 161.65 43.0114L162.861 43.2459C162.97 43.2614 163.075 43.3071 163.168 43.3796C163.261 43.4521 163.341 43.5497 163.4 43.6653C163.447 43.7699 163.474 43.8867 163.48 44.0066C163.485 44.1265 163.469 44.2464 163.431 44.357C163.182 45.1957 162.38 45.1492 161.989 45.0768ZM161.635 43.1162C161.433 43.0773 161.286 43.1162 161.198 43.2395C161.04 43.4556 161.112 43.8825 161.133 44.0079C161.244 44.5666 161.45 44.8574 161.784 44.9222H161.789C162.01 44.9925 162.238 45.023 162.466 45.013C162.93 44.9849 163.228 44.7536 163.353 44.3256C163.386 44.2291 163.401 44.1244 163.396 44.0195C163.392 43.9147 163.369 43.8124 163.329 43.7204C163.275 43.6176 163.204 43.5311 163.121 43.467C163.037 43.4029 162.944 43.3628 162.847 43.3497L161.635 43.1162Z" fill="#2C3A64"/>
<path d="M160.306 43.4782C160.295 43.476 160.285 43.4693 160.278 43.4592C160.271 43.449 160.266 43.436 160.266 43.4223C160.265 43.4086 160.268 43.395 160.274 43.3838C160.281 43.3725 160.29 43.3643 160.3 43.3604C160.322 43.3518 160.829 43.1767 161.216 43.5387C161.226 43.5482 161.233 43.5624 161.235 43.5782C161.237 43.594 161.234 43.6101 161.226 43.623C161.219 43.636 161.207 43.6446 161.194 43.647C161.182 43.6494 161.169 43.6455 161.158 43.636C160.809 43.3118 160.331 43.475 160.326 43.4771C160.319 43.4791 160.313 43.4795 160.306 43.4782Z" fill="#2C3A64"/>
<path d="M159.236 53.0113L156.508 51.5215C156.508 51.5215 155.096 65.6302 156.98 66.5042C156.98 66.5042 162.357 54.5023 161.991 52.9616L159.236 53.0113Z" fill="white"/>
<path d="M157.517 50.6309C157.517 50.6309 156.743 50.7962 156.344 51.2793C156.344 51.2793 156.929 53.6722 158.485 54.3844L159.153 53.0129C159.153 53.0129 157.884 52.2585 157.517 50.6309Z" fill="#D2E3FC"/>
<path d="M159.156 53.012C159.156 53.012 161.7 52.8888 162.08 51.3477C162.408 51.8354 162.582 52.4578 162.569 53.0963C162.569 53.0963 161.764 54.6235 159.751 54.6419L159.156 53.012Z" fill="#D2E3FC"/>
<path d="M159.359 46.4727C159.359 46.4727 160.713 46.5483 161.31 46.8498C161.31 46.8498 160.898 47.4659 160.358 47.361C159.818 47.2562 159.438 46.9287 159.359 46.4727Z" fill="#FFF0E6"/>
<path d="M149.78 41.4611C148.553 42.4334 146.876 43.7504 145.507 44.7919C145.446 44.5342 145.397 44.2718 145.362 44.0065C144.909 40.3699 145.568 27.7424 145.568 27.7424C145.86 27.5653 146.173 27.451 146.495 27.4043C147.386 27.3124 147.72 28.0633 147.72 28.0633C147.72 28.0633 149.265 39.1728 149.78 41.4611Z" fill="#B56F40"/>
<path d="M171.514 85.3834L170.588 85.8663C169.108 86.5286 167.51 85.6362 167.026 83.7563C166.374 81.2239 166.306 78.4959 166.066 76.2509C165.946 75.1467 165.808 72.8704 165.276 71.0964L166.207 110.35C152.268 111.59 145.468 101.521 145.468 101.521C145.108 90.8944 148.486 66.9488 149.717 58.6515C149.123 56.9661 144.903 52.126 144.202 47.3756C143.875 45.1683 144.9 43.6083 146.146 42.5549C147.713 41.2271 149.628 40.7031 149.628 40.7031L154.133 48.2723C154.277 48.4611 154.404 48.6695 154.512 48.8935C154.856 49.7826 156.661 51.2584 156.661 51.2584C156.656 51.306 156.855 64.0199 157.222 64.4261C157.753 64.1733 161.308 55.2288 162.093 52.2481C163.337 52.6805 164.554 53.2269 165.735 53.8827C165.735 53.8827 168.177 55.5195 168.521 62.65C168.813 68.7001 171.754 76.4194 172.421 83.4354C172.46 83.8401 172.392 84.2494 172.228 84.6011C172.064 84.9527 171.813 85.2274 171.514 85.3834Z" fill="#1C468A"/>
<path d="M156.156 50.8184C156.156 50.8184 156.485 63.1466 156.906 66.2322L163.161 52.6464L162.301 52.2455L157.358 63.5031L156.87 51.2559L156.156 50.8184Z" fill="#C94C43"/>
<path d="M157.517 50.3398C157.517 50.3398 156.743 50.5063 156.344 50.9883C156.344 50.9883 156.929 53.3801 158.485 54.0934L159.153 53.0126C159.153 53.0126 157.884 51.9675 157.517 50.3398Z" fill="white"/>
<path d="M159.156 53.0137C159.156 53.0137 161.7 52.5987 162.08 51.0586C162.408 51.546 162.582 52.168 162.569 52.8062C162.569 52.8062 161.764 54.3344 159.751 54.3517L159.156 53.0137Z" fill="white"/>
<path d="M155.877 68.1297C156.132 68.1297 156.339 67.8694 156.339 67.5483C156.339 67.2271 156.132 66.9668 155.877 66.9668C155.621 66.9668 155.414 67.2271 155.414 67.5483C155.414 67.8694 155.621 68.1297 155.877 68.1297Z" fill="#233862"/>
<path d="M154.547 72.7798C154.547 72.6648 154.574 72.5522 154.624 72.4565C154.675 72.3607 154.747 72.286 154.832 72.2418C154.916 72.1977 155.009 72.186 155.099 72.2083C155.189 72.2306 155.272 72.2859 155.336 72.3672C155.401 72.4485 155.445 72.5521 155.463 72.6649C155.481 72.7777 155.472 72.8947 155.437 73.001C155.402 73.1073 155.343 73.1982 155.267 73.2621C155.191 73.3261 155.101 73.3602 155.01 73.3602C154.949 73.3603 154.889 73.3454 154.833 73.3163C154.776 73.2872 154.725 73.2445 154.682 73.1906C154.639 73.1367 154.605 73.0726 154.582 73.0022C154.559 72.9317 154.547 72.8561 154.547 72.7798Z" fill="#233862"/>
<path d="M154.571 43.6039L154.724 43.4212C153.177 41.3678 153.896 38.6399 154.089 38.0174C154.101 37.9785 154.103 37.9363 154.096 37.8956C154.09 37.855 154.074 37.8177 154.05 37.7882C154.039 37.7743 154.025 37.7642 154.01 37.7586C153.995 37.7531 153.979 37.7524 153.964 37.7566C153.949 37.7608 153.935 37.7697 153.923 37.7826C153.911 37.7955 153.902 37.812 153.896 37.8304C153.68 38.5588 152.956 41.464 154.571 43.6039Z" fill="#EFCBAB"/>
<path d="M154.723 43.418L154.972 43.5985L154.703 43.9086L154.57 43.6006L154.723 43.418Z" fill="#D8A987"/>
<path d="M154.972 43.5996C154.972 43.5996 155.26 43.9682 155.388 43.9011C155.388 43.9011 155.229 44.2719 155.063 44.2783C155.063 44.2783 154.781 44.0903 154.703 43.9087L154.972 43.5996Z" fill="#EFCBAB"/>
<path d="M157.742 41.4748C157.742 41.4748 158.826 41.5666 159.147 40.8773C159.147 40.8773 160.026 41.1528 160.415 40.7391C160.415 40.7391 161.772 41.0837 161.809 40.3944C161.809 40.3944 162.846 43.0035 163.983 42.4569C165.119 41.9102 162.164 39.2676 162.164 39.2676L158.296 39.9158L157.742 41.4748Z" fill="#C94C43"/>
<path d="M157.829 39.5153L157.609 40.7275C157.609 40.7275 160.631 39.3792 164.314 42.0629L164.271 40.1096C164.267 39.9211 164.231 39.7359 164.165 39.5665C164.099 39.3971 164.005 39.2474 163.89 39.1275C163.223 38.4371 161.627 37.0812 158.674 38.1605C158.263 38.3118 157.926 38.9903 157.829 39.5153Z" fill="#1C468A"/>
<path d="M144.627 24.5656C144.616 24.4921 144.418 23.969 144.689 23.4848C144.961 23.0006 146.753 22.257 146.92 22.6493C147.087 23.0417 146.981 24.4034 146.404 24.7028C145.827 25.0022 144.666 24.8693 144.627 24.5656Z" fill="#B56F40"/>
<path d="M149.717 58.6532C149.123 56.9678 144.903 52.1277 144.202 47.3773C143.875 45.1701 144.9 43.61 146.146 42.5566C146.146 42.5566 145.562 45.8929 147.218 48.9039C148.875 51.9149 149.717 58.6532 149.717 58.6532Z" fill="#233862"/>
<path d="M170.593 85.8656C169.112 86.5279 167.514 85.6355 167.031 83.7556C166.379 81.2232 166.311 78.4952 166.07 76.2502C165.951 75.146 165.812 72.8697 165.281 71.0957C165.331 71.194 166.936 74.38 168.376 79.5389C169.84 84.7776 169.385 85.5425 170.593 85.8656Z" fill="#233862"/>
<path d="M227.167 129.182H219.305C218.884 128.732 219.597 127.712 220.342 127.644C220.665 127.613 221.074 127.698 221.545 127.823C221.654 126.016 222.272 117.898 224.6 118.224C227.218 118.59 224.6 121.799 223.86 123.7C223.312 125.104 222.733 127.126 222.469 128.079C222.682 128.137 222.899 128.193 223.127 128.245C223.471 126.906 224.764 122.402 226.406 122.665C228.334 122.972 227.559 124.778 226.193 125.85C225.191 126.638 223.958 127.759 223.375 128.3C223.882 128.411 224.397 128.463 224.912 128.455C226.254 128.415 226.912 128.914 227.167 129.182Z" fill="#82B378"/>
<path d="M27.7698 129.184C27.7698 129.184 24.1449 116.67 21.5988 117.732C19.0527 118.794 27.7698 129.184 27.7698 129.184Z" fill="#82B378"/>
<path d="M26.378 129.181C26.0695 129.181 20.2844 121.636 19.8985 123.611C19.5125 125.586 26.378 129.181 26.378 129.181Z" fill="#82B378"/>
<path d="M32.5453 129.182C32.5453 129.182 30.1531 126.425 27.123 127.143C24.093 127.86 22.8002 128.646 20.8979 128.103C18.9956 127.56 18.0234 129.183 18.0234 129.183L32.5453 129.182Z" fill="#82B378"/>
<path d="M115.955 98.0064C116.512 96.9077 111.812 84.7577 114.336 77.9935C114.65 77.1508 120.508 78.4105 120.508 78.4105C120.508 78.4105 121.706 95.4935 121.033 100.018C120.558 103.212 119.627 112.636 119.121 117.894C119.121 117.911 119.121 117.928 119.121 117.944C119.001 119.194 118.905 120.205 118.846 120.833C118.8 121.307 118.844 121.789 118.976 122.237C119.349 123.523 120.161 126.184 120.565 126.551C120.565 126.551 118.349 127.348 117.923 127.035C117.498 126.722 116.415 121.812 116.415 121.812C116.603 121.355 116.67 120.835 116.607 120.327C116.521 119.658 116.395 118.609 116.251 117.319C114.336 107.594 114.627 100.631 115.955 98.0064Z" fill="#FFB27D"/>
<path d="M103.435 119.807C103.742 119.465 103.953 119.008 104.037 118.503C104.146 117.84 104.322 116.802 104.553 115.531C105.498 105.591 107.725 99.201 109.71 97.3374C110.541 96.5584 109.56 83.1044 113.822 77.897C114.353 77.2488 119.479 81.0301 119.479 81.0301C119.479 81.0301 115.797 97.5437 113.896 101.474C112.554 104.251 109.033 112.654 107.082 117.348C106.609 118.484 106.229 119.401 105.994 119.972C105.818 120.396 105.724 120.866 105.72 121.343C105.709 122.713 105.562 126.379 105.992 126.699C106.238 126.884 106.469 127.102 106.679 127.347C106.679 127.347 104.658 127.131 104.41 127.112C104.162 127.092 102.616 120.999 102.586 120.882C102.893 120.45 103.207 120.065 103.435 119.807Z" fill="#FFB27D"/>
<path d="M101.578 123.117L101.07 126.856L101.339 127.106L102.93 124.22L101.578 123.117Z" fill="#233862"/>
<path d="M101.629 123.402C103.366 124.545 103.622 128.36 103.899 129.181L107.07 129.194C107.549 128.99 107.361 128.138 106.671 127.34C106.671 127.34 104.65 127.124 104.402 127.104C104.154 127.085 102.608 120.992 102.578 120.875C101.849 121.869 101.143 123.082 101.629 123.402Z" fill="#1C468A"/>
<path d="M104.406 110.759C104.547 115.532 112.101 114.615 112.101 114.615L113.101 108.543L113.763 104.514L113.983 103.179L113.651 102.981L108.845 100.114L107.34 99.2148L107.279 99.4536L104.688 109.652L104.406 110.759Z" fill="#F99746"/>
<path d="M104.688 109.657C106.869 106.836 113.101 108.544 113.101 108.544L113.763 104.516L113.651 102.983L108.845 100.115L107.279 99.4551L104.688 109.654L104.688 109.657Z" fill="#EF7E29"/>
<path d="M115.836 125.617L116.25 129.182H116.708L116.925 126.419L115.836 125.617Z" fill="#233862"/>
<path d="M115.834 125.62C116.797 126.179 117.852 128.537 118.341 129.185L122.344 129.222C122.845 128.706 121.094 127.04 120.558 126.552C120.558 126.552 118.341 127.349 117.915 127.036C117.49 126.723 116.408 121.812 116.408 121.812C115.934 122.962 115.124 125.206 115.834 125.62Z" fill="#1C468A"/>
<path d="M113.984 101.42L114.978 115.129C116.824 118.071 121.702 116.263 121.702 116.263C121.702 116.263 122.072 104.938 122.262 104.487L121.555 104.225L113.984 101.42Z" fill="#F99746"/>
<path d="M113.984 101.42L114.978 115.129C115.03 108.382 121.973 109.06 121.973 109.06L121.555 104.23L113.984 101.42Z" fill="#EF7E29"/>
<path d="M122.486 37.0227L112.3 31.9492L106.602 38.8539L116.284 43.6011L122.486 37.0227Z" fill="#233862"/>
<path d="M117.714 39.362C117.714 39.362 117.735 40.8875 118.627 41.3618C120.471 42.345 118.712 43.4859 120.524 45.0935C120.941 45.464 121.242 47.7631 118.361 48.1056C115.48 48.448 115.122 48.7538 115.122 48.7538C115.122 48.7538 112.982 50.4824 110.614 48.7052C109.239 47.6799 110.97 44.8158 110.34 44.0909C109.493 43.112 109.38 39.9001 110.614 38.5734C111.849 37.2467 113.823 36.4785 113.823 36.4785L117.714 39.362Z" fill="#132644"/>
<path d="M125.805 42.6819L125.881 42.3576C123.155 41.3417 122.57 37.7827 122.47 36.9538C122.463 36.9025 122.445 36.8548 122.417 36.8164C122.389 36.778 122.353 36.7507 122.313 36.7376C122.294 36.7311 122.274 36.7307 122.254 36.7365C122.235 36.7423 122.217 36.7541 122.203 36.7708C122.188 36.7875 122.177 36.8085 122.171 36.832C122.164 36.8555 122.162 36.8806 122.166 36.9051C122.289 37.8659 122.959 41.6216 125.805 42.6819Z" fill="#EFCBAB"/>
<path d="M125.873 42.3574H126.236L126.097 42.9108L125.797 42.6795L125.873 42.3574Z" fill="#D8A987"/>
<path d="M126.24 42.3574C126.24 42.3574 126.741 42.5325 126.847 42.3574C126.847 42.3574 126.858 42.8892 126.68 43.0297C126.68 43.0297 126.278 43.0459 126.102 42.9097L126.24 42.3574Z" fill="#EFCBAB"/>
<path d="M118.342 49.051C118.14 49.0186 117.529 48.4028 117.252 47.465C116.919 46.3349 116.632 45.1055 116.632 45.1055L115.746 45.287L113.381 45.7731L113.188 45.8131C113.361 46.3885 113.505 46.9775 113.617 47.5763C113.779 48.3735 113.853 49.1945 113.838 50.0169C113.815 50.65 113.551 50.8174 113.408 50.9449C113.341 50.9979 115.901 61.5499 117.139 61.0249C118.215 60.57 118.447 49.0143 118.342 49.051Z" fill="#FFB27D"/>
<path d="M113.838 50.0188C115.26 49.2957 116.629 45.1045 116.629 45.1045C116.327 45.071 116.022 45.1338 115.744 45.2871C114.96 45.6816 114.162 46.6273 113.617 47.5773C113.779 48.3748 113.853 49.1961 113.838 50.0188Z" fill="#ED975D"/>
<path d="M112.932 48.3121C112.932 48.3121 117.155 47.4478 116.688 44.1537C116.222 40.8597 116.452 38.5249 113.737 38.9355C111.021 39.346 110.674 40.7181 110.619 41.8687C110.564 43.0193 111.821 48.4504 112.932 48.3121Z" fill="#FFB27D"/>
<path d="M112.554 51.3749C112.554 51.3749 105.428 48.6793 104.92 47.9295C104.413 47.1798 103.182 37.2338 103.182 35.7969L102.144 35.9838C102.144 35.9838 101.376 47.3029 102.266 49.871C103.157 52.4391 112.143 56.4829 112.143 56.4829L112.554 51.3749Z" fill="#FFB27D"/>
<path d="M118.126 48.9297C118.126 48.9297 117.251 52.3577 113.828 50.2013L117.426 60.1494L118.366 51.2547L118.126 48.9297Z" fill="#F99746"/>
<path d="M121.035 49.9336C121.035 49.9336 120.605 51.7173 128.857 57.3699L134.944 52.1322L135.675 52.9014C135.675 52.9014 129.839 61.7421 128.928 61.5542C128.017 61.3662 121.752 56.1793 121.752 56.1793L121.035 49.9336Z" fill="#FFB27D"/>
<path d="M98.6016 94.149C98.8054 94.8933 99.0507 95.6186 99.3357 96.3195C100.214 98.5256 101.938 101.903 104.823 103.93C108.095 106.23 118.695 110.628 125.975 108.496C125.975 108.496 125.287 79.5422 123.756 67.6321C123.72 67.3563 123.684 67.0898 123.648 66.8326C124.092 68.9718 126.37 69.6751 127.304 69.2797C129.355 68.4154 130.069 66.4091 130.166 64.2884C130.317 61.0224 129.004 57.4819 128.855 57.3739C125.49 54.9733 124.866 51.1639 123.233 49.8026C121.772 48.5883 118.292 48.907 118.122 48.9286L117.36 58.437L113.821 50.1926C113.815 50.1926 108.11 49.5671 104.92 47.9238C104.92 47.9238 95.3781 64.5196 107.194 64.3013C107.194 68.1226 105.772 71.5971 104.401 76.7635C103.042 81.8931 98.6016 94.149 98.6016 94.149Z" fill="#1C468A"/>
<path d="M113.856 45.9106C113.856 45.9106 113.809 46.451 113.539 46.5818C113.269 46.7126 112.551 46.9655 112.477 46.906C112.351 46.7613 112.233 46.6056 112.125 46.4402C112.125 46.4402 113.254 45.8663 113.856 45.9106Z" fill="white"/>
<path d="M103.207 35.8045C103.207 35.8045 103.645 35.423 103.414 34.3736C103.26 33.6732 103.364 33.1036 103.242 33.1209C103.12 33.1382 103.017 34.0483 102.944 34.2731C102.881 34.4633 101.933 32.2077 101.69 32.3849C101.448 32.5622 100.974 33.4527 102.107 36.534L103.207 35.8045Z" fill="#FFB27D"/>
<path d="M134.945 52.1338C134.945 52.1338 135.595 50.2003 135.81 49.8026C136.24 49.0136 137.456 48.5208 137.53 48.8698C137.604 49.2189 136.749 49.7345 136.712 50.5364C136.701 50.759 137.065 50.3267 137.289 50.1581C137.425 50.0565 137.506 50.1408 137.436 50.2662C137.078 50.9212 136.883 51.5934 136.54 51.842C136.196 52.0906 135.672 52.9001 135.672 52.9001L134.945 52.1338Z" fill="#FFB27D"/>
<path d="M118.125 48.9247L117.362 58.4407L113.837 50.018L112.555 50.0245L117.741 61.8828L119.071 48.875L118.125 48.9247Z" fill="#AA443E"/>
<path d="M111.186 39.0563C111.186 39.0563 109.949 40.8929 113.851 41.7842C115.104 42.0727 115.733 43.596 115.392 44.8806C114.884 46.7875 116.165 48.8413 118.049 48.1023C119.549 47.5135 117.103 38.703 115.775 38.5744C114.447 38.4459 111.186 39.0563 111.186 39.0563Z" fill="#132644"/>
<path d="M112.558 39.4792C112.558 39.4792 111.304 40.6108 111.198 41.5165C111.093 42.4222 110.798 43.718 110.319 42.8026C109.841 41.8872 109.761 40.6497 110.319 39.8132C110.878 38.9767 112.125 38.6006 112.395 38.8891C112.665 39.1777 112.558 39.4792 112.558 39.4792Z" fill="#132644"/>
<path d="M110.344 38.9539C110.344 38.9539 112.738 36.361 117.822 40.1769L117.89 38.6007C117.694 37.664 117.46 37.6715 116.773 37.2156C116.005 36.7024 114.821 36.199 113.133 36.2163C111.974 36.2281 111.297 36.0402 110.769 37.3388L110.344 38.9539Z" fill="#1C468A"/>
<path d="M142.028 57.0475C142.331 56.626 142.613 56.1823 142.873 55.7186C143.05 55.4058 143.203 55.0722 143.33 54.7225C143.388 54.5627 143.426 54.3931 143.445 54.219C143.445 54.219 137.093 49.3833 136.518 48.7404C135.943 48.0976 130.748 42.9863 130.748 42.9863C130.487 43.3154 130.242 43.6643 130.016 44.0311C129.873 44.2623 129.723 44.5226 129.586 44.796C129.328 45.3016 129.116 45.8623 129.039 46.3982C129.039 46.3982 135.691 50.5317 136.287 51.2858C136.884 52.0399 142.028 57.0475 142.028 57.0475Z" fill="#EFCBAB"/>
<path d="M142.873 55.7186C143.051 55.4058 143.204 55.0722 143.33 54.7225C143.388 54.5627 143.427 54.3931 143.445 54.219C143.445 54.219 137.094 49.3833 136.518 48.7404C135.943 48.0976 130.748 42.9863 130.748 42.9863C130.487 43.3154 130.243 43.6643 130.016 44.0311C129.873 44.2623 129.723 44.5226 129.586 44.796C131.456 45.9693 136.52 49.1834 137.064 49.8738C137.6 50.549 141.33 54.2115 142.873 55.7186Z" fill="#DDB08E"/>
<path d="M135.504 47.6992C135.504 47.6992 137.272 48.7378 137.726 49.7721L136.722 51.7683C136.722 51.7683 135.102 50.8043 134.414 49.8683L135.504 47.6992Z" fill="#C94C43"/>
<path d="M136.548 51.8469C136.821 51.6996 137.064 51.4782 137.261 51.1985C137.529 50.7781 137.892 50.1004 137.444 50.2712C136.995 50.4419 136.196 51.1498 135.896 51.2158C135.596 51.2817 135.703 51.5757 135.682 51.66C135.66 51.7443 136.548 51.8469 136.548 51.8469Z" fill="#FFB27D"/>
<path d="M98.6016 94.1478C98.8054 94.8921 99.0507 95.6174 99.3357 96.3183C101.249 93.7751 103.914 89.728 105.771 84.8555C108.977 76.4534 107.194 64.3066 107.194 64.3066C107.194 68.1279 105.772 71.6024 104.401 76.7688C103.042 81.892 98.6016 94.1478 98.6016 94.1478Z" fill="#233862"/>
<path d="M118.365 65.315C118.365 65.2357 118.346 65.1582 118.311 65.0923C118.276 65.0263 118.226 64.9749 118.168 64.9446C118.109 64.9142 118.045 64.9063 117.983 64.9218C117.921 64.9372 117.865 64.9754 117.82 65.0315C117.775 65.0876 117.745 65.159 117.733 65.2368C117.72 65.3146 117.727 65.3952 117.751 65.4685C117.775 65.5417 117.816 65.6044 117.868 65.6484C117.921 65.6925 117.982 65.716 118.046 65.716C118.13 65.716 118.211 65.6738 118.271 65.5986C118.331 65.5234 118.365 65.4214 118.365 65.315Z" fill="#233862"/>
<path d="M118.365 72.6002C118.365 72.5209 118.346 72.4434 118.311 72.3774C118.276 72.3115 118.226 72.2601 118.168 72.2297C118.109 72.1994 118.045 72.1915 117.983 72.2069C117.921 72.2224 117.865 72.2606 117.82 72.3167C117.775 72.3727 117.745 72.4442 117.733 72.522C117.72 72.5997 117.727 72.6804 117.751 72.7536C117.775 72.8269 117.816 72.8895 117.868 72.9336C117.921 72.9776 117.982 73.0012 118.046 73.0012C118.13 73.0012 118.211 72.9589 118.271 72.8837C118.331 72.8085 118.365 72.7065 118.365 72.6002Z" fill="#233862"/>
<path d="M123.757 67.6327C123.721 67.3568 123.685 67.0903 123.649 66.8332C124.093 68.9723 126.371 69.6757 127.305 69.2802C129.356 68.4159 130.07 66.4097 130.167 64.2889C129.946 64.4326 126.617 66.5717 125.068 65.3153C123.491 64.035 122.514 61.1374 122.484 61.0488L123.757 67.6327Z" fill="#233862"/>
<path d="M190.833 28.5257C190.833 28.5257 189.896 29.412 188.816 29.3374C188.013 29.2834 187.192 28.4004 187.159 28.3398L186.57 29.7675C186.57 29.7675 188.067 30.7921 189.303 30.416C189.682 30.3004 190.284 29.787 190.552 29.4131C190.727 29.1694 190.827 28.8544 190.833 28.5257Z" fill="#6BB7BF"/>
<path d="M190.704 25.6333L192.272 24.707C192.272 24.707 192.207 28.8972 189.508 30.3346C189.51 30.3346 191.139 27.3733 190.704 25.6333Z" fill="#86D1CD"/>
<path d="M24.5403 66.6399C24.5403 66.6399 23.6039 67.5261 22.523 67.4526C21.7207 67.3975 20.8995 66.5145 20.8668 66.4551L20.2812 67.8828C20.2812 67.8828 21.7783 68.9074 23.014 68.5313C23.3932 68.4156 23.9952 67.9022 24.2626 67.5283C24.4372 67.2838 24.5358 66.9684 24.5403 66.6399Z" fill="#6BB7BF"/>
<path d="M24.4071 63.7455L25.9755 62.8203C25.9755 62.8203 25.9102 67.0105 23.2109 68.4468C23.2109 68.4468 24.8404 65.4866 24.4071 63.7455Z" fill="#86D1CD"/>
<path d="M150.676 1.27332C150.676 1.27332 152.955 -0.717461 154.666 2.24602L156.545 1.23009C156.545 1.23009 155.617 -0.607223 151.975 0.205519C149.591 0.744826 150.676 1.27332 150.676 1.27332Z" fill="#5685D8"/>
<path d="M148.43 3.21855C148.43 3.21855 149.05 0 153.724 0C153.724 0 151.973 0.208592 150.604 3.06616L148.43 3.21855Z" fill="#739AF0"/>
<path d="M135.733 14.2011C135.733 14.2011 134.474 13.2014 134.342 11.9941C134.342 11.9941 133.116 12.0774 132.852 12.5767C132.852 12.5767 133.415 14.575 134.077 14.9544C134.077 14.9501 135.568 15.0754 135.733 14.2011Z" fill="#ED7D2B"/>
<path d="M219.164 98.3582C219.164 98.3582 217.905 97.3596 217.772 96.1523C217.772 96.1523 216.546 96.2356 216.281 96.7349C216.281 96.7349 216.844 98.7332 217.507 99.1126C217.507 99.1083 218.998 99.2326 219.164 98.3582Z" fill="#ED7D2B"/>
<path d="M13.7574 95.5644C13.7574 95.5644 12.4985 94.5646 12.3661 93.3574C12.3661 93.3574 11.1398 93.4406 10.875 93.94C10.875 93.94 11.4382 95.9383 12.1004 96.3177C12.1004 96.3133 13.5914 96.4387 13.7574 95.5644Z" fill="#ED7D2B"/>
</g>
<defs>
<clipPath id="clip0_2812_64506">
<rect width="245" height="130" fill="white"/>
</clipPath>
</defs>
</svg>
