<svg width="157" height="142" viewBox="0 0 157 142" fill="none" xmlns="http://www.w3.org/2000/svg">
<g clip-path="url(#clip0_2812_64738)">
<path d="M108.443 122.633C108.496 122.684 108.556 122.728 108.622 122.764L108.664 122.787L108.707 122.808C108.709 122.808 108.712 122.808 108.714 122.808C108.762 122.829 108.812 122.848 108.863 122.863C108.904 122.877 108.947 122.889 108.989 122.898L109.037 122.909L109.1 122.921L109.166 122.931C109.194 122.936 109.223 122.941 109.253 122.943C109.282 122.945 109.335 122.951 109.378 122.954C109.403 122.954 109.428 122.954 109.454 122.959H109.536C109.562 122.959 109.59 122.959 109.618 122.959H109.7H109.787L109.875 122.954C109.926 122.954 109.978 122.948 110.031 122.944C110.054 122.944 110.078 122.944 110.101 122.937L110.17 122.93L110.256 122.92L110.352 122.907C110.547 122.88 110.758 122.842 110.983 122.792L111.087 122.768H111.096L111.194 122.745L111.276 122.724L111.435 122.682L111.528 122.657C111.57 122.645 111.61 122.633 111.656 122.62L111.792 122.581L111.928 122.539L111.998 122.517L112.115 122.48L112.284 122.423L112.425 122.375L112.507 122.347L112.659 122.292L112.736 122.264L112.878 122.21C112.886 122.207 112.895 122.204 112.903 122.201L113.115 122.119L113.131 122.112L113.213 122.08L113.295 122.047L113.524 121.954L113.545 121.944L113.801 121.835L113.888 121.797C114.004 121.746 114.122 121.694 114.242 121.643L114.424 121.559L114.516 121.516L114.609 121.473C114.857 121.356 115.113 121.23 115.377 121.097C115.41 121.08 115.444 121.063 115.476 121.046L115.525 121.022L115.678 120.944C119.84 118.789 124.706 115.246 129.378 110.967C134.05 106.688 137.95 102.212 140.359 98.353C140.389 98.3058 140.418 98.2586 140.446 98.2122C140.989 97.3477 141.472 96.4512 141.893 95.5284C141.911 95.4882 141.928 95.451 141.945 95.4085C142.13 94.9823 142.277 94.5925 142.39 94.2375C142.398 94.2089 142.407 94.181 142.415 94.154C142.609 93.519 142.69 93 142.687 92.5901C142.687 92.5522 142.687 92.5127 142.683 92.4795C142.683 92.4331 142.678 92.3874 142.674 92.3441C142.659 92.1567 142.608 91.9733 142.524 91.8027L142.507 91.7718C142.49 91.7419 142.472 91.713 142.451 91.6852C142.426 91.651 142.399 91.6187 142.369 91.5885L142.329 91.5514C142.303 91.5296 142.276 91.5095 142.247 91.491C142.232 91.4817 142.217 91.4717 142.202 91.4632L142.171 91.4454C142.138 91.428 142.104 91.4122 142.069 91.3982C142.038 91.3851 142.005 91.3727 141.97 91.3611C141.934 91.3495 141.9 91.3402 141.862 91.3309C141.84 91.3255 141.817 91.3193 141.793 91.3147C141.769 91.31 141.728 91.3015 141.695 91.2961C141.603 91.2816 141.511 91.2716 141.418 91.266L141.273 91.2598H141.204H141.063L140.917 91.2667C140.824 91.2729 140.727 91.2814 140.627 91.293L140.506 91.3077C140.404 91.3216 140.299 91.3379 140.191 91.3572C140.104 91.3727 140.016 91.3897 139.927 91.4083L139.746 91.4485L139.653 91.4701C139.591 91.4848 139.527 91.5003 139.464 91.5173C139.147 91.5993 138.808 91.6999 138.464 91.8197C137.486 92.1642 136.534 92.5706 135.613 93.0363C135.02 93.3318 134.403 93.6621 133.768 94.0233C133.641 94.0954 133.514 94.1689 133.386 94.2437C133.258 94.3185 133.13 94.3943 133.001 94.4711C132.957 94.4966 132.914 94.5221 132.871 94.5484C132.518 94.7603 132.161 94.9805 131.8 95.2089L131.436 95.441L131.397 95.4657C131.178 95.6065 130.959 95.7501 130.741 95.8965L130.321 96.1781C130.109 96.3214 129.898 96.4663 129.687 96.6127L129.476 96.7612C129.334 96.8602 129.192 96.9605 129.05 97.0621L128.982 97.11C128.801 97.2392 128.62 97.3707 128.437 97.5037C128.24 97.6476 128.041 97.7938 127.842 97.9423C127.661 98.0776 127.479 98.2137 127.297 98.3514C125.923 99.3956 124.538 100.522 123.172 101.707C122.978 101.875 122.784 102.044 122.591 102.215L122.302 102.471C122.013 102.729 121.725 102.988 121.439 103.25C120.676 103.946 119.928 104.657 119.203 105.371C118.93 105.64 118.66 105.908 118.396 106.176C118.13 106.445 117.867 106.715 117.608 106.984C116.049 108.6 114.62 110.224 113.367 111.797C113.066 112.174 112.776 112.548 112.497 112.918L112.408 113.037C112.286 113.201 112.166 113.362 112.048 113.524C111.901 113.725 111.758 113.925 111.618 114.123C111.534 114.242 111.452 114.36 111.372 114.478L111.208 114.71C111.155 114.787 111.103 114.864 111.052 114.942C111.047 114.947 111.043 114.953 111.04 114.959L110.898 115.172L110.77 115.369C110.738 115.417 110.707 115.466 110.676 115.514C110.628 115.591 110.579 115.665 110.533 115.74C110.486 115.815 110.438 115.89 110.392 115.964L110.324 116.075C110.277 116.152 110.232 116.226 110.187 116.3L110.125 116.404L110.061 116.513C110.039 116.55 110.017 116.585 109.997 116.622L109.935 116.73C109.913 116.765 109.893 116.802 109.872 116.837L109.752 117.05C109.693 117.156 109.635 117.26 109.578 117.365L109.469 117.572C109.451 117.606 109.432 117.64 109.415 117.675C109.361 117.778 109.309 117.879 109.26 117.979C109.244 118.012 109.227 118.045 109.211 118.079C109.178 118.145 109.145 118.211 109.115 118.277C109.085 118.344 109.053 118.409 109.022 118.473L108.971 118.587C108.944 118.646 108.918 118.704 108.893 118.762C108.867 118.82 108.839 118.889 108.811 118.951C108.674 119.276 108.557 119.587 108.46 119.885C108.441 119.944 108.423 120.002 108.405 120.061C108.396 120.09 108.387 120.118 108.379 120.148C108.363 120.204 108.347 120.261 108.332 120.317C108.309 120.401 108.288 120.484 108.269 120.565C108.232 120.727 108.202 120.882 108.179 121.029C108.168 121.106 108.158 121.175 108.152 121.245C108.147 121.292 108.143 121.338 108.14 121.383C108.136 121.428 108.135 121.473 108.133 121.516C108.133 121.538 108.133 121.559 108.133 121.581C108.132 121.691 108.137 121.8 108.149 121.91C108.149 121.925 108.149 121.94 108.155 121.954C108.16 121.985 108.164 122.014 108.169 122.042C108.169 122.056 108.175 122.07 108.177 122.084C108.186 122.12 108.195 122.156 108.204 122.19C108.23 122.284 108.269 122.375 108.32 122.461C108.353 122.523 108.394 122.581 108.443 122.633Z" fill="#3D2886"/>
<path d="M60.06 57.8052C60.8648 57.6312 61.5186 57.4734 62.1716 57.3342C62.8246 57.1949 63.4785 57.0898 64.2792 57.1795C65.3784 55.9791 65.9478 54.3062 65.9453 52.3161C64.0886 51.8851 62.1666 51.7618 60.2651 51.9518C59.7688 53.692 59.5621 55.6767 60.06 57.8052Z" fill="#FBC83A"/>
<path d="M82.7519 11.924C83.3573 8.88899 85.4017 6.91053 88.3984 7.32664C88.0055 5.44332 87.0038 3.07815 85.3877 0.535864C82.6354 0.298418 80.413 1.25516 78.9421 2.95672C80.6255 6.07213 81.9102 9.10323 82.7519 11.924Z" fill="#8F72FC"/>
<path d="M117.183 90.8441C118.142 91.797 118.132 93.8551 116.816 96.4043C117.705 96.327 119.02 95.7856 120.638 94.7383C121.786 92.377 122.269 90.3081 122.166 88.7891C120.297 89.8162 118.613 90.5084 117.183 90.8441Z" fill="#1A84EF"/>
<path d="M90.2891 56.6303C89.5677 57.9322 88.5187 59.0476 87.234 59.8787C86.8747 58.9088 86.7361 57.7394 86.8107 56.4756C87.5958 55.9752 88.1643 55.334 88.4342 54.832C88.7386 55.8646 89.3801 56.5452 90.2891 56.6303Z" fill="#8F72FC"/>
<path d="M111.414 86.2846C110.692 87.5863 109.643 88.7016 108.359 89.533C108 88.5623 107.861 87.3929 107.935 86.1299C108.72 85.6302 109.289 84.9883 109.559 84.4863C109.863 85.5181 110.504 86.1995 111.414 86.2846Z" fill="#1A84EF"/>
<path d="M85.9609 118.719C85.2392 120.021 84.1903 121.136 82.9059 121.968C82.5458 120.997 82.408 119.828 82.4818 118.565C83.2669 118.065 83.8354 117.423 84.1061 116.922C84.4096 117.954 85.0512 118.635 85.9609 118.719Z" fill="#FB3357"/>
<path d="M61.769 93.4688C62.0971 93.8841 62.3539 94.2314 62.6205 94.567C62.8871 94.9027 63.1718 95.2167 63.6328 95.465C63.591 96.6251 63.0339 97.8812 62.02 99.1133C60.8479 98.6778 59.7845 98.0179 58.8969 97.1751C59.5269 95.9066 60.4293 94.5987 61.769 93.4688Z" fill="#1A84EF"/>
<path d="M2.87052 84.2969C3.19866 84.7114 3.45543 85.0587 3.72205 85.3944C3.98867 85.7301 4.27333 86.0441 4.73438 86.2923C4.69254 87.4525 4.13551 88.7093 3.12155 89.9414C1.94967 89.5057 0.886269 88.8457 -0.00156879 88.0032C0.628469 86.7348 1.53087 85.4261 2.87052 84.2969Z" fill="#FB3357"/>
<path d="M24.6243 97.502C25.4365 98.5786 26.5669 99.0945 27.2109 99.2113C26.9237 100.016 26.5475 100.791 26.0887 101.522C25.1649 101.797 23.9844 101.961 22.6513 101.953C22.1624 100.327 23.0106 98.6915 24.6243 97.502Z" fill="#FBC83A"/>
<path d="M55.0392 71.0547C55.8505 72.1306 56.9818 72.6472 57.625 72.7632C57.3383 73.5683 56.9624 74.3427 56.5035 75.0735C55.579 75.3489 54.3993 75.5136 53.0654 75.5059C52.5772 73.8793 53.4255 72.245 55.0392 71.0547Z" fill="#FB3357"/>
<path d="M99.6205 52.8184C100.175 54.4867 101.326 55.6089 102.32 56.1441C101.16 58.6539 99.326 61.2264 96.8723 63.7919C93.5351 62.4384 91.9501 60.2024 91.8476 57.8364C94.0798 56.0467 96.7 54.3598 99.6205 52.8184Z" fill="#8F72FC"/>
<path d="M118.87 10.0234C119.425 11.6917 120.576 12.814 121.57 13.3492C120.41 15.859 118.576 18.4315 116.123 20.997C112.785 19.6427 111.201 17.4074 111.098 15.0415C113.33 13.2518 115.95 11.5649 118.87 10.0234Z" fill="#FB3357"/>
<path d="M53.7445 82.1236C53.5632 84.0162 54.2072 85.6559 54.6797 87.2028C51.7453 87.7658 48.9298 87.8215 46.23 87.7349C46.4867 85.6868 47.1258 83.4168 48.655 81.2109C50.3185 81.6604 52.0221 81.9659 53.7445 82.1236Z" fill="#1A84EF"/>
<path d="M50.4476 22.1412C50.2663 24.0338 50.9111 25.6735 51.3828 27.2203C48.4484 27.7834 45.6337 27.8391 42.9331 27.7525C43.1907 25.7044 43.8297 23.4344 45.3589 21.2285C47.0222 21.678 48.7255 21.9835 50.4476 22.1412Z" fill="#1A84EF"/>
<path d="M3.4135 36.3646C4.20843 35.2941 5.36349 34.6754 6.375 34.0388C4.93034 32.6095 3.31587 31.4935 1.69894 30.498C0.87858 31.6806 0.167331 33.1277 0.0106416 34.8842C1.18778 35.2849 2.32624 35.7802 3.4135 36.3646Z" fill="#8F72FC"/>
<path d="M113.568 80.5145C116.703 81.0451 119.003 82.3367 120.049 83.343C121.211 81.5362 123.182 80.3343 125.836 80.0713C124.852 78.0078 122.929 75.6102 120.129 73.3672C116.272 74.4307 114.05 77.2096 113.568 80.5145Z" fill="#FBC83A"/>
<path d="M20.6784 43.5692C23.813 44.0998 26.1133 45.3914 27.1593 46.3969C28.3209 44.5909 30.2923 43.3882 32.9453 43.1253C31.9609 41.0617 30.0396 38.6641 27.2381 36.4219C23.3824 37.4846 21.16 40.2643 20.6784 43.5692Z" fill="#FBC83A"/>
<path d="M107.428 123.086L107.41 123.061C107.394 123.037 107.378 123.013 107.364 122.988C107.299 122.817 107.243 122.644 107.195 122.468C107.186 122.44 107.179 122.41 107.172 122.381C107.157 122.323 107.143 122.263 107.13 122.205C107.11 122.116 107.094 122.028 107.078 121.94C107.073 121.911 107.068 121.88 107.064 121.851C107.051 121.762 107.04 121.673 107.031 121.585C107.031 121.572 107.031 121.559 107.031 121.546C107.031 121.532 107.031 121.519 107.031 121.507C107.031 121.494 107.031 121.494 107.031 121.487C107.031 121.48 107.031 121.462 107.031 121.45C107.031 121.437 107.031 121.434 107.031 121.427C107.031 121.401 107.031 121.374 107.035 121.35C107.04 121.326 107.035 121.295 107.041 121.268L107.048 121.186C107.048 121.152 107.055 121.119 107.059 121.084C107.059 121.068 107.059 121.051 107.065 121.035C107.069 121.001 107.074 120.966 107.079 120.931C107.079 120.911 107.085 120.891 107.088 120.871C107.091 120.851 107.088 120.853 107.088 120.844L107.095 120.801C107.095 120.798 107.095 120.795 107.095 120.791C107.099 120.763 107.104 120.735 107.11 120.707C107.11 120.694 107.114 120.681 107.117 120.668L107.129 120.603C107.129 120.596 107.133 120.586 107.134 120.579C107.134 120.573 107.134 120.568 107.134 120.562C107.139 120.539 107.144 120.513 107.149 120.485L107.167 120.408C107.167 120.408 107.167 120.401 107.167 120.396L107.172 120.374C107.178 120.349 107.183 120.324 107.19 120.296C107.196 120.269 107.204 120.238 107.211 120.207C107.216 120.191 107.22 120.175 107.224 120.158L107.236 120.113C107.245 120.081 107.254 120.049 107.263 120.017C107.277 119.965 107.292 119.912 107.308 119.863C107.308 119.851 107.314 119.839 107.318 119.827C107.333 119.778 107.348 119.731 107.363 119.682V119.677C107.386 119.6 107.41 119.528 107.436 119.453C107.445 119.428 107.454 119.403 107.462 119.375C107.468 119.358 107.474 119.342 107.48 119.325C107.51 119.24 107.542 119.154 107.574 119.066C107.582 119.049 107.588 119.031 107.595 119.013C107.608 118.978 107.622 118.944 107.636 118.908C107.678 118.802 107.718 118.695 107.767 118.586C109.527 114.41 114.237 108.391 120.647 102.524C127.056 96.6563 133.583 92.3916 138.062 90.8617C138.295 90.7844 138.521 90.707 138.743 90.6451L138.963 90.5825L139.14 90.5353L139.345 90.4843L139.39 90.4734C139.73 90.3912 140.076 90.3284 140.424 90.2855L140.498 90.2762L140.57 90.2685L140.661 90.2607L140.752 90.253L140.841 90.2476L140.928 90.2422H141.015H141.097H141.261C141.482 90.2682 141.701 90.3053 141.917 90.3536L142.1 90.3976C142.316 90.453 142.528 90.5191 142.737 90.5956C142.876 90.6757 143.003 90.7718 143.117 90.8818C144.461 92.1874 143.575 95.2865 141.066 99.2079C138.692 102.92 134.868 107.362 130.104 111.722C125.34 116.082 120.512 119.555 116.508 121.681C114.667 122.659 112.999 123.352 111.593 123.715C111.096 123.792 110.618 123.882 110.157 123.979C109.035 124.088 108.167 123.894 107.622 123.365C107.548 123.278 107.484 123.185 107.428 123.086ZM108.62 122.764C108.634 122.772 108.647 122.78 108.662 122.787L108.706 122.808C108.708 122.808 108.71 122.808 108.712 122.808C108.761 122.829 108.811 122.848 108.862 122.863C108.903 122.877 108.945 122.889 108.988 122.898L109.035 122.909L109.099 122.921C109.12 122.925 109.142 122.929 109.164 122.932C109.186 122.934 109.222 122.941 109.251 122.943C109.281 122.945 109.333 122.952 109.377 122.955C109.401 122.955 109.427 122.955 109.452 122.959H109.534C109.561 122.959 109.588 122.959 109.616 122.959H109.698H109.785L109.874 122.955C109.924 122.955 109.976 122.949 110.03 122.944C110.053 122.944 110.077 122.944 110.099 122.937L110.168 122.93L110.255 122.92L110.351 122.908C110.546 122.88 110.757 122.843 110.981 122.792L111.086 122.768H111.095L111.192 122.745L111.274 122.724L111.433 122.682L111.526 122.657C111.569 122.645 111.608 122.634 111.654 122.621L111.79 122.581L111.926 122.539L111.996 122.517L112.113 122.48L112.282 122.423L112.424 122.375L112.506 122.347L112.657 122.292L112.734 122.264L112.876 122.211C112.885 122.207 112.893 122.204 112.902 122.201L113.113 122.119L113.129 122.112L113.211 122.081L113.293 122.047L113.522 121.954L113.543 121.945L113.799 121.836L113.886 121.798C114.003 121.746 114.121 121.695 114.241 121.643L114.423 121.559L114.515 121.516L114.607 121.473C114.856 121.356 115.112 121.23 115.375 121.097C115.409 121.08 115.443 121.064 115.474 121.047L115.524 121.022L115.676 120.945C119.838 118.789 124.704 115.247 129.376 110.967C134.048 106.688 137.948 102.212 140.358 98.3532C140.387 98.3061 140.417 98.2589 140.445 98.2125C140.987 97.3479 141.47 96.4515 141.891 95.5286C141.909 95.4884 141.926 95.4513 141.943 95.4087C142.129 94.9826 142.276 94.5928 142.388 94.2378C142.396 94.2091 142.405 94.1813 142.414 94.1542C142.607 93.5192 142.688 93.0003 142.686 92.5903C142.686 92.5524 142.686 92.513 142.682 92.4797C142.682 92.4333 142.676 92.3877 142.672 92.3444C142.657 92.1569 142.606 91.9736 142.523 91.803L142.505 91.772C142.489 91.7422 142.47 91.7132 142.45 91.6854C142.425 91.651 142.398 91.6186 142.368 91.5887C142.354 91.5756 142.341 91.5632 142.327 91.5516C142.301 91.5299 142.273 91.5097 142.245 91.4913C142.23 91.4809 142.215 91.4714 142.199 91.4627L142.168 91.4457C142.135 91.4282 142.101 91.4125 142.067 91.3985C142.035 91.3853 142.003 91.373 141.967 91.3613C141.932 91.3497 141.898 91.3405 141.86 91.3312C141.838 91.3258 141.815 91.3196 141.791 91.3149C141.767 91.3103 141.726 91.3018 141.692 91.2964C141.601 91.2819 141.509 91.2718 141.416 91.2662L141.271 91.26H141.202H141.061L140.915 91.267C140.821 91.2732 140.724 91.2817 140.624 91.2933L140.504 91.308C140.401 91.3219 140.297 91.3381 140.189 91.3575C140.102 91.3729 140.014 91.39 139.925 91.4085L139.743 91.4487L139.651 91.4704C139.588 91.4851 139.525 91.5006 139.462 91.5176C139.144 91.5996 138.806 91.7001 138.462 91.82C137.484 92.1644 136.531 92.5709 135.611 93.0366C135.017 93.3321 134.4 93.6623 133.765 94.0235C133.639 94.0957 133.512 94.1692 133.384 94.244C133.256 94.3187 133.127 94.3945 132.998 94.4713C132.955 94.4969 132.911 94.5224 132.869 94.5487C132.516 94.7606 132.159 94.9808 131.797 95.2092L131.434 95.4412L131.394 95.466C131.176 95.6067 130.957 95.7504 130.738 95.8968C130.599 95.9896 130.458 96.0832 130.319 96.1783C130.108 96.3217 129.897 96.4666 129.686 96.613L129.474 96.7615C129.332 96.8605 129.19 96.9608 129.048 97.0624L128.981 97.1103C128.799 97.2392 128.618 97.3704 128.435 97.504C128.238 97.6478 128.04 97.794 127.841 97.9425C127.659 98.0771 127.477 98.214 127.296 98.3517C125.922 99.3958 124.536 100.522 123.17 101.707C122.977 101.875 122.782 102.044 122.589 102.215L122.301 102.471C122.011 102.729 121.723 102.989 121.437 103.251C120.671 103.949 119.926 104.656 119.201 105.371C118.928 105.639 118.659 105.907 118.394 106.177C118.128 106.446 117.866 106.715 117.607 106.984C116.048 108.601 114.618 110.224 113.365 111.797C113.064 112.175 112.774 112.548 112.496 112.918L112.406 113.038C112.284 113.201 112.164 113.363 112.046 113.524C111.9 113.725 111.756 113.925 111.616 114.123C111.533 114.242 111.451 114.36 111.37 114.478L111.206 114.71C111.153 114.787 111.101 114.865 111.05 114.942C111.045 114.947 111.041 114.953 111.038 114.96L110.897 115.172L110.768 115.369C110.736 115.418 110.706 115.466 110.675 115.514C110.625 115.592 110.578 115.665 110.531 115.74C110.484 115.815 110.437 115.89 110.391 115.964L110.323 116.075C110.276 116.152 110.231 116.226 110.186 116.3L110.123 116.404L110.059 116.514C110.037 116.55 110.016 116.585 109.995 116.622L109.933 116.73C109.912 116.766 109.891 116.802 109.871 116.838C109.83 116.908 109.789 116.979 109.751 117.05C109.691 117.156 109.634 117.261 109.577 117.365L109.467 117.572C109.449 117.606 109.431 117.64 109.414 117.675C109.359 117.778 109.307 117.88 109.259 117.979C109.241 118.013 109.225 118.046 109.209 118.079C109.177 118.145 109.144 118.211 109.113 118.278C109.083 118.344 109.051 118.408 109.021 118.473L108.969 118.587C108.943 118.646 108.917 118.704 108.891 118.762C108.866 118.82 108.837 118.889 108.809 118.951C108.672 119.276 108.556 119.587 108.459 119.885C108.44 119.945 108.422 120.003 108.404 120.061C108.395 120.09 108.386 120.119 108.378 120.148C108.361 120.204 108.346 120.262 108.33 120.317C108.308 120.402 108.286 120.484 108.268 120.565C108.23 120.726 108.2 120.881 108.177 121.029C108.167 121.106 108.157 121.175 108.15 121.245C108.145 121.292 108.141 121.338 108.138 121.383C108.135 121.428 108.133 121.473 108.131 121.516C108.131 121.538 108.131 121.559 108.131 121.581C108.13 121.691 108.135 121.801 108.148 121.91C108.148 121.925 108.148 121.94 108.154 121.955C108.158 121.985 108.163 122.014 108.168 122.042C108.168 122.056 108.173 122.07 108.176 122.084C108.184 122.12 108.192 122.156 108.202 122.19C108.228 122.285 108.267 122.376 108.318 122.461C108.353 122.52 108.396 122.574 108.446 122.623C108.497 122.677 108.557 122.725 108.622 122.764H108.62Z" fill="#A497FC"/>
<path d="M47.346 110.592C47.3575 110.592 47.8973 110.675 47.9104 110.587C47.9924 110.041 48.1132 109.501 48.2722 108.97C48.5585 107.98 48.9986 107.035 49.5782 106.167C50.1221 105.37 50.8399 104.595 51.7563 104.171H51.7604L51.7989 104.156C52.0803 104.638 52.228 105.186 52.3609 105.717C52.479 106.193 52.5397 106.679 52.607 107.162C52.7284 107.995 52.8744 108.852 53.4323 109.535C53.799 109.984 54.3347 110.231 54.8884 110.431C55.7817 110.744 56.7035 110.98 57.6423 111.134C58.1941 111.243 58.7575 111.289 59.3208 111.273C60.5046 111.219 61.5801 110.667 62.4702 109.963C63.0641 109.494 63.6359 108.971 64.293 108.577C64.4317 108.902 64.5326 109.244 64.6573 109.576C64.85 110.091 65.1339 110.623 65.6417 110.919C65.9443 111.087 66.2656 111.223 66.5999 111.324C67.2008 111.518 67.8133 111.679 68.4342 111.805C69.1028 111.943 69.8042 112.076 70.4925 112.008C71.1283 111.944 71.737 111.677 72.3063 111.417C72.892 111.15 73.4548 110.846 74.0471 110.584C75.404 109.99 76.7765 109.424 78.1399 108.846C78.2351 108.833 78.2441 108.8 78.167 108.747L77.9972 108.659C77.669 108.5 77.2957 108.413 76.9438 108.315C76.4849 108.19 76.0194 108.086 75.5492 108.006C75.378 107.972 75.2049 107.948 75.0307 107.933C74.9185 107.916 74.8045 107.912 74.6911 107.919L71.4589 109.291C70.9519 109.506 70.4433 109.717 69.9478 109.956C69.4892 110.178 69.0372 110.41 68.572 110.617H68.5663C68.499 110.646 68.4309 110.675 68.3628 110.703C68.0946 110.097 67.9756 109.424 67.5835 108.868C67.3247 108.498 66.9528 108.21 66.517 108.043C65.7599 107.75 64.9752 107.526 64.1732 107.372C63.6883 107.261 63.1944 107.187 62.6966 107.152C61.9771 107.119 61.3405 107.328 60.7359 107.686C59.5989 108.359 58.7449 109.387 57.525 109.94C57.3092 110.034 57.0869 110.113 56.8597 110.178C56.3011 109.363 56.2518 108.315 56.1066 107.383C56.0259 106.855 55.9028 106.335 55.7383 105.825C55.5381 105.213 55.2248 104.594 54.6661 104.201C54.1074 103.808 53.4109 103.626 52.7678 103.45C52.0859 103.262 51.3922 103.115 50.6906 103.009C50.4605 102.972 50.2281 102.95 49.9949 102.942C49.2861 102.916 48.5832 103.074 47.9629 103.399C46.8283 103.993 46.0113 105.1 45.4452 106.171C44.8626 107.291 44.4748 108.492 44.2967 109.728C44.2803 109.839 44.7069 109.955 44.7889 109.987C45.2006 110.13 45.6211 110.25 46.0482 110.346C46.475 110.453 46.9084 110.535 47.346 110.592Z" fill="#8F72FC"/>
<path d="M140.085 98.6114C139.957 98.5082 139.829 98.4066 139.701 98.3066C139.446 98.1047 139.188 97.9052 138.931 97.7057C137.856 96.8846 136.834 96.0036 135.87 95.0675C134.695 93.9073 133.532 92.6412 132.713 91.2235C132.155 90.2559 131.801 89.2272 131.785 88.1204C131.774 87.1925 132.008 86.2765 132.464 85.4544C133.367 83.8155 134.941 82.6074 136.379 81.4008C137.199 80.7117 138.02 80.0086 138.718 79.2043C139.402 78.4138 140.03 77.495 140.026 76.4408C140.014 76.2264 139.977 76.014 139.916 75.8073C139.469 75.5521 139 75.3309 138.531 75.1112C137.557 74.6603 136.586 74.2048 135.75 73.5419C134.88 72.8378 134.096 72.0451 133.412 71.1783C133.016 70.6856 132.641 70.1643 132.418 69.5788C131.476 67.1038 134.05 65.2035 135.557 63.546C135.993 63.068 136.412 62.5599 136.691 61.9845C137.09 61.1597 137.289 60.2613 137.274 59.3548C137.266 59.1965 137.252 59.0389 137.23 58.8822L137.197 58.8992C136.56 59.2248 135.866 59.5009 135.141 59.5852C134.797 59.6255 134.412 59.6216 134.094 59.4708C133.838 59.3494 133.623 59.1475 133.42 58.9611C132.84 58.441 132.318 57.8664 131.861 57.2464C131.651 56.9548 131.451 56.6593 131.524 56.2943C131.59 56.031 131.754 55.7989 131.987 55.6407C132.487 55.2764 133.194 55.2006 133.804 55.2834C134.455 55.3716 135.022 55.6245 135.559 55.9795L135.641 56.0336C135.723 55.9834 135.801 55.9331 135.879 55.8789C136.815 55.2679 137.755 54.387 137.802 53.2554C137.628 53.2071 137.452 53.1676 137.274 53.1371C136.247 52.9878 135.211 53.1162 134.19 53.2539C134.058 53.2717 133.814 53.0219 133.756 52.9762C133.455 52.7145 133.171 52.4361 132.905 52.1425C132.632 51.8551 132.377 51.5524 132.143 51.236C132.116 51.1989 131.847 50.8005 131.911 50.792C133.349 50.5979 134.954 50.3984 136.3 51.0504C136.709 51.2593 137.086 51.5194 137.421 51.8238C138.18 52.4852 138.858 53.2246 139.443 54.0281C139.904 54.667 140.206 55.3662 140.017 56.145C139.779 57.1141 138.962 57.8466 138.079 58.4042C138.123 58.4576 138.167 58.5117 138.21 58.5659C138.713 59.1954 139.169 59.8621 139.383 60.6317C139.558 61.2922 139.599 61.9779 139.504 62.6527C139.357 63.7552 138.887 64.7971 138.145 65.6606C137.479 66.4495 136.705 67.1495 136.012 67.9167C135.372 68.6244 134.751 69.4234 134.555 70.3538C134.511 70.5621 134.491 70.7742 134.494 70.9865C134.509 71.2602 134.562 71.5309 134.651 71.7916C135.39 72.2333 136.222 72.5697 137.003 72.9518C137.537 73.206 138.049 73.4998 138.534 73.8304C139.1 74.239 139.623 74.6994 140.093 75.2048C140.734 75.8684 141.394 76.5761 141.848 77.3704C142.066 77.729 142.211 78.1223 142.277 78.5306C142.498 80.1502 141.218 81.54 140.089 82.6097C138.872 83.7614 137.492 84.7506 136.305 85.9308C135.674 86.5589 135.095 87.2457 134.686 88.0191C134.26 88.8274 134.046 89.7202 134.062 90.6225C134.083 91.1209 134.17 91.6148 134.324 92.092C134.4 92.3255 134.489 92.5548 134.592 92.7789C134.634 92.8709 134.674 92.9614 134.724 93.0511C134.724 93.0511 134.791 93.171 134.79 93.1702C134.829 93.2398 134.872 93.3087 134.911 93.3767C134.968 93.4703 135.03 93.625 135.115 93.6962L135.044 93.5941C135.071 93.6327 135.098 93.6714 135.126 93.7085L135.208 93.8214L135.271 93.9042L135.276 93.9119L135.272 93.905C135.313 93.9452 135.362 93.9916 135.372 94.0009L135.422 94.0481C135.474 94.0983 135.529 94.1463 135.581 94.1973L135.467 94.086C135.506 94.1239 135.569 94.1834 135.598 94.2097C135.788 94.3783 135.981 94.5438 136.172 94.7063C136.213 94.7395 136.254 94.7743 136.293 94.8068L136.329 94.8347C136.441 94.9244 136.552 95.0133 136.665 95.1015C137.153 95.4882 137.645 95.861 138.13 96.2469C139.387 97.2342 140.56 98.3143 141.636 99.4768C142.798 100.751 143.933 102.145 144.437 103.785C144.494 103.969 144.226 103.762 144.212 103.752C143.942 103.545 143.693 103.317 143.466 103.069C143.166 102.759 142.871 102.443 142.605 102.107C142.454 101.916 142.239 101.7 142.168 101.47C142.002 100.913 141.756 100.379 141.438 99.8837L141.356 99.7568C141.348 99.7468 141.339 99.7336 141.326 99.7166C141.301 99.6833 141.271 99.6478 141.244 99.6122L141.234 99.5959L141.226 99.5882C141.222 99.584 141.219 99.5796 141.217 99.5751L141.229 99.5882L141.225 99.582C141.218 99.5735 141.217 99.572 141.221 99.5758L141.208 99.5619L141.192 99.5449C141.127 99.4768 141.08 99.4312 141.214 99.5735L141.22 99.5836L141.164 99.5302C141.139 99.507 140.936 99.3307 141.113 99.4815C141.289 99.6323 141.085 99.4559 141.059 99.4335C140.813 99.2162 140.567 99.005 140.321 98.797L140.275 98.7583C140.213 98.7127 140.149 98.6624 140.085 98.6114ZM137.561 52.349C137.566 52.3559 137.571 52.3621 137.575 52.3691C137.57 52.3575 137.564 52.349 137.561 52.349ZM134.948 72.4135C134.942 72.4027 134.934 72.3926 134.927 72.3818C134.92 72.3709 134.887 72.3315 134.852 72.2882C134.879 72.3336 134.911 72.3757 134.948 72.4135ZM140.562 76.2304L140.619 76.2768C140.608 76.2667 140.597 76.2572 140.586 76.2482L140.562 76.2304ZM140.552 76.2188C140.553 76.221 140.555 76.223 140.556 76.225L140.552 76.2188ZM140.624 76.283C140.601 76.2665 140.58 76.2481 140.56 76.2281C140.626 76.3402 140.67 76.3333 140.624 76.283ZM135.303 93.9553L135.297 93.9475C135.308 93.9622 135.319 93.9777 135.331 93.9932L135.303 93.9553ZM141.323 99.6887L141.359 99.7274C141.346 99.7143 141.334 99.7011 141.322 99.6887H141.323ZM141.311 99.6779L141.289 99.6524L141.271 99.6354L141.311 99.6779ZM141.214 99.5704L141.205 99.5549L141.213 99.5681L141.214 99.5704Z" fill="#FB3357"/>
<path d="M135.275 93.9196V93.915C135.219 93.8376 135.147 93.734 135.28 93.915C135.367 93.9993 135.389 94.0217 135.381 94.014L135.281 93.9173L135.275 93.9196Z" fill="#1A84EF"/>
<path d="M141.258 99.6258C141.304 99.7023 141.326 99.7712 141.228 99.5898L141.24 99.6021L141.258 99.6258Z" fill="#1A84EF"/>
<path d="M141.214 99.5684H141.217L141.227 99.5831L141.219 99.5751C141.218 99.5727 141.216 99.5705 141.214 99.5684Z" fill="#1A84EF"/>
<path d="M12.1339 58.5268C12.2258 58.9243 12.444 59.2731 12.7016 59.5941C13.1336 60.1285 13.6291 60.6145 14.1783 61.0427C14.7861 61.5176 15.5187 61.7226 16.2374 61.315C16.8453 60.97 17.2316 60.3722 17.5106 59.7759C17.9207 58.8949 18.3506 57.7278 19.2686 57.2011C19.3018 57.1816 19.336 57.1638 19.3711 57.1477C19.2596 57.7719 18.9052 58.4053 18.6172 58.9266C18.2276 59.632 17.7796 60.3103 17.44 61.0397C17.1357 61.6948 16.8658 62.4558 17.0397 63.1759C17.1488 63.6276 17.4499 63.995 17.7649 64.336C18.2054 64.821 18.7304 65.3864 19.3318 65.7035C20.1005 66.1088 20.9725 65.7762 21.5927 65.2765C22.0111 64.9386 22.3441 64.5201 22.7486 64.169C23.087 63.8783 23.4636 63.6298 23.8692 63.4296C24.6846 63.0204 25.6781 62.6793 26.6043 62.5935C26.965 62.5597 27.3292 62.6017 27.6707 62.7165C27.7224 62.8538 27.7584 62.9958 27.7782 63.1403C27.8324 63.5618 27.7782 64.0073 27.7561 64.4296C27.6789 66.2085 27.6305 68.03 28.3582 69.7068C28.7684 70.6597 29.4419 71.4671 30.1933 72.2042C30.9112 72.9065 31.6995 73.5802 32.6692 73.9514C34.1737 74.5276 35.8432 74.3753 37.4273 74.4642C39.4782 74.5802 41.5176 74.9615 43.498 75.4697C47.2544 76.4349 50.8886 78.0112 54.0519 80.1598C55.6524 81.2426 56.8346 82.4724 58.1053 83.8452C59.5656 85.4238 61.0045 87.0256 62.6173 88.4727C65.6059 91.1596 69.1187 93.4126 73.0088 94.7646C76.5503 95.9967 80.3174 96.3966 84.0353 96.8699C84.1575 96.8862 84.055 96.7725 84.0238 96.7199C83.9098 96.5242 83.7219 96.3509 83.5636 96.1862C83.3544 95.9681 83.1337 95.7562 82.9073 95.5589C82.8384 95.5002 82.5792 95.2495 82.461 95.2318C81.5586 95.1165 80.6497 95.0059 79.744 94.8868C76.1032 94.4088 72.5059 93.7375 69.1745 92.2146C67.3778 91.3955 65.6756 90.4039 64.0948 89.2554C62.6132 88.1765 61.5197 87.1099 60.3269 85.8252C58.8502 84.2397 57.408 82.6317 55.8083 81.156C54.3241 79.7809 52.6827 78.5653 50.914 77.5317C47.6684 75.6403 44.1134 74.268 40.3929 73.4703C38.5572 73.0618 36.6825 72.8286 34.7972 72.7742C33.9933 72.7572 33.1819 72.758 32.3854 72.6366C31.6907 72.5251 31.0235 72.295 30.4165 71.9575C30.3175 71.8011 30.2282 71.6395 30.1491 71.4733C29.9779 71.1142 29.839 70.7422 29.7339 70.3611C29.5032 69.4919 29.3929 68.598 29.4058 67.702C29.4058 66.8095 29.5034 65.9177 29.4878 65.0267C29.4788 64.3484 29.1933 63.7676 28.761 63.237C28.1277 62.4581 27.2975 61.5872 26.3344 61.1626C25.6863 60.8772 25.007 60.8904 24.3269 61.0451C23.4114 61.2531 22.5041 61.5478 21.7133 62.0374C20.8732 62.5579 20.349 63.4118 19.4983 63.9107C19.2484 64.0605 18.9697 64.1625 18.6779 64.2107C18.7017 63.5758 19.0061 62.923 19.285 62.3738C19.6345 61.6924 20.0602 61.0489 20.4179 60.3706C20.7674 59.7078 21.1612 58.9282 21.0865 58.1694C21.0389 57.6945 20.7731 57.3186 20.4557 56.9629C20.0135 56.4632 19.5081 55.9265 18.9167 55.5792C18.4696 55.3178 17.9675 55.2946 17.522 55.5792C16.6287 56.1484 16.2218 57.2808 15.7993 58.1663C15.5261 58.7425 15.143 59.3265 14.5507 59.656C14.3189 59.7902 14.0553 59.8679 13.7837 59.8818C13.6032 58.4773 15.0626 57.3047 15.2841 55.9489C15.3005 55.8483 15.166 55.7169 15.1053 55.6449C14.9276 55.4322 14.7375 55.229 14.5359 55.0362C14.3409 54.8396 14.1335 54.6541 13.9149 54.4809C13.892 54.4647 13.604 54.2489 13.5974 54.2984C13.467 55.0935 13.0068 55.7385 12.6073 56.4307C12.2315 57.0797 11.9616 57.7858 12.1339 58.5268Z" fill="#FB3357"/>
<path d="M97.9473 39.5515C98.1319 40.0271 98.3797 40.4943 98.7677 40.8516C99.4166 41.4495 100.309 41.7287 101.182 41.8888C101.86 42.0125 102.552 42.0574 103.233 42.168C103.704 42.234 104.166 42.3452 104.613 42.4998C104.389 42.7544 104.15 42.9971 103.898 43.2268C103.463 43.6391 103.012 44.0397 102.624 44.493C102.264 44.8957 101.992 45.3614 101.824 45.8635C101.742 46.1437 101.706 46.4339 101.717 46.7243C101.732 47.4204 101.947 48.1382 102.154 48.8033C102.343 49.4081 102.554 50.1267 103.102 50.5428C103.409 50.767 103.762 50.9282 104.139 51.0161C104.897 51.2056 105.685 51.1932 106.461 51.2636C107.237 51.334 108.043 51.4957 108.707 51.8963C108.423 52.4617 107.983 52.9412 107.527 53.3906C107.159 53.7541 106.766 54.0867 106.368 54.4231C105.649 55.0256 104.887 55.6529 104.423 56.4619C104.194 56.84 104.064 57.2643 104.045 57.6994C104.033 58.2137 104.138 58.725 104.261 59.2231C104.431 59.9107 104.632 60.6037 104.943 61.2479C105.793 63.0114 108.176 63.3733 109.993 62.9704C110.075 62.9518 110.002 62.6038 109.993 62.5442C109.939 62.216 109.865 61.891 109.77 61.5712C109.685 61.249 109.58 60.9318 109.455 60.6214C109.45 60.6075 109.309 60.2347 109.231 60.251C107.918 60.5418 106.337 60.4497 105.206 59.698C105.139 59.6508 105.075 59.6005 105.012 59.5487C105.037 59.4827 105.064 59.4177 105.094 59.3538C105.582 58.3793 106.513 57.6638 107.348 56.9615C108.183 56.2593 109.078 55.4758 109.532 54.4865C109.942 53.5886 109.696 52.6009 109.445 51.6929C109.218 50.8785 108.971 49.9209 108.234 49.3726C107.409 48.7538 106.329 48.5806 105.307 48.5218C104.478 48.4731 103.546 48.463 102.787 48.0995C103.361 46.9641 104.487 46.2293 105.322 45.2842C105.669 44.8913 105.956 44.4218 105.961 43.8982C105.968 43.2655 105.787 42.629 105.607 42.0257C105.464 41.5431 105.316 41.038 105.033 40.6087C104.641 40.0163 103.849 39.751 103.167 39.5901C101.595 39.2204 99.8038 39.3674 98.4223 38.4563C98.3027 38.3727 98.19 38.2806 98.0852 38.1809C98.1363 37.9565 98.2113 37.7376 98.3091 37.5274C98.5677 37.0028 98.967 36.551 99.4675 36.2164C99.5585 36.1553 99.4806 35.8776 99.4675 35.7895C99.4135 35.4613 99.339 35.1364 99.2443 34.8165C99.1599 34.4949 99.0547 34.1785 98.9293 33.869C98.9129 33.8272 98.7595 33.463 98.7062 33.4985C98.2469 33.8091 97.8709 34.2166 97.6083 34.6885C97.3456 35.1604 97.2036 35.6836 97.1934 36.2164C97.1957 36.6295 97.2413 37.0415 97.3296 37.4462C97.4749 38.1625 97.6815 38.8666 97.9473 39.5515Z" fill="#1A84EF"/>
<path d="M130.056 106.77C129.324 106.305 128.512 105.919 127.617 105.815C126.118 105.64 124.602 106.13 123.232 106.762C122.166 107.254 121.165 107.864 120.115 108.376C119.405 108.721 118.649 109.061 117.871 109.268C117.926 108.707 118.013 108.149 118.132 107.596C118.323 106.619 118.542 105.641 118.624 104.657C118.698 103.771 118.652 102.866 118.36 102.035C118.194 101.581 117.953 101.154 117.645 100.772C116.922 99.8434 115.91 99.0901 114.954 98.3955C114.086 97.7644 113.073 97.0034 111.897 96.974C111.24 96.9704 110.589 97.096 109.987 97.3429C108.745 97.8232 107.667 98.6044 106.523 99.2633C105.378 99.9223 104.095 100.482 102.777 100.591C102.602 99.5534 102.732 98.4806 102.912 97.4334C103.058 96.5826 103.267 95.7535 103.486 94.9182C103.878 93.4076 104.307 91.8244 104.136 90.2837C104.054 89.5552 103.846 88.8521 103.422 88.2527C102.923 87.5489 102.265 86.9626 101.595 86.4104C100.67 85.6501 99.6971 84.9114 98.6208 84.3453C95.6732 82.7984 92.0095 84.6222 89.8971 86.9286C89.7978 87.0361 90.2515 87.4305 90.3228 87.5032C90.7261 87.8932 91.1552 88.2588 91.6075 88.5976C92.0483 88.9493 92.5125 89.2741 92.9972 89.5698C93.0177 89.5845 93.5871 89.9512 93.679 89.8514C95.2065 88.1838 97.4871 86.7746 99.8087 86.6896C99.9482 86.6896 100.088 86.6896 100.226 86.7019C100.258 86.8149 100.285 86.9286 100.308 87.0438C100.61 88.8281 100.038 90.6967 99.5847 92.4525C99.1319 94.2082 98.6823 96.134 99.04 97.9052C99.3682 99.5147 100.701 100.606 101.962 101.584C103.092 102.46 104.395 103.51 105.969 103.536C107.727 103.564 109.401 102.754 110.878 101.844C112.075 101.106 113.377 100.214 114.793 99.9656C115.14 102.049 114.312 104.135 114.103 106.219C114.017 107.084 114.09 107.998 114.608 108.705C115.232 109.564 116.122 110.245 116.976 110.884C117.658 111.395 118.37 111.931 119.191 112.235C120.326 112.653 121.69 112.242 122.795 111.795C125.344 110.767 127.676 108.833 130.507 108.717C130.755 108.714 131.004 108.728 131.25 108.76C131.405 109.114 131.521 109.482 131.595 109.858C131.76 110.829 131.66 111.824 131.305 112.748C131.239 112.918 131.626 113.217 131.731 113.323C132.134 113.713 132.563 114.078 133.015 114.417C133.456 114.768 133.919 115.093 134.403 115.389C134.468 115.429 135.046 115.771 135.084 115.67C135.746 113.949 135.506 111.986 134.454 110.542C134.038 109.988 133.562 109.478 133.033 109.018C132.111 108.189 131.115 107.437 130.056 106.77Z" fill="#FBC83A"/>
<path d="M116.776 122.016C115.353 121.295 113.819 120.79 112.23 120.52C111.787 120.443 111.342 120.383 110.894 120.34L110.965 120.347C110.097 120.264 109.224 120.24 108.353 120.276C107.436 120.315 106.523 120.416 105.622 120.58C104.661 120.754 103.715 120.998 102.793 121.307C102.334 121.462 101.881 121.629 101.44 121.824C101 122.019 100.562 122.241 100.132 122.467C99.2769 122.912 98.4287 123.377 97.5131 123.704C97.4016 123.744 97.2892 123.781 97.176 123.818C97.1505 123.821 97.1248 123.818 97.1006 123.81C97.0764 123.802 97.0542 123.789 97.0357 123.773C96.9408 123.723 96.8522 123.663 96.7715 123.595C96.4881 123.378 96.2188 123.146 95.9651 122.899C95.7028 122.658 95.4563 122.403 95.2268 122.135C95.1989 122.101 94.9306 121.771 94.993 121.748C96.3572 121.316 97.5607 120.558 98.8356 119.947C100.11 119.336 101.492 118.909 102.886 118.616C104.197 118.339 105.537 118.196 106.881 118.188C108.17 118.18 109.457 118.306 110.717 118.562C111.966 118.816 113.176 119.216 114.319 119.753C114.458 119.819 114.597 119.887 114.734 119.957C114.941 120.073 115.134 120.209 115.308 120.365C115.607 120.613 115.891 120.875 116.161 121.151C116.367 121.362 116.596 121.576 116.756 121.821L116.838 121.952C116.868 122.022 116.847 122.042 116.774 122.012L116.776 122.016Z" fill="#1A84EF"/>
<path d="M130.695 59.3394C129.046 57.0191 126.274 54.6006 122.772 52.8789C121.842 54.7901 121.486 57.098 121.68 59.5923C123.716 60.5901 125.191 61.8655 125.892 62.8601C126.678 60.8306 128.339 59.4941 130.695 59.3394Z" fill="#FB3357"/>
<path d="M108.623 124.922L108.651 124.949L108.705 125.001L108.762 125.052C108.799 125.086 108.837 125.119 108.877 125.152L108.905 125.176C108.949 125.213 108.994 125.253 109.041 125.286L109.169 125.381C109.19 125.395 109.212 125.412 109.234 125.426C109.365 125.518 109.502 125.603 109.644 125.681C110.253 126.005 110.859 126.323 111.464 126.636L111.505 126.657C112.52 127.181 113.53 127.689 114.535 128.18C115.332 128.57 116.125 128.951 116.914 129.321C117.297 129.501 117.68 129.678 118.062 129.853L118.189 129.911L118.687 130.137L118.989 130.273L119.188 130.362L119.373 130.446L119.455 130.481L119.508 130.505C119.672 130.582 119.836 130.652 120 130.724C120.164 130.795 120.305 130.858 120.458 130.925C120.799 131.074 121.139 131.221 121.478 131.366L121.874 131.535L122.464 131.784L122.48 131.791L122.497 131.798L122.81 131.929L123.122 132.058L123.131 132.062L123.624 132.266L123.742 132.315L124.35 132.561L124.365 132.567C124.645 132.68 124.924 132.792 125.204 132.903L125.245 132.919L125.663 133.084L126.063 133.239C126.306 133.333 126.549 133.427 126.791 133.52L127.264 133.701L127.664 133.855L128.065 134.005L128.303 134.094L128.541 134.182L128.869 134.302L129.042 134.365L129.215 134.428L129.644 134.583L129.822 134.646L130.278 134.81L130.494 134.887L130.52 134.896C130.625 134.933 130.73 134.974 130.835 135.008C130.94 135.042 131.045 135.085 131.15 135.117C131.306 135.172 131.463 135.227 131.62 135.281L132.05 135.429L132.076 135.438L132.141 135.46L132.157 135.466C132.292 135.512 132.426 135.558 132.561 135.602L133.032 135.762C133.457 135.904 133.883 136.045 134.308 136.183H134.315C134.738 136.322 135.163 136.459 135.589 136.593L136.202 136.787L136.512 136.883L136.694 136.94C136.955 137.021 137.217 137.101 137.479 137.18L137.807 137.278H137.818C137.927 137.312 138.038 137.344 138.146 137.378H138.155H138.163L138.409 137.452L138.668 137.529L138.909 137.6L138.959 137.615C139.296 137.714 139.633 137.813 139.972 137.911L140.382 138.029C140.546 138.078 140.716 138.125 140.883 138.173L141.427 138.327L141.777 138.425L142.126 138.522L142.88 138.729L143.531 138.905C143.766 138.968 144.001 139.031 144.238 139.093L144.406 139.138L144.575 139.183L144.911 139.271L144.933 139.276L145.003 139.295L145.71 139.477H145.723C145.938 139.534 146.156 139.589 146.372 139.644L146.932 139.786C147.479 139.924 148.031 140.06 148.588 140.197C148.811 140.251 149.034 140.306 149.259 140.359H149.271H149.285L149.312 140.365L149.65 140.447L149.988 140.525L150.375 140.616L150.721 140.698L150.739 140.702H150.756L150.932 140.744L151.107 140.784L151.457 140.866L151.964 140.984L152.197 141.037L152.568 141.122L152.94 141.208L153.687 141.376C153.874 141.418 154.065 141.446 154.257 141.46L154.339 141.465C154.668 141.481 154.999 141.461 155.323 141.406C155.388 141.395 155.454 141.383 155.518 141.37L155.573 141.358L155.655 141.339L155.737 141.319C155.791 141.305 155.846 141.29 155.901 141.275L155.936 141.266L155.984 141.251L156.028 141.238L156.06 141.228C156.062 141.229 156.065 141.229 156.067 141.228L156.105 141.216L156.15 141.201L156.189 141.188L156.232 141.173L156.272 141.16L156.315 141.144C156.329 141.144 156.342 141.135 156.356 141.13L156.397 141.115L156.439 141.099L156.467 141.088H156.478L156.56 141.054L156.605 141.036L156.642 141.02L156.771 140.965L156.853 140.927L156.887 140.911L156.969 140.872L157.044 140.835L157.056 140.829C157.108 140.804 157.158 140.777 157.21 140.752C157.262 140.727 157.316 140.695 157.368 140.665L157.409 140.642L157.419 140.637L157.443 140.623H157.448C157.474 140.608 157.5 140.593 157.526 140.576C157.537 140.57 157.549 140.564 157.56 140.557L157.618 140.522L157.663 140.494L157.759 140.433L157.789 140.413L157.836 140.382L157.897 140.342C157.901 140.338 157.906 140.335 157.911 140.332C157.936 140.314 157.962 140.297 157.987 140.28L158.126 140.182L158.194 140.132L158.211 140.119L158.281 140.066L158.354 140.009L158.415 139.962L158.421 139.958C158.434 139.947 158.447 139.937 158.46 139.925C158.495 139.897 158.531 139.869 158.565 139.839C158.565 139.839 158.565 139.839 158.569 139.839L158.639 139.78C158.659 139.764 158.678 139.747 158.697 139.73L158.765 139.669L158.778 139.659L158.813 139.627L158.845 139.598L158.878 139.567L158.891 139.555C159.884 138.615 160.368 137.196 159.814 135.78L159.568 135.153C159.492 134.959 159.415 134.765 159.338 134.571L159.304 134.483L159.075 133.906C158.993 133.7 158.911 133.493 158.829 133.288C158.79 133.189 158.751 133.093 158.711 132.995C158.672 132.898 158.637 132.812 158.601 132.721C158.463 132.378 158.324 132.037 158.185 131.697L158.035 131.33C157.975 131.185 157.915 131.038 157.854 130.893C157.793 130.748 157.744 130.625 157.69 130.492C157.636 130.358 157.579 130.225 157.526 130.092C157.287 129.52 157.047 128.951 156.806 128.385C156.576 127.847 156.345 127.311 156.112 126.777L156.005 126.531L155.739 125.927C155.673 125.777 155.606 125.626 155.538 125.476L155.486 125.357L155.254 124.838C155.069 124.426 154.882 124.013 154.693 123.601C154.637 123.476 154.58 123.351 154.522 123.227C154.399 122.96 154.275 122.692 154.151 122.425C154.138 122.398 154.125 122.37 154.112 122.343C154.043 122.194 153.974 122.045 153.903 121.896C153.899 121.886 153.894 121.876 153.889 121.867C153.81 121.698 153.731 121.53 153.652 121.363L153.495 121.031L153.187 120.387C152.992 119.981 152.795 119.575 152.596 119.17L152.422 118.815C152.287 118.543 152.152 118.27 152.016 117.998C151.957 117.88 151.898 117.766 151.838 117.644C151.718 117.402 151.592 117.161 151.473 116.919L151.431 116.836C151.376 116.723 151.318 116.61 151.258 116.497C151.153 116.294 151.049 116.09 150.943 115.887C150.917 115.835 150.891 115.784 150.861 115.732C150.664 115.35 150.464 114.968 150.262 114.586C150.061 114.204 149.857 113.822 149.652 113.44C149.584 113.312 149.515 113.185 149.446 113.057C149.377 112.93 149.308 112.802 149.239 112.671C149.169 112.539 149.102 112.422 149.035 112.297L149.03 112.289C148.96 112.161 148.89 112.032 148.819 111.902C148.743 111.763 148.666 111.623 148.588 111.484C148.454 111.24 148.317 110.996 148.178 110.753L147.899 110.258L147.871 110.21C147.771 110.031 147.669 109.853 147.568 109.674C147.566 109.672 147.564 109.668 147.563 109.665L147.259 109.136L147.233 109.091C147.134 108.919 147.034 108.747 146.935 108.575C146.865 108.454 146.795 108.335 146.724 108.214C146.714 108.195 146.703 108.176 146.691 108.158L146.554 107.921L146.254 107.413C146.181 107.289 146.107 107.165 146.033 107.042C145.904 106.822 145.773 106.603 145.641 106.383C145.633 106.372 145.627 106.36 145.619 106.347C145.541 106.218 145.464 106.089 145.385 105.96C145.129 105.536 144.87 105.11 144.607 104.683C144.512 104.529 144.417 104.374 144.321 104.219C143.292 102.559 142.212 100.879 141.083 99.1797C138.709 102.892 134.885 107.334 130.121 111.694C125.357 116.054 120.528 119.527 116.525 121.653C114.684 122.631 113.016 123.324 111.609 123.687C111.113 123.764 110.635 123.854 110.174 123.951C109.052 124.06 108.184 123.866 107.639 123.337C107.555 123.255 107.479 123.166 107.412 123.07L107.394 123.045C107.378 123.021 107.362 122.997 107.348 122.972C107.434 123.197 107.534 123.417 107.649 123.63C107.718 123.758 107.791 123.884 107.871 124.006C107.921 124.084 107.974 124.161 108.028 124.238L108.052 124.272L108.143 124.392L108.183 124.442L108.195 124.457C108.247 124.522 108.302 124.585 108.359 124.647C108.448 124.746 108.536 124.837 108.623 124.922Z" fill="#F4D200"/>
<path d="M108.576 124.875C108.592 124.891 108.608 124.906 108.625 124.922L108.654 124.949L108.708 125.001L108.764 125.052C108.801 125.086 108.84 125.119 108.879 125.152L108.907 125.176C108.951 125.213 108.997 125.253 109.043 125.285L109.106 125.334L109.171 125.38C109.193 125.395 109.214 125.411 109.236 125.426C109.271 125.451 109.307 125.475 109.344 125.499C109.362 125.511 109.38 125.524 109.398 125.535H109.404L109.504 125.597C109.551 125.625 109.597 125.651 109.645 125.674L110.104 125.918L110.463 126.108L110.59 126.173L111.021 126.399L111.466 126.631L111.507 126.652C111.65 126.729 111.792 126.801 111.935 126.873L112.327 127.074L112.523 127.173L112.846 127.337C113.149 127.491 113.453 127.64 113.755 127.791L114.208 128.016L114.661 128.238C114.963 128.385 115.264 128.53 115.563 128.675L115.871 128.822L116.091 128.927C116.216 128.987 116.341 129.046 116.466 129.105L116.916 129.317L117.442 129.562L117.543 129.609C117.718 129.686 117.892 129.768 118.066 129.848L118.192 129.906L118.69 130.132L118.992 130.269L119.191 130.358L119.376 130.441L119.458 130.476L119.51 130.5L119.752 130.608H119.757L120.003 130.717L120.461 130.918C120.801 131.067 121.141 131.214 121.481 131.359C121.613 131.416 121.745 131.472 121.877 131.528L122.466 131.777L122.483 131.784L122.5 131.791L122.813 131.921L123.125 132.051C123.128 132.053 123.131 132.054 123.135 132.055L123.441 132.182L123.747 132.307L124.052 132.432L124.356 132.554L124.372 132.56C124.651 132.673 124.93 132.785 125.211 132.896L125.231 132.904L125.252 132.913L125.46 132.995C125.53 133.023 125.599 133.051 125.67 133.078C125.802 133.13 125.936 133.182 126.07 133.232C126.204 133.283 126.336 133.337 126.469 133.387L126.798 133.513L127.27 133.693L127.67 133.848L128.072 133.998L128.309 134.087L128.547 134.174L128.863 134.291H128.87L129.011 134.343L129.047 134.355C129.058 134.361 129.07 134.366 129.082 134.369L129.199 134.411L129.219 134.419C129.363 134.471 129.506 134.524 129.649 134.574L129.827 134.636C129.978 134.691 130.131 134.745 130.282 134.799L130.499 134.877L130.524 134.885C130.63 134.922 130.734 134.963 130.839 134.997C130.944 135.031 131.049 135.074 131.154 135.106C131.311 135.161 131.468 135.216 131.625 135.27L131.766 135.319L131.911 135.369L132.054 135.418L132.081 135.427L132.145 135.449L132.162 135.455L132.401 135.536L132.565 135.591L133.036 135.751C133.461 135.893 133.887 136.034 134.312 136.172H134.319C134.742 136.311 135.167 136.448 135.593 136.582L136.206 136.776L136.516 136.872L136.698 136.929C136.959 137.01 137.221 137.09 137.483 137.169L137.806 137.268H137.817L138.145 137.368H138.154H138.162L138.408 137.441L138.667 137.518L138.907 137.589L138.958 137.605L139.387 137.731C139.571 137.785 139.756 137.837 139.941 137.891L139.971 137.9L140.009 137.911L140.281 137.988L140.384 138.018C140.466 138.042 140.548 138.066 140.635 138.09C140.721 138.113 140.799 138.138 140.886 138.161L141.157 138.238L141.429 138.315L141.483 138.33L141.779 138.413L142.128 138.51L142.505 138.614L142.882 138.717L143.21 138.805L143.539 138.893L143.891 138.988L144.244 139.082C144.301 139.097 144.357 139.112 144.413 139.126L144.582 139.171L144.918 139.259L144.94 139.265L145.01 139.283L145.718 139.466H145.73L145.971 139.529L146.053 139.55L146.381 139.632L146.939 139.774L147.412 139.893L147.887 140.011L148.181 140.084L148.597 140.185C148.679 140.205 148.761 140.224 148.843 140.245L148.933 140.267L149.269 140.344H149.282H149.296H149.309H149.322L149.66 140.422L149.998 140.499L150.385 140.59L150.732 140.673H150.75L150.767 140.678L150.942 140.719L151.117 140.759L151.467 140.841L151.974 140.958L152.153 141L152.207 141.012L152.578 141.097L152.95 141.182L153.697 141.35C153.885 141.393 154.075 141.421 154.267 141.434L154.349 141.439C154.679 141.455 155.009 141.435 155.334 141.38C155.416 141.366 155.498 141.35 155.58 141.332L155.662 141.313L155.744 141.293C155.799 141.279 155.853 141.265 155.908 141.249L155.99 141.225L156.034 141.212L156.066 141.202C156.068 141.203 156.071 141.203 156.073 141.202L156.155 141.175C156.183 141.166 156.211 141.156 156.237 141.147L156.319 141.118L156.401 141.087L156.472 141.06H156.483L156.565 141.026L156.647 140.993C156.729 140.958 156.811 140.922 156.893 140.884L156.975 140.845L157.051 140.808L157.062 140.802C157.114 140.777 157.165 140.749 157.217 140.725C157.268 140.7 157.322 140.667 157.375 140.638L157.416 140.615L157.426 140.609L157.449 140.596H157.454C157.481 140.581 157.506 140.565 157.532 140.549L157.669 140.466L157.765 140.405L157.903 140.315C157.908 140.311 157.913 140.308 157.918 140.305C157.943 140.287 157.969 140.27 157.993 140.253L158.132 140.155L158.2 140.104L158.217 140.092L158.29 140.036L158.363 139.98L158.469 139.896C158.504 139.868 158.54 139.839 158.574 139.81C158.574 139.81 158.574 139.81 158.578 139.81L158.648 139.75C158.695 139.711 158.741 139.673 158.787 139.63L158.822 139.598L158.854 139.568L158.887 139.537L158.92 139.506C158.988 139.443 159.053 139.38 159.118 139.315H159.122C159.228 139.208 159.331 139.099 159.431 138.987L159.44 138.978C159.557 138.844 159.67 138.708 159.778 138.57C159.977 138.313 160.156 138.044 160.316 137.764C160.331 137.739 160.345 137.714 160.358 137.687C160.386 137.636 160.413 137.586 160.441 137.532C160.48 137.455 160.517 137.377 160.553 137.3C160.565 137.275 160.576 137.249 160.587 137.223C160.599 137.196 160.61 137.171 160.621 137.145L160.653 137.068L160.674 137.017L160.701 136.947C160.724 136.884 160.747 136.821 160.768 136.758C160.777 136.731 160.785 136.705 160.793 136.68C160.801 136.656 160.811 136.626 160.818 136.598C160.825 136.571 160.833 136.549 160.839 136.521C160.846 136.493 160.854 136.469 160.861 136.444C160.867 136.418 160.874 136.392 160.879 136.366C160.885 136.341 160.892 136.315 160.897 136.289C160.903 136.264 160.909 136.237 160.914 136.212C160.919 136.186 160.925 136.16 160.929 136.134C160.933 136.109 160.938 136.083 160.942 136.057C160.953 135.985 160.963 135.913 160.97 135.841C160.974 135.815 160.976 135.789 160.978 135.764C160.978 135.74 160.982 135.716 160.984 135.692C160.985 135.668 160.984 135.635 160.984 135.606C160.984 135.577 160.984 135.557 160.984 135.533C160.988 135.317 160.972 135.101 160.934 134.888C160.927 134.842 160.918 134.797 160.908 134.752C160.856 134.516 160.804 134.279 160.751 134.044C160.702 133.824 160.653 133.604 160.604 133.386L160.582 133.287L160.508 132.962L160.434 132.636C160.379 132.403 160.325 132.17 160.27 131.94C160.258 131.885 160.244 131.83 160.232 131.775L160.193 131.611C160.181 131.559 160.169 131.508 160.157 131.457L160.121 131.302C160.03 130.916 159.939 130.531 159.847 130.149C159.814 130.01 159.78 129.873 159.747 129.736C159.727 129.653 159.707 129.571 159.687 129.489C159.666 129.407 159.647 129.325 159.627 129.243L159.516 128.791C159.478 128.642 159.441 128.492 159.404 128.342L159.29 127.888L159.175 127.435C159.096 127.125 159.017 126.818 158.937 126.511C158.929 126.483 158.922 126.453 158.914 126.425C158.757 125.82 158.598 125.218 158.435 124.619C158.409 124.528 158.385 124.436 158.359 124.345C158.298 124.119 158.236 123.893 158.173 123.668C158.126 123.5 158.08 123.331 158.031 123.163C158.019 123.119 158.007 123.074 157.994 123.03C157.967 122.933 157.94 122.837 157.912 122.74C157.898 122.692 157.884 122.643 157.871 122.595L157.829 122.451C157.698 121.987 157.564 121.526 157.427 121.068L157.381 120.908C157.361 120.843 157.342 120.778 157.322 120.714C157.317 120.692 157.31 120.671 157.303 120.65C157.214 120.352 157.124 120.054 157.034 119.755L157.005 119.665C156.955 119.498 156.904 119.332 156.852 119.167C156.852 119.156 156.846 119.144 156.842 119.133C156.784 118.945 156.725 118.759 156.667 118.572C156.628 118.449 156.589 118.326 156.55 118.203C156.475 117.964 156.399 117.726 156.321 117.488C156.177 117.035 156.029 116.584 155.879 116.135C155.835 116.003 155.79 115.873 155.746 115.741C155.645 115.44 155.541 115.138 155.438 114.835C155.393 114.704 155.347 114.574 155.302 114.443C155.209 114.176 155.116 113.908 155.021 113.641C155.011 113.611 154.999 113.58 154.988 113.549C154.944 113.424 154.899 113.299 154.855 113.174C154.819 113.076 154.784 112.978 154.748 112.88L154.694 112.731L154.612 112.499C154.591 112.442 154.57 112.385 154.55 112.328C154.395 111.907 154.239 111.485 154.079 111.064C153.92 110.643 153.759 110.222 153.596 109.803C153.542 109.662 153.487 109.522 153.432 109.382C153.377 109.242 153.323 109.102 153.268 108.962C153.24 108.894 153.213 108.825 153.186 108.757C153.159 108.689 153.131 108.62 153.104 108.552C153.104 108.552 153.104 108.545 153.104 108.543L153.075 108.465L152.965 108.194C152.956 108.169 152.945 108.144 152.935 108.117L152.911 108.059C152.865 107.944 152.819 107.83 152.771 107.715C152.764 107.696 152.756 107.677 152.748 107.658C152.639 107.391 152.529 107.125 152.42 106.857C152.353 106.699 152.286 106.54 152.22 106.381L152.193 106.315C152.192 106.312 152.192 106.309 152.193 106.306L152.178 106.271C152.178 106.268 152.178 106.265 152.178 106.263C152.162 106.225 152.147 106.185 152.13 106.15C152.064 105.995 151.997 105.835 151.929 105.678C151.928 105.674 151.926 105.671 151.924 105.667C151.842 105.475 151.76 105.282 151.678 105.089C151.672 105.073 151.664 105.056 151.657 105.04L151.627 104.973C151.565 104.829 151.503 104.686 151.439 104.542C151.43 104.519 151.42 104.498 151.411 104.476L151.236 104.082L151.209 104.021C151.171 103.935 151.133 103.849 151.094 103.764C151.011 103.579 150.929 103.394 150.848 103.209C150.835 103.182 150.823 103.154 150.809 103.126C150.761 103.019 150.713 102.912 150.663 102.805C150.554 102.566 150.445 102.328 150.335 102.089C150.329 102.076 150.323 102.062 150.316 102.049C150.251 101.909 150.186 101.768 150.12 101.628C149.904 101.164 149.685 100.702 149.463 100.242L149.426 100.165C149.371 100.048 149.313 99.9329 149.257 99.8137L149.22 99.7364C149.141 99.5755 149.062 99.4147 148.983 99.2538C148.934 99.1548 148.885 99.0558 148.836 98.9568C148.775 98.8346 148.714 98.7116 148.654 98.5902C148.581 98.4448 148.508 98.2994 148.435 98.154L148.287 97.8616C148.22 97.7286 148.152 97.5948 148.083 97.4617C148.083 97.4597 148.083 97.4576 148.083 97.4555C148.083 97.4509 148.079 97.4455 148.076 97.4416L147.853 97.0062C147.807 96.9172 147.761 96.8291 147.714 96.7401C147.55 96.4235 147.384 96.1067 147.217 95.7896C147.15 95.6612 147.082 95.5323 147.013 95.4028C146.946 95.2775 146.878 95.1515 146.811 95.0246C146.567 94.5688 146.319 94.112 146.067 93.6541C145.987 93.5071 145.905 93.3607 145.821 93.2148C145.739 93.0678 145.657 92.9209 145.575 92.7739C144.973 91.736 143.941 90.9703 142.781 90.541C142.92 90.6211 143.048 90.7172 143.161 90.8272C144.506 92.1327 143.62 95.2319 141.11 99.1532C138.737 102.866 134.913 107.308 130.149 111.667C125.385 116.027 120.556 119.501 116.553 121.626C114.712 122.605 113.044 123.298 111.637 123.66C111.141 123.738 110.663 123.827 110.202 123.924C109.079 124.033 108.211 123.84 107.667 123.311C107.582 123.229 107.507 123.14 107.44 123.044L107.422 123.018C107.406 122.994 107.39 122.97 107.375 122.946C107.311 122.775 107.255 122.601 107.206 122.426C107.253 122.601 107.31 122.773 107.371 122.943C107.38 122.966 107.388 122.989 107.397 123.011L107.424 123.078C107.433 123.1 107.443 123.123 107.452 123.144C107.471 123.189 107.491 123.233 107.511 123.277C107.521 123.299 107.531 123.322 107.541 123.343C107.572 123.409 107.604 123.474 107.638 123.538C107.649 123.56 107.661 123.581 107.673 123.603C107.686 123.625 107.69 123.636 107.699 123.652C107.724 123.697 107.75 123.742 107.776 123.786C107.786 123.805 107.798 123.824 107.809 123.842L107.862 123.928L107.876 123.949C107.882 123.959 107.888 123.969 107.896 123.979C107.908 123.999 107.921 124.019 107.935 124.039L108.017 124.16L108.052 124.207L108.077 124.241L108.168 124.361L108.207 124.411L108.22 124.426C108.225 124.434 108.23 124.442 108.237 124.448L108.253 124.469L108.286 124.509L108.333 124.564L108.38 124.616C108.396 124.633 108.412 124.652 108.428 124.669L108.472 124.717C108.491 124.737 108.509 124.756 108.529 124.776L108.576 124.875Z" fill="#8F72FC"/>
<g style="mix-blend-mode:multiply">
<path d="M108.574 124.874C108.59 124.89 108.606 124.906 108.622 124.921L108.634 124.933C108.759 125.054 108.892 125.169 109.031 125.276L109.041 125.285L109.104 125.333L109.169 125.38L109.184 125.391C109.253 125.44 109.324 125.489 109.396 125.534H109.402L109.502 125.596C109.549 125.624 109.595 125.65 109.642 125.674L110.102 125.917L110.461 126.107L110.587 126.172L111.019 126.398L111.463 126.63L111.488 126.643C111.636 126.72 111.784 126.797 111.933 126.875L112.325 127.075L112.521 127.175L112.843 127.338C113.147 127.493 113.45 127.644 113.752 127.793L114.206 128.017L114.534 128.177L114.661 128.239C114.962 128.387 115.263 128.532 115.564 128.677L115.871 128.824L116.091 128.929C116.216 128.988 116.341 129.048 116.466 129.107L116.916 129.319L117.442 129.564L117.543 129.61C117.994 129.817 118.443 130.023 118.892 130.229C119.039 130.296 119.185 130.361 119.333 130.426L119.374 130.446L119.749 130.612H119.754L120.123 130.775C120.264 130.838 120.406 130.899 120.547 130.961L121.127 131.213L121.396 131.328C121.418 131.338 121.439 131.348 121.461 131.356L121.871 131.532L122.462 131.781L122.514 131.803L123.119 132.055L123.13 132.06L123.437 132.186C123.499 132.212 123.562 132.238 123.624 132.263L123.743 132.311L123.798 132.334L124.044 132.436L124.363 132.565L124.743 132.72L124.847 132.761L125.202 132.904L125.224 132.911C125.3 132.942 125.377 132.973 125.453 133.002C125.529 133.031 125.592 133.058 125.662 133.085L125.683 133.093L126.124 133.266L126.134 133.27L126.462 133.396L126.564 133.436L127.004 133.604L127.446 133.772C127.518 133.799 127.59 133.827 127.663 133.85L128.064 134L128.302 134.089C128.457 134.147 128.613 134.204 128.77 134.261L128.856 134.293H128.862L129.003 134.345L129.04 134.357C129.051 134.362 129.063 134.367 129.075 134.371L129.191 134.413L129.212 134.42C129.355 134.472 129.498 134.526 129.642 134.575L130.095 134.738L130.274 134.802L130.492 134.879L130.516 134.888L130.832 134.999L130.982 135.052L131.375 135.189L131.473 135.223L131.759 135.321L131.903 135.371C131.959 135.391 132.017 135.41 132.073 135.429C132.1 135.439 132.127 135.448 132.155 135.457L132.314 135.512L132.397 135.539L132.725 135.652L133.028 135.753L133.675 135.969L134.086 136.105C134.157 136.128 134.228 136.152 134.301 136.175C134.701 136.306 135.103 136.435 135.506 136.561C135.756 136.639 136.007 136.721 136.258 136.798L136.504 136.875L136.646 136.92L137.236 137.102L137.271 137.113L137.794 137.267L137.89 137.297L138.15 137.374H138.154H138.164L138.831 137.573L138.897 137.592L138.948 137.608L139.269 137.703L139.377 137.734C139.561 137.788 139.746 137.841 139.931 137.894L139.961 137.903L140 137.914L140.271 137.991C140.388 138.026 140.507 138.06 140.625 138.093L140.723 138.121L141.147 138.241L141.334 138.294L141.42 138.318L141.473 138.332L142.005 138.482L142.119 138.513L142.495 138.616L142.716 138.677C142.813 138.704 142.909 138.73 143.005 138.754L143.197 138.806C143.423 138.868 143.649 138.928 143.877 138.989L144.229 139.083C144.286 139.097 144.342 139.113 144.398 139.127L144.567 139.172L144.611 139.182L144.904 139.26L144.925 139.265L144.996 139.283L145.703 139.466L145.956 139.532L146.038 139.553L146.922 139.777L147.395 139.896L147.87 140.014L148.164 140.087L148.389 140.142L148.824 140.248L148.914 140.27L149.29 140.361L149.598 140.439L149.641 140.449L149.979 140.527L150.038 140.541L150.367 140.619L150.714 140.701L150.75 140.709L150.925 140.75L151.449 140.873L151.956 140.991L152.136 141.032L152.19 141.044L152.24 141.056L152.933 141.214L153.679 141.383C154.282 141.511 154.908 141.509 155.509 141.376L155.564 141.364L155.646 141.345H155.657C155.748 141.324 155.839 141.301 155.93 141.275L155.979 141.26L156.022 141.247L156.054 141.237C156.056 141.238 156.059 141.238 156.061 141.237L156.099 141.225L156.181 141.197L156.263 141.169L156.345 141.139L156.427 141.108L156.467 141.093L156.594 141.041L156.631 141.026L156.76 140.97L156.842 140.932L156.875 140.917L156.957 140.877L157.033 140.841L157.044 140.835C157.055 140.83 157.065 140.824 157.075 140.819C157.157 140.778 157.239 140.736 157.315 140.691L157.357 140.668L157.398 140.645L157.408 140.64L157.431 140.626H157.436C157.474 140.605 157.511 140.582 157.548 140.56L157.606 140.525L157.651 140.497L157.747 140.435L157.778 140.416L157.824 140.385L157.885 140.345C157.89 140.341 157.895 140.338 157.9 140.335L157.97 140.287L158.066 140.219L158.114 140.185L158.182 140.135L158.199 140.122L158.27 140.069L158.332 140.02L158.345 140.01L158.406 139.963L158.412 139.958C158.425 139.947 158.438 139.937 158.451 139.926C158.486 139.898 158.522 139.869 158.556 139.84C158.556 139.84 158.556 139.84 158.56 139.84L158.63 139.78C158.65 139.765 158.669 139.748 158.688 139.731L158.756 139.67L158.769 139.66L158.804 139.628L158.836 139.599L158.801 139.63L158.789 139.64C157.763 140.549 156.246 140.964 154.76 140.398C154.541 140.315 154.321 140.232 154.104 140.148L153.494 139.916L153.402 139.881L152.797 139.649L152.148 139.397C152.046 139.357 151.943 139.319 151.842 139.278L151.554 139.165C151.195 139.025 150.837 138.884 150.481 138.742L150.097 138.588L149.638 138.405L149.218 138.237L148.799 138.068C148.2 137.827 147.604 137.584 147.01 137.339C146.447 137.107 145.886 136.873 145.326 136.637L145.069 136.529L144.436 136.26L143.964 136.058L143.84 136.005L143.297 135.773C142.865 135.586 142.433 135.398 142.001 135.208L141.61 135.035C141.33 134.912 141.05 134.787 140.771 134.662L140.689 134.623C140.532 134.553 140.376 134.484 140.221 134.413L140.19 134.399C140.013 134.32 139.837 134.24 139.662 134.16L139.315 134.005L138.642 133.696C138.217 133.5 137.793 133.302 137.37 133.103L136.999 132.928C136.714 132.793 136.429 132.659 136.144 132.522L135.774 132.344L135.017 131.978L134.929 131.935L134.575 131.762L133.937 131.448L133.773 131.371C133.374 131.174 132.975 130.974 132.576 130.772C132.177 130.57 131.778 130.367 131.379 130.163C131.245 130.095 131.112 130.027 130.98 129.958L130.58 129.751L130.191 129.548L130.182 129.543L129.782 129.334L129.346 129.101C129.09 128.967 128.837 128.832 128.583 128.696L128.066 128.418L128.015 128.391L127.457 128.089L127.448 128.084C127.263 127.984 127.079 127.884 126.896 127.782L126.848 127.756L126.31 127.459L125.934 127.251L125.875 127.218L125.629 127.08C125.453 126.982 125.276 126.883 125.099 126.784L124.712 126.565C124.484 126.436 124.255 126.307 124.026 126.178L123.988 126.155L123.584 125.923C123.142 125.669 122.698 125.411 122.254 125.15L121.77 124.866L121.752 124.855C120.362 124.035 118.778 123.549 117.142 123.44C116.927 123.426 116.71 123.415 116.494 123.407C114.858 123.345 113.22 123.443 111.606 123.699C111.136 123.824 110.656 123.913 110.17 123.963C109.048 124.072 108.18 123.878 107.636 123.349C107.551 123.268 107.475 123.178 107.409 123.083L107.391 123.057C107.375 123.033 107.359 123.009 107.344 122.984C107.353 123.007 107.362 123.03 107.371 123.052L107.398 123.119C107.407 123.141 107.416 123.164 107.426 123.185C107.445 123.23 107.464 123.274 107.485 123.318C107.494 123.34 107.504 123.363 107.515 123.384C107.545 123.45 107.578 123.515 107.612 123.579C107.631 123.617 107.652 123.656 107.672 123.693C107.693 123.729 107.723 123.783 107.75 123.827C107.76 123.846 107.772 123.865 107.782 123.883L107.836 123.969L107.85 123.99C107.869 124.021 107.888 124.051 107.909 124.08L107.991 124.201C108.05 124.285 108.111 124.367 108.176 124.448C108.187 124.462 108.198 124.476 108.211 124.489L108.227 124.51L108.26 124.55L108.307 124.605L108.331 124.633C108.338 124.641 108.345 124.649 108.353 124.657L108.382 124.689L108.402 124.71C108.413 124.723 108.424 124.735 108.435 124.747L108.446 124.758C108.465 124.778 108.483 124.797 108.503 124.817L108.574 124.874Z" fill="#F2F2F2"/>
</g>
<path d="M158.862 139.606C158.952 139.523 159.041 139.438 159.126 139.352H159.13C159.237 139.245 159.34 139.136 159.439 139.024L159.447 139.015C159.566 138.883 159.678 138.747 159.785 138.607C159.985 138.351 160.165 138.081 160.324 137.801C160.338 137.776 160.353 137.751 160.366 137.724C160.394 137.673 160.42 137.623 160.448 137.569C160.489 137.492 160.525 137.414 160.561 137.337C160.573 137.312 160.584 137.286 160.595 137.26C160.607 137.233 160.618 137.208 160.629 137.182L160.661 137.105L160.681 137.054L160.708 136.984C160.732 136.921 160.755 136.858 160.776 136.795C160.785 136.769 160.793 136.742 160.801 136.718C160.809 136.693 160.818 136.663 160.826 136.636C160.833 136.608 160.84 136.586 160.847 136.558C160.854 136.53 160.862 136.506 160.868 136.481C160.875 136.455 160.881 136.429 160.887 136.404C160.893 136.378 160.9 136.352 160.905 136.326C160.911 136.301 160.917 136.274 160.922 136.249C160.927 136.223 160.932 136.197 160.936 136.171C160.941 136.146 160.945 136.12 160.95 136.094C160.961 136.022 160.971 135.95 160.978 135.878C160.982 135.852 160.984 135.826 160.986 135.801C160.986 135.777 160.99 135.753 160.991 135.729C160.993 135.705 160.991 135.672 160.991 135.643C160.991 135.615 160.991 135.594 160.991 135.571C160.996 135.354 160.98 135.138 160.942 134.925C160.935 134.879 160.926 134.834 160.916 134.789C160.864 134.553 160.812 134.316 160.759 134.081C160.711 133.861 160.662 133.642 160.612 133.423C160.605 133.39 160.597 133.357 160.589 133.324L160.551 133.154C160.539 133.102 160.528 133.05 160.516 132.999L160.442 132.673C160.387 132.44 160.332 132.208 160.278 131.977C160.265 131.922 160.252 131.867 160.24 131.812C160.228 131.757 160.214 131.703 160.201 131.648C160.189 131.594 160.178 131.545 160.165 131.494L160.128 131.339C160.038 130.953 159.947 130.568 159.854 130.186C159.822 130.047 159.788 129.911 159.755 129.773C159.735 129.69 159.715 129.608 159.694 129.526C159.674 129.444 159.655 129.361 159.635 129.28L159.524 128.828C159.487 128.679 159.449 128.529 159.412 128.379C159.375 128.229 159.336 128.077 159.298 127.925L159.183 127.472C159.104 127.162 159.024 126.855 158.945 126.548L158.922 126.461C158.765 125.857 158.605 125.256 158.443 124.657C158.417 124.565 158.393 124.473 158.367 124.382C158.306 124.156 158.244 123.93 158.181 123.705C158.134 123.537 158.087 123.368 158.039 123.2C158.027 123.156 158.015 123.111 158.002 123.067C157.975 122.97 157.948 122.874 157.92 122.777C157.906 122.729 157.892 122.68 157.879 122.632C157.866 122.583 157.852 122.536 157.837 122.487C157.705 122.023 157.572 121.562 157.436 121.104C157.42 121.051 157.404 120.997 157.388 120.945C157.369 120.88 157.35 120.815 157.33 120.751C157.324 120.729 157.318 120.708 157.311 120.687C157.222 120.389 157.132 120.091 157.041 119.792L157.013 119.702C156.963 119.535 156.912 119.369 156.86 119.204C156.86 119.193 156.854 119.181 156.849 119.171C156.792 118.983 156.733 118.796 156.675 118.609C156.636 118.486 156.597 118.363 156.558 118.24C156.483 118.001 156.406 117.763 156.329 117.525C156.183 117.073 156.035 116.622 155.885 116.173C155.842 116.041 155.798 115.91 155.753 115.778C155.653 115.477 155.549 115.175 155.446 114.873C155.4 114.742 155.355 114.611 155.31 114.48C155.217 114.213 155.123 113.946 155.028 113.679C155.018 113.648 155.007 113.617 154.995 113.586C154.951 113.462 154.907 113.337 154.862 113.211C154.827 113.113 154.791 113.015 154.756 112.917L154.702 112.768L154.62 112.536C154.599 112.479 154.578 112.422 154.557 112.365C154.403 111.944 154.246 111.523 154.087 111.101C153.928 110.68 153.767 110.26 153.604 109.84C153.549 109.7 153.495 109.56 153.44 109.42C153.386 109.28 153.33 109.14 153.276 108.999C153.25 108.931 153.222 108.863 153.194 108.794C153.166 108.725 153.139 108.657 153.112 108.589C153.112 108.589 153.112 108.582 153.112 108.58L153.082 108.503L152.972 108.231C152.963 108.206 152.953 108.182 152.943 108.154L152.919 108.096C152.873 107.981 152.826 107.867 152.779 107.752C152.771 107.733 152.764 107.714 152.756 107.695C152.646 107.428 152.537 107.162 152.428 106.895C152.361 106.736 152.294 106.577 152.227 106.418L152.2 106.352C152.2 106.349 152.2 106.346 152.2 106.343L152.186 106.308C152.186 106.305 152.186 106.303 152.186 106.3C152.17 106.262 152.154 106.222 152.138 106.187C152.072 106.032 152.004 105.872 151.937 105.715C151.936 105.711 151.934 105.708 151.932 105.704C151.85 105.512 151.768 105.319 151.686 105.126C151.679 105.11 151.672 105.093 151.665 105.077L151.635 105.01C151.573 104.867 151.51 104.723 151.447 104.579C151.437 104.556 151.428 104.536 151.419 104.513L151.244 104.119L151.217 104.058C151.179 103.972 151.141 103.886 151.102 103.801C151.019 103.616 150.937 103.431 150.856 103.246C150.843 103.219 150.83 103.191 150.817 103.163C150.769 103.056 150.72 102.949 150.671 102.842C150.562 102.604 150.453 102.365 150.343 102.126C150.337 102.113 150.331 102.099 150.324 102.086C150.259 101.946 150.194 101.805 150.127 101.665C149.912 101.201 149.693 100.739 149.471 100.279L149.434 100.202C149.378 100.085 149.321 99.97 149.264 99.8509L149.227 99.7735C149.149 99.6126 149.07 99.4518 148.99 99.2909C148.942 99.1919 148.893 99.0929 148.844 98.9939C148.783 98.8717 148.722 98.7487 148.661 98.6273C148.589 98.4819 148.515 98.3365 148.442 98.1911L148.295 97.8987C148.227 97.7657 148.159 97.6319 148.091 97.4988C148.091 97.4968 148.091 97.4947 148.091 97.4927C148.091 97.488 148.086 97.4826 148.084 97.4787L147.861 97.0433C147.815 96.9543 147.769 96.8662 147.722 96.7772C147.558 96.4606 147.392 96.1438 147.225 95.8267C147.158 95.6983 147.09 95.5694 147.021 95.44C146.954 95.3147 146.886 95.1886 146.819 95.0617C146.575 94.6059 146.327 94.1491 146.075 93.6912C145.994 93.5443 145.912 93.3978 145.829 93.2519C145.747 93.1049 145.665 92.958 145.583 92.811C144.98 91.7731 143.949 91.0074 142.789 90.5781C142.928 90.6582 143.056 90.7543 143.169 90.8643C144.514 92.1699 143.628 95.269 141.118 99.1903C142.249 100.892 143.328 102.572 144.356 104.23C144.452 104.385 144.547 104.539 144.642 104.694C144.905 105.121 145.164 105.547 145.421 105.971C145.503 106.1 145.577 106.229 145.655 106.358C145.662 106.37 145.669 106.383 145.677 106.394C145.809 106.614 145.939 106.833 146.069 107.052C146.143 107.176 146.216 107.3 146.29 107.424L146.589 107.932L146.727 108.168C146.738 108.187 146.749 108.206 146.76 108.225C146.83 108.346 146.901 108.465 146.971 108.585C147.07 108.758 147.17 108.929 147.268 109.102L147.295 109.147L147.598 109.676C147.6 109.679 147.602 109.682 147.604 109.685C147.705 109.864 147.807 110.042 147.907 110.22L147.935 110.268L148.213 110.764C148.35 111.007 148.486 111.251 148.624 111.494C148.706 111.633 148.779 111.773 148.855 111.913C148.931 112.052 148.996 112.168 149.066 112.299L149.071 112.308C149.138 112.432 149.207 112.558 149.274 112.681C149.341 112.805 149.413 112.937 149.482 113.068C149.551 113.2 149.62 113.323 149.688 113.45C149.893 113.832 150.097 114.214 150.298 114.596C150.499 114.979 150.699 115.361 150.897 115.743C150.924 115.794 150.95 115.845 150.979 115.897C151.085 116.101 151.189 116.304 151.293 116.508C151.352 116.621 151.409 116.733 151.466 116.846L151.509 116.93C151.631 117.172 151.755 117.413 151.874 117.655C151.934 117.773 151.993 117.887 152.052 118.009C152.188 118.281 152.323 118.553 152.457 118.826L152.632 119.181C152.83 119.586 153.027 119.992 153.223 120.398L153.53 121.041L153.688 121.373C153.767 121.541 153.846 121.709 153.925 121.878C153.93 121.887 153.935 121.897 153.939 121.907C154.009 122.055 154.079 122.204 154.148 122.354C154.161 122.381 154.173 122.408 154.187 122.436C154.31 122.704 154.434 122.971 154.557 123.237C154.616 123.362 154.672 123.487 154.729 123.612C154.917 124.024 155.105 124.437 155.29 124.849L155.522 125.367L155.574 125.486C155.642 125.636 155.708 125.787 155.775 125.937L156.041 126.541L156.147 126.787C156.38 127.321 156.612 127.857 156.841 128.395C157.083 128.963 157.324 129.532 157.561 130.102C157.617 130.235 157.673 130.369 157.726 130.502C157.778 130.635 157.836 130.769 157.89 130.904C157.943 131.038 158.01 131.195 158.07 131.341L158.22 131.707C158.36 132.048 158.498 132.389 158.636 132.731C158.673 132.822 158.711 132.914 158.747 133.006C158.783 133.098 158.829 133.2 158.864 133.298C158.946 133.504 159.028 133.71 159.11 133.917L159.339 134.494L159.374 134.582C159.451 134.775 159.527 134.969 159.603 135.164L159.849 135.791C160.404 137.206 159.92 138.626 158.927 139.565L158.913 139.578L158.862 139.606Z" fill="#A58DFC"/>
<path d="M114.539 128.184C115.335 128.574 116.128 128.955 116.918 129.326C117.738 129.71 118.558 130.085 119.379 130.45L119.461 130.484L119.513 130.508L120.005 130.727C120.157 130.795 120.309 130.862 120.463 130.928C120.803 131.077 121.143 131.224 121.483 131.369L121.878 131.538L122.468 131.787L122.502 131.801L123.126 132.061C123.129 132.063 123.133 132.064 123.137 132.065L123.629 132.269C124.138 132.156 124.659 132.021 125.194 131.865C127.718 131.126 130.354 129.951 133.032 128.371C135.938 126.64 138.643 124.625 141.101 122.36C143.576 120.111 145.792 117.623 147.713 114.935C149.467 112.46 150.792 110.008 151.651 107.653C151.832 107.153 151.99 106.666 152.125 106.189C152.059 106.034 151.992 105.874 151.924 105.717C151.924 105.717 151.924 105.71 151.924 105.707C151.842 105.514 151.76 105.32 151.674 105.129C151.667 105.113 151.66 105.096 151.652 105.079C151.57 104.891 151.488 104.703 151.406 104.515C151.348 104.384 151.291 104.253 151.232 104.122C151.223 104.101 151.214 104.081 151.205 104.06C151.167 103.974 151.128 103.888 151.09 103.802C151.008 103.618 150.926 103.433 150.844 103.249C150.783 103.113 150.721 102.979 150.659 102.844C150.55 102.605 150.44 102.367 150.331 102.129C150.324 102.115 150.319 102.102 150.312 102.088C150.247 101.948 150.182 101.808 150.115 101.667C149.9 101.206 149.681 100.744 149.459 100.282C149.377 100.114 149.295 99.9467 149.213 99.7789C148.842 99.0204 148.463 98.2601 148.073 97.498C147.571 100.07 146.487 102.85 144.87 105.686C142.63 109.613 139.431 113.534 135.616 117.024C131.801 120.515 127.55 123.414 123.32 125.408C120.26 126.848 117.28 127.787 114.539 128.184Z" fill="#E7E9FC"/>
<path d="M130.527 134.897C132.206 135.491 133.895 136.058 135.596 136.598L136.209 136.792L136.518 136.888C136.948 137.022 137.379 137.154 137.81 137.284H137.82L138.148 137.383L138.167 137.389C138.413 137.466 138.659 137.537 138.91 137.61C140.051 137.087 141.161 136.506 142.236 135.869C144.84 134.319 147.264 132.513 149.467 130.483C151.685 128.468 153.67 126.239 155.392 123.831C156.099 122.838 156.748 121.809 157.336 120.748L157.318 120.685C157.228 120.387 157.138 120.089 157.047 119.791C157.038 119.761 157.029 119.73 157.019 119.699C156.969 119.532 156.918 119.367 156.867 119.201C156.863 119.191 156.859 119.179 156.856 119.168C156.797 118.981 156.739 118.794 156.68 118.607C156.642 118.484 156.603 118.361 156.564 118.238C156.488 117.999 156.412 117.76 156.335 117.521C156.19 117.071 156.042 116.62 155.892 116.17C155.848 116.039 155.804 115.907 155.76 115.776C155.658 115.474 155.555 115.173 155.452 114.871C155.407 114.739 155.361 114.609 155.316 114.478C155.223 114.21 155.129 113.943 155.035 113.677C155.024 113.646 155.013 113.615 155.002 113.584C154.958 113.46 154.913 113.335 154.868 113.209L154.708 112.766C154.267 113.786 153.768 114.783 153.213 115.753C151.187 119.303 148.296 122.847 144.845 126.001C141.395 129.155 137.555 131.775 133.732 133.58C132.689 134.073 131.619 134.513 130.527 134.897Z" fill="#E7E9FC"/>
<path d="M145.01 139.307C145.248 139.37 145.489 139.432 145.729 139.493C145.945 139.55 146.162 139.605 146.379 139.661L146.938 139.802C147.488 139.94 148.04 140.077 148.595 140.213L149.266 140.376L149.319 140.388C149.544 140.443 149.769 140.497 149.995 140.551L150.381 140.642L150.728 140.724L150.764 140.733L151.463 140.896L151.97 141.014C153.595 139.911 155.131 138.696 156.564 137.379C158.004 136.067 159.337 134.655 160.555 133.157C160.518 132.996 160.482 132.836 160.445 132.676C160.39 132.442 160.335 132.21 160.281 131.98C160.255 131.869 160.231 131.759 160.204 131.65C160.178 131.541 160.156 131.444 160.131 131.341C160.041 130.954 159.95 130.57 159.857 130.187C159.825 130.05 159.791 129.912 159.758 129.774C159.719 129.609 159.679 129.445 159.638 129.282L159.527 128.831C159.49 128.681 159.452 128.531 159.415 128.381C159.262 127.768 159.106 127.158 158.948 126.551C157.266 129.026 155.15 131.451 152.733 133.666C150.315 135.882 147.686 137.796 145.01 139.307Z" fill="#E7E9FC"/>
<path opacity="0.38" d="M149.49 122.681C150.106 122.147 150.636 121.531 151.062 120.852C150.995 120.721 150.926 120.59 150.857 120.46C150.625 120.022 150.392 119.584 150.157 119.145C150.078 118.999 149.999 118.853 149.92 118.706C149.842 118.561 149.762 118.415 149.683 118.268L149.449 117.84L149.443 117.83C149.361 117.684 149.283 117.537 149.202 117.391C149.114 117.23 149.026 117.071 148.937 116.911C148.782 116.632 148.627 116.352 148.47 116.073L148.15 115.505L148.118 115.449C148.003 115.246 147.887 115.041 147.77 114.837C147.77 114.837 147.766 114.829 147.764 114.826C147.649 114.624 147.533 114.422 147.416 114.219C147.407 114.202 147.396 114.185 147.386 114.167C147.273 113.97 147.158 113.772 147.044 113.575C146.962 113.438 146.88 113.3 146.803 113.161C146.791 113.14 146.779 113.118 146.765 113.097C146.713 113.007 146.66 112.915 146.607 112.827C146.494 112.632 146.378 112.44 146.263 112.243C146.181 112.101 146.099 111.959 146.012 111.816C145.862 111.566 145.712 111.315 145.561 111.063C145.552 111.048 145.545 111.034 145.536 111.021C145.447 110.873 145.358 110.724 145.267 110.577C144.974 110.089 144.676 109.601 144.375 109.112L144.047 108.58C143.348 107.455 142.631 106.322 141.895 105.183L141.792 105.049L138.008 108.761C138.908 109.683 139.78 110.606 140.625 111.532C140.737 111.656 140.848 111.777 140.959 111.901C141.265 112.24 141.567 112.58 141.867 112.919C141.959 113.022 142.05 113.126 142.14 113.229C142.148 113.238 142.157 113.249 142.166 113.258C142.32 113.434 142.473 113.611 142.624 113.788C142.71 113.888 142.797 113.987 142.882 114.088C143 114.225 143.116 114.363 143.232 114.499C143.286 114.564 143.34 114.627 143.396 114.691C143.41 114.707 143.422 114.722 143.436 114.738L143.682 115.031C143.8 115.172 143.915 115.312 144.032 115.452C144.042 115.464 144.053 115.477 144.062 115.49C144.181 115.634 144.3 115.778 144.418 115.923L144.424 115.93L144.78 116.369L144.812 116.409L145.14 116.817C145.3 117.019 145.459 117.22 145.619 117.422C145.71 117.538 145.8 117.654 145.89 117.77L146.136 118.087C146.138 118.09 146.139 118.092 146.141 118.094C146.222 118.198 146.302 118.301 146.382 118.404C146.464 118.51 146.546 118.616 146.628 118.723L146.874 119.043C147.116 119.364 147.356 119.686 147.592 120.008C147.829 120.33 148.065 120.653 148.3 120.978L148.395 121.109L148.765 121.629L148.97 121.918L149.02 121.989C149.165 122.196 149.31 122.402 149.453 122.608C149.46 122.639 149.476 122.66 149.49 122.681Z" fill="white"/>
<path opacity="0.38" d="M156.611 134.287C156.788 134.035 156.947 133.771 157.086 133.498L157.049 133.399C157.019 133.317 156.987 133.236 156.957 133.154C156.883 132.958 156.809 132.761 156.735 132.565C156.683 132.448 156.631 132.332 156.579 132.216C156.366 131.742 156.151 131.269 155.936 130.797C155.87 130.653 155.805 130.51 155.739 130.368C155.598 130.059 155.456 129.752 155.313 129.448C155.298 129.417 155.284 129.385 155.27 129.354C155.188 129.183 155.106 129.012 155.03 128.842C155.024 128.831 155.019 128.819 155.015 128.808L154.741 128.23C154.681 128.103 154.622 127.976 154.56 127.85C154.444 127.603 154.326 127.357 154.208 127.111C153.984 126.647 153.758 126.183 153.53 125.719C153.464 125.584 153.398 125.447 153.33 125.312C153.185 125.017 153.039 124.721 152.891 124.426C152.469 124.883 151.995 125.295 151.478 125.654C151.52 125.717 151.56 125.781 151.601 125.843L151.884 126.284C151.889 126.294 151.895 126.302 151.9 126.311C151.984 126.441 152.066 126.572 152.147 126.703C152.162 126.727 152.177 126.752 152.192 126.775C152.341 127.01 152.488 127.245 152.635 127.481C152.704 127.591 152.772 127.701 152.84 127.811C153.065 128.175 153.288 128.54 153.51 128.907C153.603 129.062 153.695 129.216 153.787 129.371C153.809 129.406 153.83 129.442 153.85 129.477C153.932 129.61 154.015 129.745 154.091 129.879C154.197 130.058 154.303 130.237 154.409 130.42L154.537 130.639C154.817 131.118 155.095 131.599 155.371 132.083C155.662 132.593 155.951 133.107 156.238 133.624C156.305 133.745 156.372 133.866 156.439 133.987C156.495 134.081 156.551 134.184 156.611 134.287Z" fill="white"/>
<path d="M109.381 122.958C109.406 122.958 109.431 122.958 109.457 122.962H109.539C109.565 122.962 109.593 122.962 109.621 122.962H109.703H109.789L109.878 122.958C109.928 122.958 109.981 122.952 110.034 122.947C110.057 122.947 110.081 122.947 110.104 122.94L110.173 122.933L110.259 122.923L110.355 122.911C110.55 122.884 110.761 122.846 110.986 122.795L111.09 122.771H111.099L111.197 122.748L111.279 122.727L111.438 122.686L111.53 122.66C111.573 122.648 111.613 122.637 111.658 122.624L111.795 122.584L111.931 122.542L112.001 122.52L112.118 122.483L112.287 122.426L112.428 122.378L112.51 122.35L112.662 122.295L112.739 122.267L112.881 122.214C112.889 122.21 112.898 122.207 112.906 122.204L113.118 122.122L113.133 122.115L113.216 122.084L113.298 122.051L113.526 121.957L113.548 121.948L113.804 121.839L113.891 121.801C114.007 121.749 114.125 121.698 114.245 121.646L114.427 121.562L114.519 121.519L114.612 121.476C114.86 121.359 115.116 121.234 115.38 121.1C115.413 121.083 115.447 121.067 115.479 121.05L115.528 121.025L115.681 120.948C119.842 118.792 124.709 115.25 129.381 110.97C134.053 106.691 137.953 102.215 140.362 98.3563C140.392 98.3091 140.421 98.2619 140.449 98.2155C140.992 97.351 141.475 96.4545 141.895 95.5317C141.913 95.4914 141.931 95.4543 141.948 95.4118C142.133 94.9856 142.28 94.5958 142.392 94.2408C142.401 94.2122 142.41 94.1843 142.418 94.1573C142.612 93.5223 142.693 93.0033 142.69 92.5934C142.69 92.5555 142.69 92.516 142.686 92.4828C142.686 92.4364 142.68 92.3907 142.676 92.3474C142.661 92.16 142.611 91.9766 142.527 91.806L142.51 91.7751C142.502 91.7604 142.493 91.7465 142.484 91.7325C142.743 91.4814 142.998 91.2275 143.25 90.9707C144.456 92.3281 143.554 95.3716 141.106 99.1978C138.733 102.91 134.908 107.352 130.144 111.712C125.381 116.072 120.552 119.545 116.549 121.671C114.708 122.649 113.04 123.342 111.633 123.705C111.137 123.782 110.658 123.872 110.197 123.969C109.826 124.009 109.45 124.009 109.078 123.969C109.169 123.631 109.265 123.296 109.37 122.963L109.381 122.958Z" fill="#A497FC"/>
<path d="M97.7496 100.267C96.4885 99.8793 95.7997 98.6009 96.2113 97.4119C96.6228 96.2229 97.9788 95.5735 99.2399 95.9615C100.501 96.3495 101.19 97.6279 100.778 98.817C100.367 100.006 99.0108 100.655 97.7496 100.267Z" fill="#8F72FC"/>
<path d="M52.4224 50.4978C51.8195 50.0254 51.737 49.1818 52.238 48.6135C52.739 48.0451 53.6338 47.9673 54.2366 48.4397C54.8395 48.912 54.922 49.7556 54.421 50.324C53.92 50.8923 53.0252 50.9701 52.4224 50.4978Z" fill="#1A84EF"/>
<path d="M92.3406 79.1297C91.4957 78.3332 91.4957 77.0418 92.3406 76.2453C93.1854 75.4488 94.5552 75.4488 95.4 76.2453C96.2448 77.0418 96.2448 78.3332 95.4 79.1297C94.5552 79.9262 93.1854 79.9262 92.3406 79.1297Z" fill="#FB3357"/>
<path d="M72.1316 87.3048C70.5062 86.531 69.8538 84.6614 70.6745 83.129C71.4953 81.5965 73.4783 80.9814 75.1037 81.7552C76.7292 82.529 77.3815 84.3986 76.5608 85.9311C75.7401 87.4635 73.7571 88.0786 72.1316 87.3048Z" fill="#FBC83A"/>
<path d="M98.8387 26.7062C97.1787 26.0005 96.4398 24.1598 97.1882 22.5948C97.9367 21.0297 99.8891 20.3331 101.549 21.0387C103.209 21.7444 103.948 23.5851 103.199 25.1501C102.451 26.7151 100.499 27.4118 98.8387 26.7062Z" fill="#FBC83A"/>
<path d="M37.7403 59.5554C36.4527 58.3415 36.4527 56.3733 37.7403 55.1594C39.0279 53.9455 41.1155 53.9455 42.403 55.1594C43.6906 56.3733 43.6906 58.3415 42.403 59.5554C41.1155 60.7693 39.0279 60.7693 37.7403 59.5554Z" fill="#FB3357"/>
<path d="M75.901 43.0107C74.9623 42.1256 74.9623 40.6908 75.901 39.8058C76.8397 38.9207 78.3616 38.9207 79.3003 39.8057C80.239 40.6908 80.239 42.1256 79.3003 43.0107C78.3616 43.8957 76.8397 43.8957 75.901 43.0107Z" fill="#FB3357"/>
<path d="M132.135 29.4709L130.688 30.5282C130.566 30.617 130.423 30.6766 130.272 30.7018C130.12 30.727 129.964 30.717 129.817 30.6728L128.076 30.1484C127.907 30.0983 127.727 30.0935 127.556 30.1345C127.385 30.1754 127.229 30.2606 127.107 30.3804C126.984 30.5002 126.899 30.6498 126.862 30.8126C126.824 30.9753 126.836 31.1447 126.895 31.3016L127.512 32.9259C127.564 33.0625 127.581 33.209 127.559 33.3528C127.538 33.4966 127.479 33.6333 127.389 33.7511L126.323 35.1503C126.219 35.2859 126.158 35.4461 126.146 35.6129C126.134 35.7796 126.171 35.9462 126.255 36.0938C126.338 36.2414 126.463 36.364 126.617 36.4478C126.77 36.5316 126.945 36.5732 127.123 36.568L128.95 36.5154C129.103 36.5108 129.256 36.5417 129.394 36.6053C129.533 36.6689 129.653 36.7634 129.744 36.8804L130.826 38.2726C130.931 38.4073 131.073 38.5116 131.238 38.5738C131.402 38.636 131.582 38.6536 131.757 38.6245C131.931 38.5955 132.094 38.521 132.225 38.4094C132.357 38.2979 132.454 38.1538 132.503 37.9934L133.014 36.339C133.058 36.1996 133.136 36.0722 133.243 35.9678C133.35 35.8633 133.483 35.785 133.629 35.7396L135.364 35.1982C135.532 35.1458 135.681 35.05 135.795 34.9218C135.908 34.7936 135.982 34.6379 136.006 34.4725C136.031 34.3071 136.006 34.1385 135.935 33.9858C135.863 33.833 135.747 33.7022 135.601 33.608L134.09 32.6381C133.963 32.5563 133.858 32.4465 133.786 32.3183C133.714 32.19 133.676 32.0471 133.675 31.9018L133.666 30.1786C133.666 30.0111 133.616 29.847 133.522 29.7049C133.428 29.5628 133.294 29.4483 133.135 29.3746C132.975 29.3009 132.797 29.2708 132.62 29.2878C132.443 29.3049 132.275 29.3683 132.135 29.4709Z" fill="#1A84EF"/>
<path d="M98.2498 107.395L97.6428 108.513C97.5915 108.607 97.5168 108.688 97.4251 108.749C97.3333 108.81 97.2273 108.849 97.1161 108.863L95.7945 109.025C95.6663 109.041 95.5453 109.09 95.4452 109.167C95.3451 109.244 95.2699 109.346 95.2281 109.461C95.1863 109.577 95.1797 109.701 95.2089 109.819C95.2381 109.938 95.302 110.047 95.3933 110.133L96.3335 111.023C96.4127 111.098 96.4715 111.19 96.5046 111.291C96.5378 111.393 96.5444 111.5 96.5238 111.604L96.2777 112.841C96.2542 112.961 96.2666 113.085 96.3136 113.198C96.3606 113.312 96.4403 113.41 96.5437 113.483C96.6471 113.556 96.77 113.601 96.8987 113.611C97.0274 113.622 97.1567 113.599 97.272 113.544L98.4599 112.976C98.56 112.928 98.671 112.904 98.7834 112.905C98.8957 112.907 99.006 112.934 99.1047 112.984L100.274 113.585C100.388 113.644 100.516 113.671 100.645 113.664C100.774 113.657 100.899 113.616 101.004 113.546C101.11 113.476 101.193 113.38 101.243 113.267C101.294 113.155 101.31 113.032 101.29 112.912L101.084 111.674C101.067 111.57 101.077 111.463 101.113 111.363C101.149 111.263 101.211 111.172 101.293 111.1L102.261 110.236C102.357 110.152 102.426 110.045 102.46 109.926C102.494 109.807 102.492 109.682 102.454 109.564C102.416 109.446 102.343 109.341 102.244 109.261C102.145 109.18 102.024 109.128 101.895 109.11L100.582 108.911C100.471 108.894 100.366 108.852 100.276 108.789C100.186 108.725 100.114 108.642 100.066 108.546L99.4919 107.412C99.4364 107.302 99.3494 107.208 99.2406 107.143C99.1319 107.077 99.0057 107.041 98.8765 107.039C98.7472 107.037 98.62 107.07 98.5093 107.133C98.3985 107.195 98.3087 107.286 98.2498 107.395Z" fill="#FBC83A"/>
<path d="M76.661 61.3797L76.054 62.4981C76.0027 62.5922 75.928 62.6731 75.8362 62.734C75.7445 62.7949 75.6385 62.8339 75.5273 62.8477L74.2057 63.0101C74.0775 63.0256 73.9565 63.0747 73.8564 63.1518C73.7562 63.2288 73.681 63.3308 73.6393 63.4461C73.5975 63.5614 73.5908 63.6855 73.6201 63.8042C73.6493 63.9229 73.7132 64.0315 73.8045 64.1177L74.7406 65.0079C74.8197 65.083 74.8783 65.1751 74.9113 65.2763C74.9443 65.3775 74.9507 65.4847 74.9301 65.5888L74.684 66.8263C74.6602 66.946 74.6725 67.0696 74.7194 67.1831C74.7662 67.2966 74.8458 67.3954 74.9492 67.4685C75.0526 67.5415 75.1755 67.5859 75.3042 67.5965C75.4329 67.6071 75.5622 67.5836 75.6774 67.5286L76.8735 66.957C76.9736 66.909 77.0847 66.8847 77.197 66.8861C77.3094 66.8876 77.4196 66.9149 77.5183 66.9655L78.6881 67.5664C78.8016 67.6248 78.93 67.652 79.059 67.6451C79.188 67.6381 79.3124 67.5973 79.418 67.5272C79.5237 67.4571 79.6065 67.3606 79.657 67.2485C79.7074 67.1363 79.7237 67.0131 79.7037 66.8928L79.4978 65.6553C79.4805 65.5507 79.4904 65.4438 79.5267 65.3437C79.563 65.2436 79.6246 65.1533 79.7062 65.0806L80.6734 64.2167C80.7675 64.1331 80.8348 64.0263 80.8678 63.9085C80.9007 63.7907 80.898 63.6665 80.8599 63.5501C80.8218 63.4336 80.7499 63.3296 80.6522 63.2497C80.5546 63.1699 80.4352 63.1174 80.3075 63.0983L78.995 62.8995C78.8842 62.8828 78.7794 62.8408 78.6896 62.7774C78.5999 62.7139 78.5279 62.6308 78.4798 62.5352L77.9055 61.4006C77.8507 61.2897 77.764 61.1956 77.6552 61.1289C77.5464 61.0622 77.4199 61.0257 77.2902 61.0235C77.1605 61.0214 77.0327 61.0536 76.9214 61.1166C76.8102 61.1796 76.72 61.2707 76.661 61.3797Z" fill="#1A84EF"/>
<path d="M68.1313 23.1482L67.2585 25.2179C67.1851 25.3923 67.0679 25.5472 66.9168 25.6693C66.7657 25.7914 66.5854 25.877 66.3914 25.9186L64.0878 26.4152C63.8653 26.4643 63.6617 26.5708 63.4998 26.7228C63.3379 26.8748 63.2241 27.0663 63.1711 27.2759C63.1181 27.4854 63.1281 27.7048 63.1999 27.9093C63.2717 28.1138 63.4024 28.2954 63.5775 28.4339L65.3963 29.8562C65.5492 29.9761 65.669 30.1291 65.7454 30.3022C65.8218 30.4753 65.8526 30.6633 65.8352 30.8501L65.6235 33.0691C65.6039 33.2838 65.6482 33.4995 65.7514 33.6919C65.8546 33.8842 66.0126 34.0457 66.2077 34.1581C66.4028 34.2706 66.6272 34.3296 66.8558 34.3285C67.0845 34.3273 67.3083 34.2662 67.5021 34.1519L69.4989 32.9608C69.6671 32.8606 69.8586 32.8004 70.0569 32.7853C70.2552 32.7703 70.4545 32.8007 70.6376 32.8742L72.8099 33.7497C73.0205 33.8334 73.2517 33.8602 73.4775 33.827C73.7034 33.7938 73.915 33.7019 74.0886 33.5617C74.2622 33.4215 74.3909 33.2385 74.4603 33.0332C74.5298 32.8278 74.5372 32.6083 74.4818 32.3993L73.8968 30.2406C73.848 30.0589 73.8465 29.8686 73.8927 29.6863C73.9388 29.5039 74.0312 29.3347 74.1618 29.1934L75.7156 27.5111C75.8652 27.3481 75.9637 27.1491 76 26.9363C76.0363 26.7235 76.009 26.5053 75.9212 26.3063C75.8334 26.1073 75.6885 25.9353 75.5028 25.8096C75.3171 25.6839 75.0979 25.6094 74.8698 25.5946L72.5121 25.4523C72.3136 25.4399 72.1212 25.3824 71.9515 25.2846C71.7818 25.1868 71.6397 25.0516 71.5375 24.8907L70.3258 22.9788C70.2073 22.7945 70.0367 22.6449 69.8331 22.5468C69.6295 22.4488 69.4009 22.4062 69.173 22.4238C68.9452 22.4414 68.727 22.5185 68.543 22.6464C68.359 22.7744 68.2165 22.9481 68.1313 23.1482Z" fill="#FBC83A"/>
<path d="M28.7337 80.4916L28.0585 82.0933C28.0015 82.228 27.9106 82.3477 27.7937 82.442C27.6768 82.5363 27.5374 82.6024 27.3875 82.6348L25.6048 83.0215C25.4321 83.0588 25.2739 83.1408 25.148 83.2585C25.0222 83.3761 24.9337 83.5245 24.8927 83.6871C24.8516 83.8496 24.8596 84.0197 24.9157 84.1782C24.9719 84.3366 25.0739 84.4771 25.2102 84.5838L26.6172 85.6836C26.7363 85.7767 26.8295 85.8959 26.8887 86.0307C26.9479 86.1655 26.9713 86.3118 26.9568 86.4571L26.7927 88.1733C26.7769 88.3397 26.8108 88.5069 26.8905 88.6561C26.9703 88.8052 27.0926 88.9304 27.2438 89.0175C27.3951 89.1045 27.5691 89.15 27.7462 89.1487C27.9234 89.1474 28.0966 89.0994 28.2464 89.0102L29.7903 88.089C29.9204 88.0114 30.0686 87.9647 30.222 87.953C30.3755 87.9413 30.5297 87.9649 30.6714 88.0217L32.3523 88.6993C32.5153 88.7649 32.6945 88.7863 32.8696 88.7609C33.0448 88.7356 33.2089 88.6645 33.3435 88.5558C33.4781 88.4471 33.5778 88.3051 33.6312 88.1458C33.6847 87.9865 33.6898 87.8163 33.646 87.6544L33.194 85.9845C33.1558 85.8439 33.1544 85.6967 33.19 85.5555C33.2256 85.4142 33.297 85.2833 33.3983 85.174L34.6009 83.8761C34.7178 83.7503 34.7949 83.596 34.8235 83.4309C34.8521 83.2658 34.8311 83.0964 34.7627 82.942C34.6944 82.7876 34.5815 82.6544 34.4369 82.5574C34.2923 82.4604 34.1217 82.4036 33.9446 82.3934L32.1201 82.2828C31.9665 82.2736 31.8175 82.2293 31.686 82.1537C31.5545 82.0781 31.4445 81.9735 31.3654 81.8489L30.4277 80.3694C30.3372 80.2265 30.2062 80.1104 30.0495 80.0338C29.8928 79.9573 29.7166 79.9235 29.5406 79.9362C29.3646 79.9489 29.1959 80.0076 29.0534 80.1057C28.9108 80.2038 28.8001 80.3374 28.7337 80.4916Z" fill="#FB3357"/>
</g>
<defs>
<clipPath id="clip0_2812_64738">
<rect width="161" height="141" fill="white" transform="matrix(-1 0 0 1 161 0.5)"/>
</clipPath>
</defs>
</svg>
