<svg width="16" height="20" viewBox="0 0 16 20" fill="none" xmlns="http://www.w3.org/2000/svg">
<mask id="path-1-inside-1_488_89537" fill="white">
<path d="M14.7857 15.7115H14.25V8.12221C14.25 4.97266 11.9219 2.36998 8.89286 1.93694V1.06864C8.89286 0.575335 8.4933 0.175781 8 0.175781C7.5067 0.175781 7.10714 0.575335 7.10714 1.06864V1.93694C4.07813 2.36998 1.75 4.97266 1.75 8.12221V15.7115H1.21429C0.819196 15.7115 0.5 16.0307 0.5 16.4258V17.1401C0.5 17.2383 0.580357 17.3186 0.678571 17.3186H5.5C5.5 18.6981 6.62054 19.8186 8 19.8186C9.37947 19.8186 10.5 18.6981 10.5 17.3186H15.3214C15.4196 17.3186 15.5 17.2383 15.5 17.1401V16.4258C15.5 16.0307 15.1808 15.7115 14.7857 15.7115ZM8 18.3901C7.40848 18.3901 6.92857 17.9102 6.92857 17.3186H9.07143C9.07143 17.9102 8.59152 18.3901 8 18.3901ZM3.35714 15.7115V8.12221C3.35714 6.88114 3.83929 5.71596 4.71652 4.83873C5.59375 3.9615 6.75893 3.47935 8 3.47935C9.24107 3.47935 10.4063 3.9615 11.2835 4.83873C12.1607 5.71596 12.6429 6.88114 12.6429 8.12221V15.7115H3.35714Z"/>
</mask>
<path d="M14.25 15.7115H12.25V17.7115H14.25V15.7115ZM8.89286 1.93694H6.89286V3.67135L8.60981 3.91681L8.89286 1.93694ZM7.10714 1.93694L7.39019 3.91681L9.10714 3.67135V1.93694H7.10714ZM1.75 15.7115V17.7115H3.75V15.7115H1.75ZM5.5 17.3186H7.5V15.3186H5.5V17.3186ZM10.5 17.3186V15.3186H8.5V17.3186H10.5ZM6.92857 17.3186V15.3186H4.92857V17.3186H6.92857ZM9.07143 17.3186H11.0714V15.3186H9.07143V17.3186ZM3.35714 15.7115H1.35714V17.7115H3.35714V15.7115ZM12.6429 15.7115V17.7115H14.6429V15.7115H12.6429ZM14.7857 13.7115H14.25V17.7115H14.7857V13.7115ZM16.25 15.7115V8.12221H12.25V15.7115H16.25ZM16.25 8.12221C16.25 3.96278 13.1756 0.528871 9.17591 -0.0429278L8.60981 3.91681C10.6682 4.21108 12.25 5.98253 12.25 8.12221H16.25ZM10.8929 1.93694V1.06864H6.89286V1.93694H10.8929ZM10.8929 1.06864C10.8929 -0.529235 9.59787 -1.82422 8 -1.82422V2.17578C7.38873 2.17578 6.89286 1.6799 6.89286 1.06864H10.8929ZM8 -1.82422C6.40213 -1.82422 5.10714 -0.529235 5.10714 1.06864H9.10714C9.10714 1.6799 8.61127 2.17578 8 2.17578V-1.82422ZM5.10714 1.06864V1.93694H9.10714V1.06864H5.10714ZM6.8241 -0.0429278C2.82445 0.528871 -0.25 3.96278 -0.25 8.12221H3.75C3.75 5.98253 5.3318 4.21108 7.39019 3.91681L6.8241 -0.0429278ZM-0.25 8.12221V15.7115H3.75V8.12221H-0.25ZM1.75 13.7115H1.21429V17.7115H1.75V13.7115ZM1.21429 13.7115C-0.285373 13.7115 -1.5 14.9261 -1.5 16.4258H2.5C2.5 17.1353 1.92377 17.7115 1.21429 17.7115V13.7115ZM-1.5 16.4258V17.1401H2.5V16.4258H-1.5ZM-1.5 17.1401C-1.5 18.3429 -0.524212 19.3186 0.678571 19.3186V15.3186C1.68493 15.3186 2.5 16.1337 2.5 17.1401H-1.5ZM0.678571 19.3186H5.5V15.3186H0.678571V19.3186ZM3.5 17.3186C3.5 19.8027 5.51597 21.8186 8 21.8186V17.8186C7.72511 17.8186 7.5 17.5935 7.5 17.3186H3.5ZM8 21.8186C10.484 21.8186 12.5 19.8027 12.5 17.3186H8.5C8.5 17.5935 8.2749 17.8186 8 17.8186V21.8186ZM10.5 19.3186H15.3214V15.3186H10.5V19.3186ZM15.3214 19.3186C16.5242 19.3186 17.5 18.3429 17.5 17.1401H13.5C13.5 16.1337 14.3151 15.3186 15.3214 15.3186V19.3186ZM17.5 17.1401V16.4258H13.5V17.1401H17.5ZM17.5 16.4258C17.5 14.9261 16.2854 13.7115 14.7857 13.7115V17.7115C14.0762 17.7115 13.5 17.1353 13.5 16.4258H17.5ZM8 16.3901C8.51305 16.3901 8.92857 16.8056 8.92857 17.3186H4.92857C4.92857 19.0147 6.30391 20.3901 8 20.3901V16.3901ZM6.92857 19.3186H9.07143V15.3186H6.92857V19.3186ZM7.07143 17.3186C7.07143 16.8056 7.48695 16.3901 8 16.3901V20.3901C9.69609 20.3901 11.0714 19.0147 11.0714 17.3186H7.07143ZM5.35714 15.7115V8.12221H1.35714V15.7115H5.35714ZM5.35714 8.12221C5.35714 7.41092 5.62903 6.75464 6.13073 6.25294L3.3023 3.42451C2.04954 4.67728 1.35714 6.35136 1.35714 8.12221H5.35714ZM6.13073 6.25294C6.63243 5.75124 7.28871 5.47935 8 5.47935V1.47935C6.22915 1.47935 4.55507 2.17175 3.3023 3.42451L6.13073 6.25294ZM8 5.47935C8.71129 5.47935 9.36757 5.75124 9.86927 6.25294L12.6977 3.42451C11.4449 2.17175 9.77085 1.47935 8 1.47935V5.47935ZM9.86927 6.25294C10.371 6.75464 10.6429 7.41092 10.6429 8.12221H14.6429C14.6429 6.35136 13.9505 4.67728 12.6977 3.42451L9.86927 6.25294ZM10.6429 8.12221V15.7115H14.6429V8.12221H10.6429ZM12.6429 13.7115H3.35714V17.7115H12.6429V13.7115Z" fill="#1B1B1B" mask="url(#path-1-inside-1_488_89537)"/>
</svg>
